InstrumentsSerif-Black.ufo
<glyph name="exclam" format="2">
	<unicode hex="0021"/>
	<advance width="236"/>
	<outline>
		<contour>
			<point x="117" y="179" type="curve" smooth="yes"/>
			<point x="125" y="179"/>
			<point x="129" y="185"/>
			<point x="129" y="195" type="curve" smooth="yes"/>
			<point x="131" y="370"/>
			<point x="163" y="639"/>
			<point x="163" y="694" type="curve" smooth="yes"/>
			<point x="163" y="727"/>
			<point x="146" y="750"/>
			<point x="117" y="750" type="curve" smooth="yes"/>
			<point x="88" y="750"/>
			<point x="71" y="727"/>
			<point x="71" y="694" type="curve" smooth="yes"/>
			<point x="71" y="639"/>
			<point x="103" y="370"/>
			<point x="105" y="195" type="curve" smooth="yes"/>
			<point x="105" y="185"/>
			<point x="110" y="179"/>
		</contour>
		<component base="period" xOffset="10"/>
	</outline>
</glyph>
<glyph name="dollar" format="2">
  <advance width="417"/>
  <unicode hex="0024"/>
  <anchor x="209" y="0" name="bottom"/>
  <anchor x="229" y="720" name="top"/>
  <outline>
    <contour>
      <point x="210" y="-109" type="curve" smooth="yes"/>
      <point x="218" y="-109" type="line" smooth="yes"/>
      <point x="223" y="-109"/>
      <point x="226" y="-106"/>
      <point x="226" y="-101" type="curve" smooth="yes"/>
      <point x="226" y="822" type="line" smooth="yes"/>
      <point x="226" y="827"/>
      <point x="223" y="830"/>
      <point x="218" y="830" type="curve" smooth="yes"/>
      <point x="210" y="830" type="line" smooth="yes"/>
      <point x="205" y="830"/>
      <point x="202" y="827"/>
      <point x="202" y="822" type="curve" smooth="yes"/>
      <point x="202" y="-101" type="line" smooth="yes"/>
      <point x="202" y="-106"/>
      <point x="205" y="-109"/>
    </contour>
    <component base="S"/>
  </outline>
</glyph>
<glyph name="ampersand" format="2">
	<unicode hex="0026"/>
	<advance width="580"/>
	<outline>
		<contour>
			<point x="206" y="-9" type="curve" smooth="yes"/>
			<point x="265" y="-9"/>
			<point x="323" y="18"/>
			<point x="378" y="89" type="curve" smooth="yes"/>
			<point x="384" y="97"/>
			<point x="391" y="97"/>
			<point x="397" y="88" type="curve" smooth="yes"/>
			<point x="443" y="16" type="line"/>
			<point x="450" y="5"/>
			<point x="459" y="0"/>
			<point x="472" y="0" type="curve" smooth="yes"/>
			<point x="574" y="0" type="line"/>
			<point x="583" y="0"/>
			<point x="588" y="4"/>
			<point x="588" y="11" type="curve" smooth="yes"/>
			<point x="588" y="18"/>
			<point x="584" y="22"/>
			<point x="576" y="23" type="curve" smooth="yes"/>
			<point x="532" y="27" type="line"/>
			<point x="516" y="28"/>
			<point x="508" y="39"/>
			<point x="495" y="59" type="curve" smooth="yes"/>
			<point x="437" y="152" type="line"/>
			<point x="430" y="164"/>
			<point x="430" y="173"/>
			<point x="436" y="185" type="curve" smooth="yes"/>
			<point x="454" y="222"/>
			<point x="473" y="266"/>
			<point x="485" y="295" type="curve" smooth="yes"/>
			<point x="506" y="345"/>
			<point x="533" y="360"/>
			<point x="562" y="363" type="curve" smooth="yes"/>
			<point x="581" y="365" type="line"/>
			<point x="591" y="366"/>
			<point x="594" y="371"/>
			<point x="594" y="377" type="curve" smooth="yes"/>
			<point x="594" y="384"/>
			<point x="589" y="388"/>
			<point x="580" y="388" type="curve" smooth="yes"/>
			<point x="405" y="388" type="line"/>
			<point x="396" y="388"/>
			<point x="391" y="384"/>
			<point x="391" y="378" type="curve" smooth="yes"/>
			<point x="391" y="371"/>
			<point x="395" y="367"/>
			<point x="404" y="366" type="curve" smooth="yes"/>
			<point x="439" y="361" type="line"/>
			<point x="466" y="357"/>
			<point x="471" y="340"/>
			<point x="456" y="302" type="curve" smooth="yes"/>
			<point x="448" y="282"/>
			<point x="433" y="246"/>
			<point x="418" y="215" type="curve" smooth="yes"/>
			<point x="413" y="205"/>
			<point x="405" y="205"/>
			<point x="399" y="214" type="curve" smooth="yes"/>
			<point x="272" y="418" type="line"/>
			<point x="267" y="426"/>
			<point x="269" y="432"/>
			<point x="277" y="437" type="curve" smooth="yes"/>
			<point x="371" y="486"/>
			<point x="412" y="541"/>
			<point x="412" y="609" type="curve" smooth="yes"/>
			<point x="412" y="666"/>
			<point x="366" y="733"/>
			<point x="282" y="733" type="curve" smooth="yes"/>
			<point x="187" y="733"/>
			<point x="124" y="667"/>
			<point x="124" y="586" type="curve" smooth="yes"/>
			<point x="124" y="534"/>
			<point x="144" y="490"/>
			<point x="183" y="426" type="curve" smooth="yes"/>
			<point x="188" y="418"/>
			<point x="187" y="412"/>
			<point x="179" y="407" type="curve" smooth="yes"/>
			<point x="91" y="352"/>
			<point x="32" y="268"/>
			<point x="32" y="168" type="curve" smooth="yes"/>
			<point x="32" y="73"/>
			<point x="95" y="-9"/>
		</contour>
		<contour>
			<point x="219" y="38" type="curve" smooth="yes"/>
			<point x="136" y="38"/>
			<point x="98" y="105"/>
			<point x="98" y="188" type="curve" smooth="yes"/>
			<point x="98" y="271"/>
			<point x="128" y="339"/>
			<point x="192" y="384" type="curve" smooth="yes"/>
			<point x="200" y="390"/>
			<point x="207" y="387"/>
			<point x="212" y="380" type="curve" smooth="yes"/>
			<point x="359" y="148" type="line"/>
			<point x="366" y="136"/>
			<point x="366" y="126"/>
			<point x="358" y="114" type="curve" smooth="yes"/>
			<point x="312" y="58"/>
			<point x="266" y="38"/>
		</contour>
		<contour>
			<point x="262" y="458" type="curve" smooth="yes"/>
			<point x="254" y="453"/>
			<point x="247" y="455"/>
			<point x="243" y="463" type="curve" smooth="yes"/>
			<point x="200" y="531"/>
			<point x="187" y="563"/>
			<point x="187" y="607" type="curve" smooth="yes"/>
			<point x="187" y="656"/>
			<point x="222" y="706"/>
			<point x="277" y="706" type="curve" smooth="yes"/>
			<point x="338" y="706"/>
			<point x="353" y="653"/>
			<point x="353" y="605" type="curve" smooth="yes"/>
			<point x="353" y="553"/>
			<point x="323" y="495"/>
		</contour>
	</outline>
</glyph>
<glyph name="plus" format="2">
	<unicode hex="002B"/>
	<advance width="531"/>
	<outline>
		<contour>
			<point x="258" y="153" type="curve"/>
			<point x="274" y="153" type="line"/>
			<point x="280" y="153"/>
			<point x="284" y="157"/>
			<point x="284" y="163" type="curve"/>
			<point x="284" y="580" type="line"/>
			<point x="284" y="586"/>
			<point x="280" y="590"/>
			<point x="274" y="590" type="curve"/>
			<point x="258" y="590" type="line"/>
			<point x="252" y="590"/>
			<point x="248" y="586"/>
			<point x="248" y="580" type="curve"/>
			<point x="248" y="163" type="line"/>
			<point x="248" y="157"/>
			<point x="252" y="153"/>
		</contour>
		<contour>
			<point x="70" y="354" type="curve"/>
			<point x="461" y="354" type="line"/>
			<point x="467" y="354"/>
			<point x="471" y="358"/>
			<point x="471" y="364" type="curve"/>
			<point x="471" y="378" type="line"/>
			<point x="471" y="384"/>
			<point x="467" y="388"/>
			<point x="461" y="388" type="curve"/>
			<point x="70" y="388" type="line"/>
			<point x="64" y="388"/>
			<point x="60" y="384"/>
			<point x="60" y="378" type="curve"/>
			<point x="60" y="364" type="line"/>
			<point x="60" y="358"/>
			<point x="64" y="354"/>
		</contour>
	</outline>
</glyph>
<glyph name="comma" format="2">
	<unicode hex="002C"/>
	<advance width="216"/>
	<outline>
		<contour>
			<point x="76" y="-156" type="curve" smooth="yes"/>
			<point x="126" y="-112"/>
			<point x="163" y="-42"/>
			<point x="163" y="29" type="curve" smooth="yes"/>
			<point x="163" y="70"/>
			<point x="142" y="96"/>
			<point x="109" y="96" type="curve" smooth="yes"/>
			<point x="81" y="96"/>
			<point x="61" y="76"/>
			<point x="61" y="49" type="curve" smooth="yes"/>
			<point x="61" y="2"/>
			<point x="113" y="7"/>
			<point x="113" y="-35" type="curve" smooth="yes"/>
			<point x="113" y="-71"/>
			<point x="99" y="-102"/>
			<point x="60" y="-141" type="curve" smooth="yes"/>
			<point x="52" y="-149"/>
			<point x="52" y="-156"/>
			<point x="57" y="-160" type="curve" smooth="yes"/>
			<point x="62" y="-164"/>
			<point x="69" y="-163"/>
		</contour>
	</outline>
</glyph>
<glyph name="hyphen" format="2">
	<unicode hex="002D"/>
	<advance width="430"/>
	<outline>
		<contour>
			<point x="92" y="259" type="curve"/>
			<point x="338" y="259" type="line"/>
			<point x="344" y="259"/>
			<point x="348" y="263"/>
			<point x="348" y="269" type="curve"/>
			<point x="348" y="283" type="line"/>
			<point x="348" y="289"/>
			<point x="344" y="293"/>
			<point x="338" y="293" type="curve"/>
			<point x="92" y="293" type="line"/>
			<point x="86" y="293"/>
			<point x="82" y="289"/>
			<point x="82" y="283" type="curve"/>
			<point x="82" y="269" type="line"/>
			<point x="82" y="263"/>
			<point x="86" y="259"/>
		</contour>
	</outline>
</glyph>
<glyph name="period" format="2">
	<unicode hex="002E"/>
	<advance width="213"/>
	<outline>
		<contour>
			<point x="107" y="-9" type="curve"/>
			<point x="134" y="-9"/>
			<point x="159" y="12"/>
			<point x="159" y="44" type="curve"/>
			<point x="159" y="74"/>
			<point x="134" y="96"/>
			<point x="107" y="96" type="curve"/>
			<point x="77" y="96"/>
			<point x="54" y="74"/>
			<point x="54" y="44" type="curve"/>
			<point x="54" y="12"/>
			<point x="77" y="-9"/>
		</contour>
	</outline>
</glyph>
<glyph name="slash" format="2">
	<unicode hex="002F"/>
	<advance width="258"/>
	<outline>
		<contour>
			<point x="18" y="-130" type="curve" smooth="yes"/>
			<point x="30" y="-130" type="line"/>
			<point x="36" y="-130"/>
			<point x="40" y="-126"/>
			<point x="41" y="-121" type="curve" smooth="yes"/>
			<point x="248" y="779" type="line"/>
			<point x="249" y="785"/>
			<point x="247" y="790"/>
			<point x="240" y="790" type="curve" smooth="yes"/>
			<point x="228" y="790" type="line"/>
			<point x="222" y="790"/>
			<point x="218" y="786"/>
			<point x="217" y="781" type="curve" smooth="yes"/>
			<point x="10" y="-119" type="line"/>
			<point x="9" y="-125"/>
			<point x="11" y="-130"/>
		</contour>
	</outline>
</glyph>
<glyph name="zero" format="2">
	<unicode hex="0030"/>
	<advance width="460"/>
	<outline>
		<contour>
			<point x="230" y="-9" type="curve"/>
			<point x="346" y="-9"/>
			<point x="424" y="153"/>
			<point x="424" y="361" type="curve"/>
			<point x="424" y="568"/>
			<point x="346" y="730"/>
			<point x="230" y="730" type="curve"/>
			<point x="113" y="730"/>
			<point x="36" y="568"/>
			<point x="36" y="361" type="curve"/>
			<point x="36" y="153"/>
			<point x="113" y="-9"/>
		</contour>
		<contour>
			<point x="230" y="18" type="curve"/>
			<point x="146" y="18"/>
			<point x="108" y="130"/>
			<point x="108" y="361" type="curve"/>
			<point x="108" y="591"/>
			<point x="146" y="703"/>
			<point x="230" y="703" type="curve"/>
			<point x="314" y="703"/>
			<point x="352" y="591"/>
			<point x="352" y="361" type="curve"/>
			<point x="352" y="130"/>
			<point x="314" y="18"/>
		</contour>
	</outline>
</glyph>
<glyph name="two" format="2">
	<unicode hex="0032"/>
	<advance width="404"/>
	<outline>
		<contour>
			<point x="38" y="0" type="curve" smooth="yes"/>
			<point x="341" y="0" type="line"/>
			<point x="356" y="0"/>
			<point x="365" y="8"/>
			<point x="366" y="23" type="curve" smooth="yes"/>
			<point x="378" y="211" type="line"/>
			<point x="379" y="222"/>
			<point x="373" y="228"/>
			<point x="366" y="228" type="curve" smooth="yes"/>
			<point x="358" y="228"/>
			<point x="353" y="223"/>
			<point x="351" y="215" type="curve" smooth="yes"/>
			<point x="342" y="168" type="line"/>
			<point x="325" y="80"/>
			<point x="292" y="60"/>
			<point x="216" y="60" type="curve" smooth="yes"/>
			<point x="109" y="60" type="line"/>
			<point x="95" y="60"/>
			<point x="86" y="70"/>
			<point x="94" y="82" type="curve" smooth="yes"/>
			<point x="172" y="200" type="line"/>
			<point x="281" y="365"/>
			<point x="361" y="468"/>
			<point x="361" y="573" type="curve" smooth="yes"/>
			<point x="361" y="671"/>
			<point x="297" y="730"/>
			<point x="205" y="730" type="curve" smooth="yes"/>
			<point x="124" y="730"/>
			<point x="39" y="685"/>
			<point x="25" y="554" type="curve" smooth="yes"/>
			<point x="24" y="542"/>
			<point x="29" y="534"/>
			<point x="38" y="534" type="curve" smooth="yes"/>
			<point x="46" y="534"/>
			<point x="51" y="538"/>
			<point x="53" y="550" type="curve" smooth="yes"/>
			<point x="67" y="647"/>
			<point x="126" y="690"/>
			<point x="190" y="690" type="curve" smooth="yes"/>
			<point x="254" y="690"/>
			<point x="289" y="644"/>
			<point x="289" y="562" type="curve" smooth="yes"/>
			<point x="289" y="470"/>
			<point x="247" y="366"/>
			<point x="147" y="214" type="curve" smooth="yes"/>
			<point x="27" y="31" type="line"/>
			<point x="22" y="23"/>
			<point x="20" y="19"/>
			<point x="20" y="13" type="curve" smooth="yes"/>
			<point x="20" y="4"/>
			<point x="26" y="0"/>
		</contour>
	</outline>
</glyph>
<glyph name="three" format="2">
	<unicode hex="0033"/>
	<advance width="372"/>
	<outline>
		<contour>
			<point x="135" y="-9" type="curve" smooth="yes"/>
			<point x="242" y="-9"/>
			<point x="341" y="108"/>
			<point x="341" y="236" type="curve" smooth="yes"/>
			<point x="341" y="356"/>
			<point x="276" y="441"/>
			<point x="185" y="441" type="curve" smooth="yes"/>
			<point x="174" y="441"/>
			<point x="161" y="439"/>
			<point x="151" y="436" type="curve" smooth="yes"/>
			<point x="144" y="434"/>
			<point x="142" y="441"/>
			<point x="147" y="445" type="curve" smooth="yes"/>
			<point x="170" y="461" type="line"/>
			<point x="258" y="522"/>
			<point x="299" y="575"/>
			<point x="299" y="629" type="curve" smooth="yes"/>
			<point x="299" y="690"/>
			<point x="255" y="730"/>
			<point x="188" y="730" type="curve" smooth="yes"/>
			<point x="110" y="730"/>
			<point x="53" y="676"/>
			<point x="44" y="594" type="curve" smooth="yes"/>
			<point x="43" y="583"/>
			<point x="48" y="576"/>
			<point x="56" y="576" type="curve" smooth="yes"/>
			<point x="64" y="576"/>
			<point x="70" y="582"/>
			<point x="71" y="591" type="curve" smooth="yes"/>
			<point x="81" y="656"/>
			<point x="118" y="696"/>
			<point x="169" y="696" type="curve" smooth="yes"/>
			<point x="208" y="696"/>
			<point x="231" y="667"/>
			<point x="231" y="618" type="curve" smooth="yes"/>
			<point x="231" y="573"/>
			<point x="205" y="529"/>
			<point x="147" y="475" type="curve" smooth="yes"/>
			<point x="75" y="407" type="line"/>
			<point x="66" y="398"/>
			<point x="63" y="389"/>
			<point x="67" y="383" type="curve" smooth="yes"/>
			<point x="72" y="377"/>
			<point x="80" y="378"/>
			<point x="91" y="386" type="curve" smooth="yes"/>
			<point x="110" y="399"/>
			<point x="132" y="405"/>
			<point x="159" y="405" type="curve" smooth="yes"/>
			<point x="232" y="405"/>
			<point x="269" y="340"/>
			<point x="269" y="212" type="curve" smooth="yes"/>
			<point x="269" y="96"/>
			<point x="217" y="18"/>
			<point x="141" y="18" type="curve" smooth="yes"/>
			<point x="68" y="18"/>
			<point x="106" y="96"/>
			<point x="56" y="96" type="curve" smooth="yes"/>
			<point x="35" y="96"/>
			<point x="20" y="82"/>
			<point x="20" y="60" type="curve" smooth="yes"/>
			<point x="20" y="18"/>
			<point x="65" y="-9"/>
		</contour>
	</outline>
</glyph>
<glyph name="four" format="2">
	<unicode hex="0034"/>
	<advance width="392"/>
	<outline>
		<contour>
			<point x="170" y="0" type="curve" smooth="yes"/>
			<point x="364" y="0" type="line"/>
			<point x="374" y="0"/>
			<point x="379" y="4"/>
			<point x="379" y="11" type="curve" smooth="yes"/>
			<point x="379" y="17"/>
			<point x="375" y="21"/>
			<point x="366" y="23" type="curve" smooth="yes"/>
			<point x="343" y="27" type="line"/>
			<point x="315" y="32"/>
			<point x="309" y="38"/>
			<point x="309" y="66" type="curve" smooth="yes"/>
			<point x="309" y="196" type="line"/>
			<point x="309" y="205"/>
			<point x="314" y="210"/>
			<point x="323" y="210" type="curve" smooth="yes"/>
			<point x="367" y="210" type="line"/>
			<point x="374" y="210"/>
			<point x="379" y="215"/>
			<point x="379" y="222" type="curve" smooth="yes"/>
			<point x="379" y="254" type="line"/>
			<point x="379" y="261"/>
			<point x="374" y="266"/>
			<point x="367" y="266" type="curve" smooth="yes"/>
			<point x="323" y="266" type="line"/>
			<point x="314" y="266"/>
			<point x="309" y="271"/>
			<point x="309" y="280" type="curve" smooth="yes"/>
			<point x="309" y="504" type="line"/>
			<point x="309" y="515"/>
			<point x="301" y="518"/>
			<point x="292" y="513" type="curve" smooth="yes"/>
			<point x="255" y="492" type="line"/>
			<point x="249" y="488"/>
			<point x="245" y="483"/>
			<point x="245" y="476" type="curve" smooth="yes"/>
			<point x="245" y="280" type="line"/>
			<point x="245" y="271"/>
			<point x="240" y="266"/>
			<point x="231" y="266" type="curve" smooth="yes"/>
			<point x="72" y="266" type="line"/>
			<point x="63" y="266"/>
			<point x="60" y="272"/>
			<point x="64" y="280" type="curve" smooth="yes"/>
			<point x="304" y="703" type="line"/>
			<point x="309" y="713"/>
			<point x="306" y="720"/>
			<point x="295" y="720" type="curve" smooth="yes"/>
			<point x="275" y="720" type="line"/>
			<point x="268" y="720"/>
			<point x="262" y="717"/>
			<point x="259" y="710" type="curve" smooth="yes"/>
			<point x="19" y="252" type="line"/>
			<point x="13" y="240"/>
			<point x="10" y="234"/>
			<point x="10" y="227" type="curve" smooth="yes"/>
			<point x="10" y="217"/>
			<point x="17" y="210"/>
			<point x="29" y="210" type="curve" smooth="yes"/>
			<point x="231" y="210" type="line"/>
			<point x="240" y="210"/>
			<point x="245" y="205"/>
			<point x="245" y="196" type="curve" smooth="yes"/>
			<point x="245" y="66" type="line"/>
			<point x="245" y="40"/>
			<point x="239" y="33"/>
			<point x="211" y="29" type="curve" smooth="yes"/>
			<point x="168" y="23" type="line"/>
			<point x="159" y="22"/>
			<point x="155" y="17"/>
			<point x="155" y="11" type="curve" smooth="yes"/>
			<point x="155" y="4"/>
			<point x="160" y="0"/>
		</contour>
	</outline>
</glyph>
<glyph name="five" format="2">
	<unicode hex="0035"/>
	<advance width="382"/>
	<outline>
		<contour>
			<point x="132" y="-9" type="curve"/>
			<point x="237" y="-9"/>
			<point x="349" y="78"/>
			<point x="349" y="229" type="curve"/>
			<point x="349" y="354"/>
			<point x="281" y="461"/>
			<point x="124" y="479" type="curve"/>
			<point x="114" y="480"/>
			<point x="110" y="484"/>
			<point x="112" y="494" type="curve"/>
			<point x="141" y="647" type="line"/>
			<point x="143" y="656"/>
			<point x="148" y="660"/>
			<point x="156" y="660" type="curve"/>
			<point x="321" y="660" type="line"/>
			<point x="329" y="660"/>
			<point x="334" y="664"/>
			<point x="336" y="672" type="curve"/>
			<point x="351" y="724" type="line"/>
			<point x="354" y="735"/>
			<point x="353" y="745"/>
			<point x="342" y="745" type="curve"/>
			<point x="326" y="745"/>
			<point x="325" y="720"/>
			<point x="292" y="720" type="curve"/>
			<point x="135" y="720" type="line"/>
			<point x="127" y="720"/>
			<point x="122" y="716"/>
			<point x="120" y="707" type="curve"/>
			<point x="67" y="431" type="line"/>
			<point x="65" y="421"/>
			<point x="70" y="416"/>
			<point x="79" y="415" type="curve"/>
			<point x="223" y="403"/>
			<point x="277" y="335"/>
			<point x="277" y="208" type="curve"/>
			<point x="277" y="69"/>
			<point x="206" y="18"/>
			<point x="143" y="18" type="curve"/>
			<point x="65" y="18"/>
			<point x="89" y="96"/>
			<point x="43" y="96" type="curve"/>
			<point x="23" y="96"/>
			<point x="10" y="82"/>
			<point x="10" y="62" type="curve"/>
			<point x="10" y="15"/>
			<point x="77" y="-9"/>
		</contour>
	</outline>
</glyph>
<glyph name="eight" format="2">
	<unicode hex="0038"/>
	<advance width="433"/>
	<outline>
		<contour>
			<point x="215" y="-9" type="curve"/>
			<point x="322" y="-9"/>
			<point x="405" y="74"/>
			<point x="405" y="186" type="curve"/>
			<point x="405" y="263"/>
			<point x="368" y="325"/>
			<point x="271" y="387" type="curve"/>
			<point x="263" y="392"/>
			<point x="263" y="399"/>
			<point x="271" y="403" type="curve"/>
			<point x="342" y="442"/>
			<point x="388" y="503"/>
			<point x="388" y="573" type="curve"/>
			<point x="388" y="663"/>
			<point x="318" y="730"/>
			<point x="229" y="730" type="curve"/>
			<point x="135" y="730"/>
			<point x="53" y="663"/>
			<point x="53" y="564" type="curve"/>
			<point x="53" y="500"/>
			<point x="88" y="432"/>
			<point x="163" y="381" type="curve"/>
			<point x="170" y="376"/>
			<point x="170" y="369"/>
			<point x="162" y="365" type="curve"/>
			<point x="77" y="320"/>
			<point x="28" y="255"/>
			<point x="28" y="172" type="curve"/>
			<point x="28" y="82"/>
			<point x="98" y="-9"/>
		</contour>
		<contour>
			<point x="217" y="18" type="curve"/>
			<point x="121" y="18"/>
			<point x="89" y="92"/>
			<point x="89" y="169" type="curve"/>
			<point x="89" y="249"/>
			<point x="120" y="311"/>
			<point x="181" y="353" type="curve"/>
			<point x="190" y="359"/>
			<point x="198" y="359"/>
			<point x="207" y="353" type="curve"/>
			<point x="286" y="307"/>
			<point x="346" y="252"/>
			<point x="346" y="151" type="curve"/>
			<point x="346" y="70"/>
			<point x="297" y="18"/>
		</contour>
		<contour>
			<point x="226" y="415" type="curve"/>
			<point x="131" y="474"/>
			<point x="112" y="529"/>
			<point x="112" y="590" type="curve"/>
			<point x="112" y="658"/>
			<point x="158" y="703"/>
			<point x="227" y="703" type="curve"/>
			<point x="295" y="703"/>
			<point x="329" y="653"/>
			<point x="329" y="576" type="curve"/>
			<point x="329" y="510"/>
			<point x="302" y="452"/>
			<point x="252" y="416" type="curve"/>
			<point x="243" y="409"/>
			<point x="235" y="409"/>
		</contour>
	</outline>
</glyph>
<glyph name="nine" format="2">
	<unicode hex="0039"/>
	<advance width="402"/>
	<outline>
		<contour>
			<point x="90" y="-8" type="curve" smooth="yes"/>
			<point x="241" y="33"/>
			<point x="366" y="211"/>
			<point x="366" y="460" type="curve" smooth="yes"/>
			<point x="366" y="621"/>
			<point x="297" y="730"/>
			<point x="196" y="730" type="curve" smooth="yes"/>
			<point x="102" y="730"/>
			<point x="26" y="623"/>
			<point x="26" y="502" type="curve" smooth="yes"/>
			<point x="26" y="381"/>
			<point x="96" y="285"/>
			<point x="190" y="285" type="curve" smooth="yes"/>
			<point x="219" y="285"/>
			<point x="245" y="293"/>
			<point x="266" y="309" type="curve" smooth="yes"/>
			<point x="274" y="315"/>
			<point x="280" y="312"/>
			<point x="278" y="302" type="curve" smooth="yes"/>
			<point x="252" y="145"/>
			<point x="184" y="56"/>
			<point x="82" y="18" type="curve" smooth="yes"/>
			<point x="75" y="15"/>
			<point x="71" y="11"/>
			<point x="71" y="4" type="curve" smooth="yes"/>
			<point x="71" y="-4"/>
			<point x="77" y="-11"/>
		</contour>
		<contour>
			<point x="98" y="507" type="curve" smooth="yes"/>
			<point x="98" y="637"/>
			<point x="129" y="703"/>
			<point x="195" y="703" type="curve" smooth="yes"/>
			<point x="261" y="703"/>
			<point x="294" y="637"/>
			<point x="294" y="513" type="curve" smooth="yes"/>
			<point x="294" y="383"/>
			<point x="259" y="310"/>
			<point x="191" y="310" type="curve" smooth="yes"/>
			<point x="127" y="310"/>
			<point x="98" y="375"/>
		</contour>
	</outline>
</glyph>
<glyph name="greater" format="2">
	<unicode hex="003E"/>
	<advance width="531"/>
	<outline>
		<contour>
			<point x="74" y="199" type="curve"/>
			<point x="461" y="345" type="line"/>
			<point x="468" y="348"/>
			<point x="471" y="352"/>
			<point x="471" y="359" type="curve"/>
			<point x="471" y="373" type="line"/>
			<point x="471" y="380"/>
			<point x="468" y="384"/>
			<point x="461" y="387" type="curve"/>
			<point x="74" y="533" type="line"/>
			<point x="66" y="536"/>
			<point x="60" y="531"/>
			<point x="60" y="523" type="curve"/>
			<point x="60" y="511" type="line"/>
			<point x="60" y="504"/>
			<point x="64" y="500"/>
			<point x="70" y="498" type="curve"/>
			<point x="453" y="355" type="line"/>
			<point x="453" y="377" type="line"/>
			<point x="70" y="234" type="line"/>
			<point x="64" y="232"/>
			<point x="60" y="228"/>
			<point x="60" y="221" type="curve"/>
			<point x="60" y="209" type="line"/>
			<point x="60" y="201"/>
			<point x="66" y="196"/>
		</contour>
	</outline>
</glyph>
<glyph name="question" format="2">
	<unicode hex="003F"/>
	<advance width="317"/>
	<outline>
		<contour>
			<point x="124" y="179" type="curve"/>
			<point x="132" y="179"/>
			<point x="137" y="184"/>
			<point x="137" y="195" type="curve"/>
			<point x="141" y="341" type="line"/>
			<point x="142" y="375"/>
			<point x="146" y="386"/>
			<point x="160" y="400" type="curve"/>
			<point x="199" y="436" type="line"/>
			<point x="256" y="490"/>
			<point x="285" y="535"/>
			<point x="285" y="611" type="curve"/>
			<point x="285" y="699"/>
			<point x="230" y="750"/>
			<point x="138" y="750" type="curve"/>
			<point x="108" y="750"/>
			<point x="63" y="740"/>
			<point x="42" y="723" type="curve"/>
			<point x="35" y="717"/>
			<point x="31" y="712"/>
			<point x="31" y="701" type="curve"/>
			<point x="28" y="580" type="line"/>
			<point x="28" y="569"/>
			<point x="32" y="563"/>
			<point x="39" y="563" type="curve"/>
			<point x="46" y="563"/>
			<point x="49" y="567"/>
			<point x="52" y="577" type="curve"/>
			<point x="82" y="675"/>
			<point x="110" y="720"/>
			<point x="167" y="720" type="curve"/>
			<point x="200" y="720"/>
			<point x="228" y="696"/>
			<point x="228" y="630" type="curve"/>
			<point x="228" y="563"/>
			<point x="204" y="533"/>
			<point x="162" y="491" type="curve"/>
			<point x="138" y="467" type="line"/>
			<point x="114" y="443"/>
			<point x="107" y="418"/>
			<point x="108" y="372" type="curve"/>
			<point x="112" y="195" type="line"/>
			<point x="112" y="184"/>
			<point x="117" y="179"/>
		</contour>
		<component base="period" xOffset="16"/>
	</outline>
</glyph>
<glyph name="A" format="2">
	<unicode hex="0041"/>
	<advance width="457"/>
	<outline>
		<contour>
			<point x="-3" y="0" type="curve"/>
			<point x="137" y="0" type="line"/>
			<point x="146" y="0"/>
			<point x="151" y="4"/>
			<point x="151" y="11" type="curve"/>
			<point x="151" y="17"/>
			<point x="146" y="21"/>
			<point x="134" y="23" type="curve"/>
			<point x="119" y="25" type="line"/>
			<point x="88" y="29"/>
			<point x="79" y="50"/>
			<point x="89" y="88" type="curve"/>
			<point x="123" y="222" type="line"/>
			<point x="128" y="240"/>
			<point x="138" y="248"/>
			<point x="156" y="248" type="curve"/>
			<point x="261" y="248" type="line"/>
			<point x="279" y="248"/>
			<point x="290" y="239"/>
			<point x="294" y="222" type="curve"/>
			<point x="332" y="67" type="line"/>
			<point x="339" y="38"/>
			<point x="334" y="27"/>
			<point x="311" y="25" type="curve"/>
			<point x="292" y="23" type="line"/>
			<point x="280" y="22"/>
			<point x="275" y="17"/>
			<point x="275" y="11" type="curve"/>
			<point x="275" y="4"/>
			<point x="280" y="0"/>
			<point x="289" y="0" type="curve"/>
			<point x="460" y="0" type="line"/>
			<point x="469" y="0"/>
			<point x="475" y="3"/>
			<point x="475" y="10" type="curve"/>
			<point x="475" y="17"/>
			<point x="470" y="21"/>
			<point x="461" y="23" type="curve"/>
			<point x="446" y="26" type="line"/>
			<point x="420" y="31"/>
			<point x="411" y="43"/>
			<point x="402" y="80" type="curve"/>
			<point x="244" y="714" type="line"/>
			<point x="241" y="727"/>
			<point x="234" y="730"/>
			<point x="228" y="730" type="curve"/>
			<point x="223" y="730"/>
			<point x="216" y="727"/>
			<point x="213" y="714" type="curve"/>
			<point x="58" y="89" type="line"/>
			<point x="49" y="52"/>
			<point x="37" y="31"/>
			<point x="11" y="26" type="curve"/>
			<point x="-4" y="23" type="line"/>
			<point x="-13" y="21"/>
			<point x="-18" y="17"/>
			<point x="-18" y="10" type="curve"/>
			<point x="-18" y="3"/>
			<point x="-12" y="0"/>
		</contour>
		<contour>
			<point x="153" y="278" type="line"/>
			<point x="143" y="278"/>
			<point x="138" y="285"/>
			<point x="140" y="295" type="curve"/>
			<point x="207" y="563" type="line"/>
			<point x="212" y="563" type="line"/>
			<point x="276" y="295" type="line"/>
			<point x="278" y="285"/>
			<point x="273" y="278"/>
			<point x="263" y="278" type="curve"/>
		</contour>
	</outline>
</glyph>
<glyph name="B" format="2">
	<unicode hex="0042"/>
	<advance width="478"/>
	<outline>
		<contour>
			<point x="34" y="0" type="curve" smooth="yes"/>
			<point x="241" y="0" type="line"/>
			<point x="361" y="0"/>
			<point x="450" y="85"/>
			<point x="450" y="204" type="curve" smooth="yes"/>
			<point x="450" y="296"/>
			<point x="398" y="366"/>
			<point x="308" y="397" type="curve" smooth="yes"/>
			<point x="298" y="400"/>
			<point x="299" y="408"/>
			<point x="307" y="412" type="curve" smooth="yes"/>
			<point x="373" y="446"/>
			<point x="410" y="500"/>
			<point x="410" y="560" type="curve" smooth="yes"/>
			<point x="410" y="652"/>
			<point x="337" y="720"/>
			<point x="237" y="720" type="curve" smooth="yes"/>
			<point x="34" y="720" type="line"/>
			<point x="24" y="720"/>
			<point x="19" y="716"/>
			<point x="19" y="709" type="curve" smooth="yes"/>
			<point x="19" y="702"/>
			<point x="23" y="699"/>
			<point x="32" y="697" type="curve" smooth="yes"/>
			<point x="55" y="693" type="line"/>
			<point x="83" y="688"/>
			<point x="89" y="682"/>
			<point x="89" y="654" type="curve" smooth="yes"/>
			<point x="89" y="66" type="line"/>
			<point x="89" y="38"/>
			<point x="83" y="32"/>
			<point x="55" y="27" type="curve" smooth="yes"/>
			<point x="32" y="23" type="line"/>
			<point x="23" y="21"/>
			<point x="19" y="18"/>
			<point x="19" y="11" type="curve" smooth="yes"/>
			<point x="19" y="4"/>
			<point x="24" y="0"/>
		</contour>
		<contour>
			<point x="228" y="25" type="curve" smooth="yes"/>
			<point x="181" y="25"/>
			<point x="160" y="47"/>
			<point x="160" y="94" type="curve" smooth="yes"/>
			<point x="160" y="337" type="line"/>
			<point x="160" y="371"/>
			<point x="179" y="386"/>
			<point x="222" y="386" type="curve" smooth="yes"/>
			<point x="315" y="386"/>
			<point x="375" y="318"/>
			<point x="375" y="207" type="curve" smooth="yes"/>
			<point x="375" y="96"/>
			<point x="315" y="25"/>
		</contour>
		<contour>
			<point x="213" y="411" type="curve" smooth="yes"/>
			<point x="176" y="411"/>
			<point x="160" y="427"/>
			<point x="160" y="466" type="curve" smooth="yes"/>
			<point x="160" y="655" type="line"/>
			<point x="160" y="682"/>
			<point x="177" y="695"/>
			<point x="213" y="695" type="curve" smooth="yes"/>
			<point x="287" y="695"/>
			<point x="337" y="639"/>
			<point x="337" y="556" type="curve" smooth="yes"/>
			<point x="337" y="473"/>
			<point x="284" y="411"/>
		</contour>
	</outline>
</glyph>
<glyph name="C" format="2">
  <advance width="480"/>
  <unicode hex="0043"/>
  <anchor x="276" y="0" name="bottom"/>
  <anchor x="280" y="720" name="top"/>
  <outline>
    <contour>
      <point x="286" y="-9" type="curve" smooth="yes"/>
      <point x="350" y="-9"/>
      <point x="391" y="2"/>
      <point x="423" y="18" type="curve" smooth="yes"/>
      <point x="432" y="23"/>
      <point x="436" y="28"/>
      <point x="436" y="39" type="curve" smooth="yes"/>
      <point x="440" y="201" type="line" smooth="yes"/>
      <point x="440" y="212"/>
      <point x="436" y="217"/>
      <point x="429" y="218" type="curve" smooth="yes"/>
      <point x="421" y="219"/>
      <point x="415" y="214"/>
      <point x="413" y="205" type="curve" smooth="yes"/>
      <point x="401" y="156" type="line" smooth="yes"/>
      <point x="375" y="49"/>
      <point x="342" y="20"/>
      <point x="282" y="20" type="curve" smooth="yes"/>
      <point x="198" y="20"/>
      <point x="118" y="139"/>
      <point x="118" y="364" type="curve" smooth="yes"/>
      <point x="118" y="582"/>
      <point x="188" y="701"/>
      <point x="281" y="701" type="curve" smooth="yes"/>
      <point x="331" y="701"/>
      <point x="367" y="667"/>
      <point x="395" y="563" type="curve" smooth="yes"/>
      <point x="405" y="526" type="line" smooth="yes"/>
      <point x="407" y="517"/>
      <point x="411" y="513"/>
      <point x="419" y="513" type="curve" smooth="yes"/>
      <point x="427" y="513"/>
      <point x="431" y="519"/>
      <point x="431" y="530" type="curve" smooth="yes"/>
      <point x="428" y="682" type="line" smooth="yes"/>
      <point x="428" y="693"/>
      <point x="425" y="698"/>
      <point x="416" y="703" type="curve" smooth="yes"/>
      <point x="384" y="719"/>
      <point x="343" y="730"/>
      <point x="289" y="730" type="curve" smooth="yes"/>
      <point x="150" y="730"/>
      <point x="40" y="584"/>
      <point x="40" y="364" type="curve" smooth="yes"/>
      <point x="40" y="137"/>
      <point x="138" y="-9"/>
    </contour>
  </outline>
</glyph>
<glyph name="D" format="2">
	<unicode hex="0044"/>
	<advance width="530"/>
	<outline>
		<contour>
			<point x="34" y="0" type="curve" smooth="yes"/>
			<point x="226" y="0" type="line"/>
			<point x="387" y="0"/>
			<point x="490" y="139"/>
			<point x="490" y="357" type="curve" smooth="yes"/>
			<point x="490" y="573"/>
			<point x="392" y="720"/>
			<point x="236" y="720" type="curve" smooth="yes"/>
			<point x="34" y="720" type="line"/>
			<point x="24" y="720"/>
			<point x="19" y="716"/>
			<point x="19" y="709" type="curve" smooth="yes"/>
			<point x="19" y="702"/>
			<point x="23" y="699"/>
			<point x="32" y="697" type="curve" smooth="yes"/>
			<point x="55" y="693" type="line"/>
			<point x="83" y="688"/>
			<point x="89" y="682"/>
			<point x="89" y="654" type="curve" smooth="yes"/>
			<point x="89" y="66" type="line"/>
			<point x="89" y="42"/>
			<point x="79" y="31"/>
			<point x="55" y="27" type="curve" smooth="yes"/>
			<point x="32" y="23" type="line"/>
			<point x="23" y="21"/>
			<point x="19" y="18"/>
			<point x="19" y="11" type="curve" smooth="yes"/>
			<point x="19" y="4"/>
			<point x="24" y="0"/>
		</contour>
		<contour>
			<point x="230" y="26" type="curve" smooth="yes"/>
			<point x="180" y="26"/>
			<point x="160" y="46"/>
			<point x="160" y="99" type="curve" smooth="yes"/>
			<point x="160" y="621" type="line"/>
			<point x="160" y="669"/>
			<point x="187" y="694"/>
			<point x="236" y="694" type="curve" smooth="yes"/>
			<point x="352" y="694"/>
			<point x="412" y="570"/>
			<point x="412" y="357" type="curve" smooth="yes"/>
			<point x="412" y="142"/>
			<point x="348" y="26"/>
		</contour>
	</outline>
</glyph>
<glyph name="I" format="2">
	<unicode hex="0049"/>
	<advance width="249"/>
	<outline>
		<contour>
			<point x="32" y="0" type="curve"/>
			<point x="216" y="0" type="curve"/>
			<point x="232" y="0"/>
			<point x="240" y="8"/>
			<point x="240" y="20" type="curve"/>
			<point x="240" y="32"/>
			<point x="231.76923636771716" y="40.17307272421214"/>
			<point x="224" y="46" type="curve"/>
			<point x="216" y="52" type="curve"/>
			<point x="208.05142723735122" y="57.96142957198658"/>
			<point x="200" y="64"/>
			<point x="200" y="88" type="curve"/>
			<point x="200" y="630" type="curve"/>
			<point x="200" y="658"/>
			<point x="206" y="665"/>
			<point x="218" y="670" type="curve"/>
			<point x="230" y="698" type="curve"/>
			<point x="239" y="700"/>
			<point x="242" y="704"/>
			<point x="242" y="710" type="curve"/>
			<point x="242" y="717"/>
			<point x="238" y="720"/>
			<point x="228" y="720" type="curve"/>
			<point x="22" y="720" type="curve"/>
			<point x="12" y="720"/>
			<point x="8" y="717"/>
			<point x="8" y="710" type="curve"/>
			<point x="8" y="704"/>
			<point x="11" y="700"/>
			<point x="20" y="698" type="curve"/>
			<point x="32" y="670" type="curve"/>
			<point x="42" y="665"/>
			<point x="48" y="658"/>
			<point x="48" y="630" type="curve"/>
			<point x="48" y="88" type="curve"/>
			<point x="48" y="64"/>
			<point x="40" y="58"/>
			<point x="32" y="52" type="curve"/>
			<point x="24" y="46" type="curve"/>
			<point x="15.943708828832714" y="39.957781621624534"/>
			<point x="8" y="32"/>
			<point x="8" y="20" type="curve"/>
			<point x="8" y="8"/>
			<point x="16" y="0"/>
		</contour>
	</outline>
</glyph>
<glyph name="L" format="2">
	<unicode hex="004C"/>
	<advance width="412"/>
	<outline>
		<contour>
			<point x="34" y="0" type="curve" smooth="yes"/>
			<point x="357" y="0" type="line"/>
			<point x="372" y="0"/>
			<point x="381" y="8"/>
			<point x="382" y="23" type="curve" smooth="yes"/>
			<point x="394" y="211" type="line"/>
			<point x="395" y="222"/>
			<point x="389" y="228"/>
			<point x="382" y="228" type="curve" smooth="yes"/>
			<point x="374" y="228"/>
			<point x="369" y="223"/>
			<point x="367" y="215" type="curve" smooth="yes"/>
			<point x="354" y="148" type="line"/>
			<point x="334" y="45"/>
			<point x="278" y="25"/>
			<point x="232" y="25" type="curve" smooth="yes"/>
			<point x="191" y="25"/>
			<point x="160" y="45"/>
			<point x="160" y="93" type="curve" smooth="yes"/>
			<point x="160" y="653" type="line"/>
			<point x="160" y="681"/>
			<point x="166" y="689"/>
			<point x="194" y="693" type="curve" smooth="yes"/>
			<point x="221" y="697" type="line"/>
			<point x="228" y="698"/>
			<point x="232" y="702"/>
			<point x="232" y="708" type="curve" smooth="yes"/>
			<point x="232" y="716"/>
			<point x="227" y="720"/>
			<point x="217" y="720" type="curve" smooth="yes"/>
			<point x="34" y="720" type="line"/>
			<point x="24" y="720"/>
			<point x="19" y="716"/>
			<point x="19" y="709" type="curve" smooth="yes"/>
			<point x="19" y="703"/>
			<point x="23" y="699"/>
			<point x="32" y="697" type="curve" smooth="yes"/>
			<point x="55" y="693" type="line"/>
			<point x="83" y="688"/>
			<point x="89" y="682"/>
			<point x="89" y="654" type="curve" smooth="yes"/>
			<point x="89" y="66" type="line"/>
			<point x="89" y="38"/>
			<point x="83" y="32"/>
			<point x="55" y="27" type="curve" smooth="yes"/>
			<point x="32" y="23" type="line"/>
			<point x="23" y="21"/>
			<point x="19" y="17"/>
			<point x="19" y="11" type="curve" smooth="yes"/>
			<point x="19" y="4"/>
			<point x="24" y="0"/>
		</contour>
	</outline>
</glyph>
<glyph name="N" format="2">
	<unicode hex="004E"/>
	<advance width="540"/>
	<outline>
		<contour>
			<point x="429" y="-9" type="curve"/>
			<point x="442" y="-9"/>
			<point x="452" y="-1"/>
			<point x="452" y="23" type="curve"/>
			<point x="452" y="634" type="line"/>
			<point x="452" y="676"/>
			<point x="463" y="690"/>
			<point x="498" y="695" type="curve"/>
			<point x="511" y="697" type="line"/>
			<point x="520" y="698"/>
			<point x="524" y="703"/>
			<point x="524" y="709" type="curve"/>
			<point x="524" y="716"/>
			<point x="519" y="720"/>
			<point x="509" y="720" type="curve"/>
			<point x="366" y="720" type="line"/>
			<point x="356" y="720"/>
			<point x="351" y="716"/>
			<point x="351" y="709" type="curve"/>
			<point x="351" y="703"/>
			<point x="355" y="699"/>
			<point x="364" y="697" type="curve"/>
			<point x="382" y="694" type="line"/>
			<point x="405" y="690"/>
			<point x="421" y="676"/>
			<point x="421" y="634" type="curve"/>
			<point x="421" y="181" type="line"/>
			<point x="421" y="173"/>
			<point x="413" y="171"/>
			<point x="409" y="179" type="curve"/>
			<point x="173" y="698" type="line"/>
			<point x="166" y="714"/>
			<point x="155" y="720"/>
			<point x="138" y="720" type="curve"/>
			<point x="31" y="720" type="line"/>
			<point x="21" y="720"/>
			<point x="16" y="716"/>
			<point x="16" y="709" type="curve"/>
			<point x="16" y="703"/>
			<point x="20" y="699"/>
			<point x="29" y="697" type="curve"/>
			<point x="52" y="693" type="line"/>
			<point x="82" y="688"/>
			<point x="88" y="682"/>
			<point x="88" y="654" type="curve"/>
			<point x="88" y="86" type="line"/>
			<point x="88" y="48"/>
			<point x="77" y="30"/>
			<point x="42" y="25" type="curve"/>
			<point x="29" y="23" type="line"/>
			<point x="20" y="22"/>
			<point x="16" y="17"/>
			<point x="16" y="11" type="curve"/>
			<point x="16" y="4"/>
			<point x="21" y="0"/>
			<point x="31" y="0" type="curve"/>
			<point x="174" y="0" type="line"/>
			<point x="184" y="0"/>
			<point x="189" y="4"/>
			<point x="189" y="11" type="curve"/>
			<point x="189" y="17"/>
			<point x="185" y="22"/>
			<point x="176" y="23" type="curve"/>
			<point x="163" y="25" type="line"/>
			<point x="130" y="30"/>
			<point x="119" y="48"/>
			<point x="119" y="86" type="curve"/>
			<point x="119" y="600" type="line"/>
			<point x="119" y="610"/>
			<point x="127" y="612"/>
			<point x="131" y="603" type="curve"/>
			<point x="402" y="15" type="line"/>
			<point x="410" y="-3"/>
			<point x="416" y="-9"/>
		</contour>
	</outline>
</glyph>
<glyph name="O" format="2">
  <advance width="540"/>
  <unicode hex="004F"/>
  <guideline x="459" y="730" angle="0"/>
  <guideline x="40" y="665" angle="90"/>
  <guideline x="500" y="665" angle="90"/>
  <anchor x="270" y="0" name="bottom"/>
  <anchor x="270" y="360" name="center"/>
  <anchor x="486" y="10" name="ogonek"/>
  <anchor x="270" y="720" name="top"/>
  <anchor x="20" y="720" name="topleft"/>
  <anchor x="520" y="720" name="topright"/>
  <outline>
    <contour>
      <point x="270" y="-9" type="curve" smooth="yes"/>
      <point x="398" y="-9"/>
      <point x="500" y="153"/>
      <point x="500" y="361" type="curve" smooth="yes"/>
      <point x="500" y="568"/>
      <point x="398" y="730"/>
      <point x="270" y="730" type="curve" smooth="yes"/>
      <point x="141" y="730"/>
      <point x="40" y="568"/>
      <point x="40" y="361" type="curve" smooth="yes"/>
      <point x="40" y="153"/>
      <point x="141" y="-9"/>
    </contour>
    <contour>
      <point x="270" y="18" type="curve" smooth="yes"/>
      <point x="176" y="18"/>
      <point x="119" y="130"/>
      <point x="119" y="361" type="curve" smooth="yes"/>
      <point x="119" y="591"/>
      <point x="176" y="703"/>
      <point x="270" y="703" type="curve" smooth="yes"/>
      <point x="364" y="703"/>
      <point x="421" y="591"/>
      <point x="421" y="361" type="curve" smooth="yes"/>
      <point x="421" y="130"/>
      <point x="364" y="18"/>
    </contour>
  </outline>
</glyph>
<glyph name="P" format="2">
  <advance width="466"/>
  <unicode hex="0050"/>
  <guideline x="261" y="326" angle="0"/>
  <outline>
    <contour>
      <point x="34" y="0" type="curve" smooth="yes"/>
      <point x="237" y="0" type="line" smooth="yes"/>
      <point x="247" y="0"/>
      <point x="252" y="4"/>
      <point x="252" y="12" type="curve" smooth="yes"/>
      <point x="252" y="18"/>
      <point x="248" y="22"/>
      <point x="241" y="23" type="curve" smooth="yes"/>
      <point x="204" y="29" type="line" smooth="yes"/>
      <point x="167" y="35"/>
      <point x="160" y="42"/>
      <point x="160" y="70" type="curve" smooth="yes"/>
      <point x="160" y="312" type="line" smooth="yes"/>
      <point x="160" y="321"/>
      <point x="165" y="326"/>
      <point x="174" y="326" type="curve" smooth="yes"/>
      <point x="246" y="326" type="line" smooth="yes"/>
      <point x="361" y="326"/>
      <point x="442" y="406"/>
      <point x="442" y="520" type="curve" smooth="yes"/>
      <point x="442" y="638"/>
      <point x="361" y="720"/>
      <point x="243" y="720" type="curve" smooth="yes"/>
      <point x="34" y="720" type="line" smooth="yes"/>
      <point x="24" y="720"/>
      <point x="19" y="716"/>
      <point x="19" y="709" type="curve" smooth="yes"/>
      <point x="19" y="702"/>
      <point x="23" y="699"/>
      <point x="32" y="697" type="curve" smooth="yes"/>
      <point x="55" y="693" type="line" smooth="yes"/>
      <point x="83" y="688"/>
      <point x="89" y="682"/>
      <point x="89" y="654" type="curve" smooth="yes"/>
      <point x="89" y="66" type="line" smooth="yes"/>
      <point x="89" y="38"/>
      <point x="83" y="32"/>
      <point x="55" y="27" type="curve" smooth="yes"/>
      <point x="32" y="23" type="line" smooth="yes"/>
      <point x="23" y="21"/>
      <point x="19" y="18"/>
      <point x="19" y="11" type="curve" smooth="yes"/>
      <point x="19" y="4"/>
      <point x="24" y="0"/>
    </contour>
    <contour>
      <point x="160" y="406" type="curve" smooth="yes"/>
      <point x="160" y="655" type="line"/>
      <point x="160" y="683"/>
      <point x="179" y="695"/>
      <point x="221" y="695" type="curve" smooth="yes"/>
      <point x="314" y="695"/>
      <point x="367" y="632"/>
      <point x="367" y="523" type="curve" smooth="yes"/>
      <point x="367" y="416"/>
      <point x="314" y="351"/>
      <point x="227" y="351" type="curve" smooth="yes"/>
      <point x="181" y="351"/>
      <point x="160" y="368"/>
    </contour>
  </outline>
</glyph>
<glyph name="R" format="2">
	<unicode hex="0052"/>
	<advance width="513"/>
	<outline>
		<contour>
			<point x="450" y="-9" type="curve"/>
			<point x="489" y="-9"/>
			<point x="523" y="10"/>
			<point x="523" y="33" type="curve"/>
			<point x="523" y="44"/>
			<point x="512" y="48"/>
			<point x="501" y="41" type="curve"/>
			<point x="487" y="31"/>
			<point x="480" y="29"/>
			<point x="470" y="29" type="curve"/>
			<point x="439" y="29"/>
			<point x="421" y="56"/>
			<point x="406" y="125" type="curve"/>
			<point x="384" y="227" type="line"/>
			<point x="371" y="287"/>
			<point x="348" y="321"/>
			<point x="305" y="341" type="curve"/>
			<point x="296" y="345"/>
			<point x="296" y="352"/>
			<point x="306" y="355" type="curve"/>
			<point x="383" y="383"/>
			<point x="440" y="456"/>
			<point x="440" y="540" type="curve"/>
			<point x="440" y="645"/>
			<point x="355" y="720"/>
			<point x="237" y="720" type="curve"/>
			<point x="34" y="720" type="line"/>
			<point x="24" y="720"/>
			<point x="19" y="716"/>
			<point x="19" y="709" type="curve"/>
			<point x="19" y="702"/>
			<point x="23" y="699"/>
			<point x="32" y="697" type="curve"/>
			<point x="55" y="693" type="line"/>
			<point x="83" y="688"/>
			<point x="89" y="682"/>
			<point x="89" y="654" type="curve"/>
			<point x="89" y="66" type="line"/>
			<point x="89" y="38"/>
			<point x="83" y="32"/>
			<point x="55" y="27" type="curve"/>
			<point x="32" y="23" type="line"/>
			<point x="23" y="21"/>
			<point x="19" y="18"/>
			<point x="19" y="11" type="curve"/>
			<point x="19" y="4"/>
			<point x="24" y="0"/>
			<point x="34" y="0" type="curve"/>
			<point x="237" y="0" type="line"/>
			<point x="247" y="0"/>
			<point x="252" y="4"/>
			<point x="252" y="12" type="curve"/>
			<point x="252" y="18"/>
			<point x="248" y="22"/>
			<point x="241" y="23" type="curve"/>
			<point x="204" y="29" type="line"/>
			<point x="167" y="35"/>
			<point x="160" y="42"/>
			<point x="160" y="70" type="curve"/>
			<point x="160" y="320" type="line"/>
			<point x="160" y="335"/>
			<point x="171" y="346"/>
			<point x="190" y="346" type="curve"/>
			<point x="272" y="346"/>
			<point x="294" y="323"/>
			<point x="316" y="216" type="curve"/>
			<point x="339" y="105" type="line"/>
			<point x="355" y="29"/>
			<point x="392" y="-9"/>
		</contour>
		<contour>
			<point x="227" y="371" type="curve"/>
			<point x="181" y="371"/>
			<point x="160" y="388"/>
			<point x="160" y="426" type="curve"/>
			<point x="160" y="655" type="line"/>
			<point x="160" y="683"/>
			<point x="179" y="695"/>
			<point x="213" y="695" type="curve"/>
			<point x="308" y="695"/>
			<point x="365" y="636"/>
			<point x="365" y="538" type="curve"/>
			<point x="365" y="437"/>
			<point x="317" y="371"/>
		</contour>
	</outline>
</glyph>
<glyph name="S" format="2">
	<unicode hex="0053"/>
	<advance width="408"/>
	<outline>
		<contour>
			<point x="138" y="-8.999999999999991"/>
			<point x="180" y="-9" type="curve" smooth="yes"/>
			<point x="316" y="-9"/>
			<point x="377" y="76"/>
			<point x="380" y="200" type="curve" smooth="yes"/>
			<point x="382.1289590621552" y="287.99697456908206"/>
			<point x="343.8562087234112" y="372.0517527619255"/>
			<point x="260" y="448" type="curve" smooth="yes"/>
			<point x="175.16781271239077" y="524.8321872876093"/>
			<point x="146" y="549"/>
			<point x="146" y="602" type="curve" smooth="yes"/>
			<point x="146" y="646"/>
			<point x="173.99999999999997" y="672"/>
			<point x="208" y="672" type="curve" smooth="yes"/>
			<point x="242" y="672"/>
			<point x="270.4544718432796" y="639.2547957328495"/>
			<point x="292" y="566" type="curve" smooth="yes"/>
			<point x="302" y="532" type="line" smooth="yes"/>
			<point x="305.30267214723204" y="520.7709146994112"/>
			<point x="313" y="510"/>
			<point x="326" y="510" type="curve" smooth="yes"/>
			<point x="341" y="510"/>
			<point x="348.7190780004504" y="518.9895039855879"/>
			<point x="348" y="542" type="curve" smooth="yes"/>
			<point x="344" y="670" type="line" smooth="yes"/>
			<point x="343.4617982423158" y="687.2224562458933"/>
			<point x="332.5734991421765" y="702.982288195763"/>
			<point x="316" y="712" type="curve" smooth="yes"/>
			<point x="291.27681341217965" y="725.4519916173878"/>
			<point x="268" y="736"/>
			<point x="212" y="736" type="curve" smooth="yes"/>
			<point x="83" y="736"/>
			<point x="20" y="643"/>
			<point x="20" y="544" type="curve" smooth="yes"/>
			<point x="20" y="438"/>
			<point x="59.65658636778953" y="384.16666363739023"/>
			<point x="140" y="304" type="curve" smooth="yes"/>
			<point x="211.253781365278" y="232.9029720625125"/>
			<point x="260" y="188"/>
			<point x="260" y="142" type="curve" smooth="yes"/>
			<point x="260" y="76"/>
			<point x="221" y="54"/>
			<point x="192" y="54" type="curve" smooth="yes"/>
			<point x="158" y="54"/>
			<point x="117.71125760521664" y="80.82497827080958"/>
			<point x="90" y="160" type="curve" smooth="yes"/>
			<point x="76" y="200" type="line" smooth="yes"/>
			<point x="71.39875101685425" y="213.1464256661307"/>
			<point x="64" y="230"/>
			<point x="46" y="230" type="curve" smooth="yes"/>
			<point x="30" y="230"/>
			<point x="19.478048530928106" y="213.22439847937255"/>
			<point x="20" y="196" type="curve" smooth="yes"/>
			<point x="24" y="64" type="line" smooth="yes"/>
			<point x="24.773383414514775" y="38.47834732101239"/>
			<point x="35" y="27"/>
			<point x="48" y="20" type="curve" smooth="yes"/>
			<point x="72.03218407801575" y="7.059593188760761"/>
		</contour>
	</outline>
</glyph>
<glyph name="T" format="2">
	<unicode hex="0054"/>
	<advance width="460"/>
	<outline>
		<contour>
			<point x="118" y="0" type="curve" smooth="yes"/>
			<point x="343" y="0" type="line"/>
			<point x="353" y="0"/>
			<point x="358" y="4"/>
			<point x="358" y="11" type="curve" smooth="yes"/>
			<point x="358" y="17"/>
			<point x="354" y="22"/>
			<point x="345" y="23" type="curve" smooth="yes"/>
			<point x="300" y="30" type="line"/>
			<point x="274" y="34"/>
			<point x="266" y="41"/>
			<point x="266" y="69" type="curve" smooth="yes"/>
			<point x="266" y="669" type="line"/>
			<point x="266" y="688"/>
			<point x="272" y="695"/>
			<point x="297" y="695" type="curve" smooth="yes"/>
			<point x="347" y="695"/>
			<point x="403" y="655"/>
			<point x="417" y="560" type="curve" smooth="yes"/>
			<point x="422" y="527" type="line"/>
			<point x="423" y="519"/>
			<point x="428" y="514"/>
			<point x="436" y="514" type="curve" smooth="yes"/>
			<point x="444" y="514"/>
			<point x="450" y="520"/>
			<point x="449" y="531" type="curve" smooth="yes"/>
			<point x="440" y="712" type="line"/>
			<point x="439" y="727"/>
			<point x="433" y="735"/>
			<point x="422" y="735" type="curve" smooth="yes"/>
			<point x="409" y="735"/>
			<point x="406" y="720"/>
			<point x="342" y="720" type="curve" smooth="yes"/>
			<point x="119" y="720" type="line"/>
			<point x="55" y="720"/>
			<point x="52" y="735"/>
			<point x="39" y="735" type="curve" smooth="yes"/>
			<point x="28" y="735"/>
			<point x="22" y="727"/>
			<point x="21" y="712" type="curve" smooth="yes"/>
			<point x="12" y="531" type="line"/>
			<point x="11" y="520"/>
			<point x="17" y="514"/>
			<point x="25" y="514" type="curve" smooth="yes"/>
			<point x="33" y="514"/>
			<point x="38" y="519"/>
			<point x="39" y="527" type="curve" smooth="yes"/>
			<point x="44" y="560" type="line"/>
			<point x="58" y="655"/>
			<point x="114" y="695"/>
			<point x="164" y="695" type="curve" smooth="yes"/>
			<point x="189" y="695"/>
			<point x="195" y="688"/>
			<point x="195" y="669" type="curve" smooth="yes"/>
			<point x="195" y="69" type="line"/>
			<point x="195" y="41"/>
			<point x="187" y="34"/>
			<point x="161" y="30" type="curve" smooth="yes"/>
			<point x="116" y="23" type="line"/>
			<point x="107" y="22"/>
			<point x="103" y="17"/>
			<point x="103" y="11" type="curve" smooth="yes"/>
			<point x="103" y="4"/>
			<point x="108" y="0"/>
		</contour>
	</outline>
</glyph>
<glyph name="V" format="2">
	<unicode hex="0056"/>
	<advance width="457"/>
	<outline>
		<contour>
			<point x="229" y="-10" type="curve"/>
			<point x="234" y="-10"/>
			<point x="241" y="-7"/>
			<point x="244" y="6" type="curve"/>
			<point x="399" y="631" type="line"/>
			<point x="408" y="668"/>
			<point x="420" y="689"/>
			<point x="446" y="694" type="curve"/>
			<point x="461" y="697" type="line"/>
			<point x="470" y="699"/>
			<point x="475" y="703"/>
			<point x="475" y="710" type="curve"/>
			<point x="475" y="717"/>
			<point x="469" y="720"/>
			<point x="460" y="720" type="curve"/>
			<point x="320" y="720" type="line"/>
			<point x="311" y="720"/>
			<point x="306" y="716"/>
			<point x="306" y="709" type="curve"/>
			<point x="306" y="703"/>
			<point x="311" y="699"/>
			<point x="323" y="697" type="curve"/>
			<point x="338" y="695" type="line"/>
			<point x="369" y="691"/>
			<point x="377" y="670"/>
			<point x="368" y="632" type="curve"/>
			<point x="253" y="172" type="line"/>
			<point x="251" y="164"/>
			<point x="243" y="164"/>
			<point x="241" y="172" type="curve"/>
			<point x="125" y="653" type="line"/>
			<point x="118" y="682"/>
			<point x="123" y="693"/>
			<point x="146" y="695" type="curve"/>
			<point x="165" y="697" type="line"/>
			<point x="177" y="698"/>
			<point x="182" y="703"/>
			<point x="182" y="709" type="curve"/>
			<point x="182" y="716"/>
			<point x="177" y="720"/>
			<point x="168" y="720" type="curve"/>
			<point x="-3" y="720" type="line"/>
			<point x="-12" y="720"/>
			<point x="-18" y="717"/>
			<point x="-18" y="710" type="curve"/>
			<point x="-18" y="703"/>
			<point x="-13" y="699"/>
			<point x="-4" y="697" type="curve"/>
			<point x="11" y="694" type="line"/>
			<point x="37" y="689"/>
			<point x="46" y="677"/>
			<point x="55" y="640" type="curve"/>
			<point x="213" y="6" type="line"/>
			<point x="216" y="-7"/>
			<point x="223" y="-10"/>
		</contour>
	</outline>
</glyph>
<glyph name="X" format="2">
	<unicode hex="0058"/>
	<advance width="546"/>
	<outline>
		<contour>
			<point x="38" y="0" type="curve"/>
			<point x="202" y="0" type="line"/>
			<point x="215" y="0"/>
			<point x="220" y="4"/>
			<point x="220" y="10" type="curve"/>
			<point x="220" y="17"/>
			<point x="215" y="21"/>
			<point x="203" y="24" type="curve"/>
			<point x="175" y="30" type="line"/>
			<point x="152" y="35"/>
			<point x="149" y="48"/>
			<point x="161" y="77" type="curve"/>
			<point x="251" y="296" type="line"/>
			<point x="256" y="308"/>
			<point x="265" y="308"/>
			<point x="270" y="296" type="curve"/>
			<point x="373" y="67" type="line"/>
			<point x="384" y="42"/>
			<point x="373" y="30"/>
			<point x="350" y="27" type="curve"/>
			<point x="330" y="24" type="line"/>
			<point x="320" y="22"/>
			<point x="314" y="18"/>
			<point x="314" y="12" type="curve"/>
			<point x="314" y="5"/>
			<point x="320" y="0"/>
			<point x="332" y="0" type="curve"/>
			<point x="509" y="0" type="line"/>
			<point x="521" y="0"/>
			<point x="527" y="4"/>
			<point x="527" y="10" type="curve"/>
			<point x="527" y="17"/>
			<point x="522" y="22"/>
			<point x="510" y="24" type="curve"/>
			<point x="491" y="27" type="line"/>
			<point x="475" y="30"/>
			<point x="459" y="35"/>
			<point x="445" y="67" type="curve"/>
			<point x="316" y="356" type="line"/>
			<point x="307" y="375"/>
			<point x="308" y="390"/>
			<point x="315" y="407" type="curve"/>
			<point x="410" y="629" type="line"/>
			<point x="427" y="669"/>
			<point x="449" y="686"/>
			<point x="482" y="692" type="curve"/>
			<point x="498" y="695" type="line"/>
			<point x="509" y="697"/>
			<point x="513" y="702"/>
			<point x="513" y="708" type="curve"/>
			<point x="513" y="714"/>
			<point x="509" y="720"/>
			<point x="495" y="720" type="curve"/>
			<point x="342" y="720" type="line"/>
			<point x="329" y="720"/>
			<point x="324" y="716"/>
			<point x="324" y="710" type="curve"/>
			<point x="324" y="703"/>
			<point x="329" y="699"/>
			<point x="341" y="696" type="curve"/>
			<point x="369" y="690" type="line"/>
			<point x="392" y="685"/>
			<point x="395" y="672"/>
			<point x="383" y="643" type="curve"/>
			<point x="297" y="440" type="line"/>
			<point x="292" y="428"/>
			<point x="283" y="428"/>
			<point x="278" y="440" type="curve"/>
			<point x="183" y="653" type="line"/>
			<point x="171" y="679"/>
			<point x="181" y="690"/>
			<point x="204" y="694" type="curve"/>
			<point x="223" y="697" type="line"/>
			<point x="234" y="699"/>
			<point x="240" y="703"/>
			<point x="240" y="710" type="curve"/>
			<point x="240" y="716"/>
			<point x="234" y="720"/>
			<point x="222" y="720" type="curve"/>
			<point x="46" y="720" type="line"/>
			<point x="35" y="720"/>
			<point x="29" y="716"/>
			<point x="29" y="710" type="curve"/>
			<point x="29" y="703"/>
			<point x="34" y="699"/>
			<point x="45" y="697" type="curve"/>
			<point x="64" y="694" type="line"/>
			<point x="81" y="691"/>
			<point x="97" y="683"/>
			<point x="110" y="653" type="curve"/>
			<point x="235" y="376" type="line"/>
			<point x="243" y="359"/>
			<point x="239" y="344"/>
			<point x="233" y="329" type="curve"/>
			<point x="133" y="91" type="line"/>
			<point x="116" y="51"/>
			<point x="94" y="36"/>
			<point x="51" y="28" type="curve"/>
			<point x="35" y="25" type="line"/>
			<point x="24" y="23"/>
			<point x="20" y="18"/>
			<point x="20" y="12" type="curve"/>
			<point x="20" y="6"/>
			<point x="24" y="0"/>
		</contour>
	</outline>
</glyph>
<glyph name="Y" format="2">
	<unicode hex="0059"/>
	<advance width="476"/>
	<outline>
		<contour>
			<point x="127" y="0" type="curve" smooth="yes"/>
			<point x="352" y="0" type="line"/>
			<point x="362" y="0"/>
			<point x="367" y="4"/>
			<point x="367" y="11" type="curve" smooth="yes"/>
			<point x="367" y="17"/>
			<point x="363" y="22"/>
			<point x="354" y="23" type="curve" smooth="yes"/>
			<point x="309" y="30" type="line"/>
			<point x="283" y="34"/>
			<point x="275" y="41"/>
			<point x="275" y="69" type="curve" smooth="yes"/>
			<point x="275" y="313" type="line"/>
			<point x="275" y="334"/>
			<point x="279" y="349"/>
			<point x="288" y="368" type="curve" smooth="yes"/>
			<point x="419" y="631" type="line"/>
			<point x="441" y="675"/>
			<point x="452" y="691"/>
			<point x="471" y="695" type="curve" smooth="yes"/>
			<point x="481" y="697" type="line"/>
			<point x="490" y="699"/>
			<point x="495" y="703"/>
			<point x="495" y="710" type="curve" smooth="yes"/>
			<point x="495" y="717"/>
			<point x="489" y="720"/>
			<point x="480" y="720" type="curve" smooth="yes"/>
			<point x="338" y="720" type="line"/>
			<point x="329" y="720"/>
			<point x="324" y="716"/>
			<point x="324" y="709" type="curve" smooth="yes"/>
			<point x="324" y="703"/>
			<point x="329" y="699"/>
			<point x="341" y="697" type="curve" smooth="yes"/>
			<point x="363" y="694" type="line"/>
			<point x="394" y="690"/>
			<point x="403" y="666"/>
			<point x="386" y="632" type="curve" smooth="yes"/>
			<point x="268" y="391" type="line"/>
			<point x="263" y="381"/>
			<point x="253" y="381"/>
			<point x="248" y="391" type="curve" smooth="yes"/>
			<point x="125" y="653" type="line"/>
			<point x="112" y="681"/>
			<point x="123" y="693"/>
			<point x="146" y="695" type="curve" smooth="yes"/>
			<point x="165" y="697" type="line"/>
			<point x="177" y="698"/>
			<point x="182" y="703"/>
			<point x="182" y="709" type="curve" smooth="yes"/>
			<point x="182" y="716"/>
			<point x="177" y="720"/>
			<point x="168" y="720" type="curve" smooth="yes"/>
			<point x="-3" y="720" type="line"/>
			<point x="-12" y="720"/>
			<point x="-18" y="717"/>
			<point x="-18" y="710" type="curve" smooth="yes"/>
			<point x="-18" y="703"/>
			<point x="-13" y="699"/>
			<point x="-4" y="697" type="curve" smooth="yes"/>
			<point x="5" y="695" type="line"/>
			<point x="27" y="690"/>
			<point x="37" y="678"/>
			<point x="47" y="656" type="curve" smooth="yes"/>
			<point x="194" y="348" type="line"/>
			<point x="201" y="333"/>
			<point x="204" y="321"/>
			<point x="204" y="305" type="curve" smooth="yes"/>
			<point x="204" y="69" type="line"/>
			<point x="204" y="41"/>
			<point x="196" y="34"/>
			<point x="170" y="30" type="curve" smooth="yes"/>
			<point x="125" y="23" type="line"/>
			<point x="116" y="22"/>
			<point x="112" y="17"/>
			<point x="112" y="11" type="curve" smooth="yes"/>
			<point x="112" y="4"/>
			<point x="117" y="0"/>
		</contour>
	</outline>
</glyph>
<glyph name="bracketleft" format="2">
  <advance width="325"/>
  <unicode hex="005B"/>
  <guideline x="156" y="-108" angle="0"/>
  <outline>
    <contour>
      <point x="110" y="-98" type="curve" smooth="yes"/>
      <point x="251" y="-98" type="line" smooth="yes"/>
      <point x="260" y="-98"/>
      <point x="265" y="-93"/>
      <point x="265" y="-86" type="curve" smooth="yes"/>
      <point x="265" y="-79"/>
      <point x="260" y="-74"/>
      <point x="251" y="-74" type="curve" smooth="yes"/>
      <point x="156" y="-74" type="line" smooth="yes"/>
      <point x="149" y="-74"/>
      <point x="144" y="-69"/>
      <point x="144" y="-62" type="curve" smooth="yes"/>
      <point x="144" y="704" type="line" smooth="yes"/>
      <point x="144" y="711"/>
      <point x="149" y="716"/>
      <point x="156" y="716" type="curve" smooth="yes"/>
      <point x="251" y="716" type="line" smooth="yes"/>
      <point x="260" y="716"/>
      <point x="265" y="721"/>
      <point x="265" y="728" type="curve" smooth="yes"/>
      <point x="265" y="735"/>
      <point x="260" y="740"/>
      <point x="251" y="740" type="curve" smooth="yes"/>
      <point x="110" y="740" type="line" smooth="yes"/>
      <point x="95" y="740"/>
      <point x="86" y="731"/>
      <point x="86" y="716" type="curve" smooth="yes"/>
      <point x="86" y="-74" type="line" smooth="yes"/>
      <point x="86" y="-89"/>
      <point x="95" y="-98"/>
    </contour>
  </outline>
</glyph>
<glyph name="backslash" format="2">
	<unicode hex="005C"/>
	<advance width="258"/>
	<outline>
		<contour>
			<point x="228" y="-130" type="curve"/>
			<point x="240" y="-130" type="line"/>
			<point x="247" y="-130"/>
			<point x="249" y="-125"/>
			<point x="248" y="-119" type="curve"/>
			<point x="41" y="781" type="line"/>
			<point x="40" y="786"/>
			<point x="36" y="790"/>
			<point x="30" y="790" type="curve"/>
			<point x="18" y="790" type="line"/>
			<point x="11" y="790"/>
			<point x="9" y="785"/>
			<point x="10" y="779" type="curve"/>
			<point x="217" y="-121" type="line"/>
			<point x="218" y="-126"/>
			<point x="222" y="-130"/>
		</contour>
	</outline>
</glyph>
<glyph name="underscore" format="2">
  <advance width="376"/>
  <unicode hex="005F"/>
  <outline>
    <contour>
      <point x="25" y="-109" type="curve" smooth="yes"/>
      <point x="351" y="-109" type="line" smooth="yes"/>
      <point x="357" y="-109"/>
      <point x="361" y="-105"/>
      <point x="361" y="-99" type="curve" smooth="yes"/>
      <point x="361" y="-85" type="line" smooth="yes"/>
      <point x="361" y="-79"/>
      <point x="357" y="-75"/>
      <point x="351" y="-75" type="curve" smooth="yes"/>
      <point x="25" y="-75" type="line" smooth="yes"/>
      <point x="19" y="-75"/>
      <point x="15" y="-79"/>
      <point x="15" y="-85" type="curve" smooth="yes"/>
      <point x="15" y="-99" type="line" smooth="yes"/>
      <point x="15" y="-105"/>
      <point x="19" y="-109"/>
    </contour>
  </outline>
</glyph>
<glyph name="b" format="2">
	<unicode hex="0062"/>
	<advance width="444"/>
	<outline>
		<contour>
			<point x="206" y="-9" type="curve" smooth="yes"/>
			<point x="318" y="-9"/>
			<point x="403" y="107"/>
			<point x="403" y="274" type="curve" smooth="yes"/>
			<point x="403" y="419"/>
			<point x="337" y="516"/>
			<point x="245" y="516" type="curve" smooth="yes"/>
			<point x="209" y="516"/>
			<point x="180" y="502"/>
			<point x="151" y="472" type="curve" smooth="yes"/>
			<point x="140" y="461"/>
			<point x="130" y="466"/>
			<point x="130" y="477" type="curve" smooth="yes"/>
			<point x="130" y="724" type="line"/>
			<point x="130" y="735"/>
			<point x="126" y="740"/>
			<point x="119" y="740" type="curve" smooth="yes"/>
			<point x="113" y="740"/>
			<point x="106" y="737"/>
			<point x="95" y="730" type="curve" smooth="yes"/>
			<point x="78" y="719"/>
			<point x="53" y="708"/>
			<point x="16" y="700" type="curve" smooth="yes"/>
			<point x="9" y="699"/>
			<point x="5" y="694"/>
			<point x="5" y="688" type="curve" smooth="yes"/>
			<point x="5" y="682"/>
			<point x="9" y="677"/>
			<point x="16" y="676" type="curve" smooth="yes"/>
			<point x="37" y="673" type="line"/>
			<point x="56" y="670"/>
			<point x="62" y="664"/>
			<point x="62" y="640" type="curve" smooth="yes"/>
			<point x="62" y="160" type="line"/>
			<point x="62" y="80"/>
			<point x="59" y="35"/>
			<point x="54" y="5" type="curve" smooth="yes"/>
			<point x="52" y="-4"/>
			<point x="55" y="-9"/>
			<point x="62" y="-9" type="curve" smooth="yes"/>
			<point x="68" y="-9"/>
			<point x="74" y="-6"/>
			<point x="87" y="9" type="curve" smooth="yes"/>
			<point x="99" y="25"/>
			<point x="111" y="28"/>
			<point x="127" y="17" type="curve" smooth="yes"/>
			<point x="153" y="-1"/>
			<point x="178" y="-9"/>
		</contour>
		<contour>
			<point x="204" y="16" type="curve" smooth="yes"/>
			<point x="160" y="16"/>
			<point x="130" y="53"/>
			<point x="130" y="113" type="curve" smooth="yes"/>
			<point x="130" y="365" type="line"/>
			<point x="130" y="432"/>
			<point x="168" y="471"/>
			<point x="214" y="471" type="curve" smooth="yes"/>
			<point x="287" y="471"/>
			<point x="329" y="397"/>
			<point x="329" y="260" type="curve" smooth="yes"/>
			<point x="329" y="110"/>
			<point x="279" y="16"/>
		</contour>
	</outline>
</glyph>
<glyph name="c" format="2">
	<unicode hex="0063"/>
	<advance width="340"/>
	<outline>
		<contour>
			<point x="180" y="-9" type="curve" smooth="yes"/>
			<point x="246" y="-9"/>
			<point x="293" y="26"/>
			<point x="316" y="167" type="curve" smooth="yes"/>
			<point x="318" y="179"/>
			<point x="315" y="187"/>
			<point x="307" y="187" type="curve" smooth="yes"/>
			<point x="300" y="187"/>
			<point x="297" y="183"/>
			<point x="295" y="176" type="curve" smooth="yes"/>
			<point x="272" y="74"/>
			<point x="243" y="42"/>
			<point x="196" y="42" type="curve" smooth="yes"/>
			<point x="137" y="42"/>
			<point x="97" y="114"/>
			<point x="97" y="257" type="curve" smooth="yes"/>
			<point x="97" y="425"/>
			<point x="149" y="490"/>
			<point x="189" y="490" type="curve" smooth="yes"/>
			<point x="223" y="490"/>
			<point x="246" y="462"/>
			<point x="274" y="352" type="curve" smooth="yes"/>
			<point x="276" y="343"/>
			<point x="281" y="339"/>
			<point x="288" y="339" type="curve" smooth="yes"/>
			<point x="294" y="339"/>
			<point x="300" y="344"/>
			<point x="300" y="354" type="curve" smooth="yes"/>
			<point x="298" y="476" type="line"/>
			<point x="298" y="487"/>
			<point x="295" y="493"/>
			<point x="288" y="498" type="curve" smooth="yes"/>
			<point x="269" y="511"/>
			<point x="248" y="516"/>
			<point x="216" y="516" type="curve" smooth="yes"/>
			<point x="107" y="516"/>
			<point x="23" y="406"/>
			<point x="23" y="236" type="curve" smooth="yes"/>
			<point x="23" y="84"/>
			<point x="92" y="-9"/>
		</contour>
	</outline>
</glyph>
<glyph name="d" format="2">
	<unicode hex="0064"/>
	<advance width="457"/>
	<outline>
		<contour>
			<point x="181" y="-9" type="curve"/>
			<point x="225" y="-9"/>
			<point x="251" y="6"/>
			<point x="288" y="58" type="curve"/>
			<point x="295" y="68"/>
			<point x="304" y="67"/>
			<point x="306" y="57" type="curve"/>
			<point x="312" y="21"/>
			<point x="331" y="-9"/>
			<point x="370" y="-9" type="curve"/>
			<point x="412" y="-9"/>
			<point x="452" y="32"/>
			<point x="452" y="129" type="curve"/>
			<point x="452" y="141"/>
			<point x="447" y="146"/>
			<point x="440" y="146" type="curve"/>
			<point x="433" y="146"/>
			<point x="427" y="141"/>
			<point x="427" y="130" type="curve"/>
			<point x="427" y="74"/>
			<point x="409" y="53"/>
			<point x="392" y="53" type="curve"/>
			<point x="379" y="53"/>
			<point x="371" y="66"/>
			<point x="371" y="95" type="curve"/>
			<point x="371" y="724" type="line"/>
			<point x="371" y="735"/>
			<point x="367" y="740"/>
			<point x="360" y="740" type="curve"/>
			<point x="354" y="740"/>
			<point x="347" y="737"/>
			<point x="336" y="730" type="curve"/>
			<point x="319" y="719"/>
			<point x="294" y="708"/>
			<point x="252" y="700" type="curve"/>
			<point x="245" y="699"/>
			<point x="241" y="694"/>
			<point x="241" y="688" type="curve"/>
			<point x="241" y="682"/>
			<point x="245" y="677"/>
			<point x="252" y="676" type="curve"/>
			<point x="278" y="673" type="line"/>
			<point x="297" y="671"/>
			<point x="303" y="664"/>
			<point x="303" y="640" type="curve"/>
			<point x="303" y="512" type="line"/>
			<point x="303" y="502"/>
			<point x="297" y="500"/>
			<point x="287" y="505" type="curve"/>
			<point x="269" y="513"/>
			<point x="251" y="516"/>
			<point x="232" y="516" type="curve"/>
			<point x="115" y="516"/>
			<point x="30" y="400"/>
			<point x="30" y="233" type="curve"/>
			<point x="30" y="88"/>
			<point x="92" y="-9"/>
		</contour>
		<contour>
			<point x="203" y="37" type="curve"/>
			<point x="141" y="37"/>
			<point x="104" y="110"/>
			<point x="104" y="247" type="curve"/>
			<point x="104" y="397"/>
			<point x="154" y="491"/>
			<point x="229" y="491" type="curve"/>
			<point x="273" y="491"/>
			<point x="303" y="454"/>
			<point x="303" y="394" type="curve"/>
			<point x="303" y="169" type="line"/>
			<point x="303" y="95"/>
			<point x="254" y="37"/>
		</contour>
	</outline>
</glyph>
<glyph name="e" format="2">
	<unicode hex="0065"/>
	<advance width="356"/>
	<outline>
		<contour>
			<point x="204" y="322" type="curve" smooth="yes"/>
			<point x="160" y="322" type="curve" smooth="yes"/>
			<point x="146" y="322"/>
			<point x="140" y="330"/>
			<point x="140" y="346" type="curve" smooth="yes"/>
			<point x="140" y="434"/>
			<point x="162" y="466"/>
			<point x="192" y="466" type="curve" smooth="yes"/>
			<point x="212" y="466"/>
			<point x="224" y="432"/>
			<point x="224" y="352" type="curve" smooth="yes"/>
			<point x="224" y="329"/>
			<point x="217" y="322"/>
		</contour>
		<contour>
			<point x="68" y="-16"/>
			<point x="192" y="-16" type="curve" smooth="yes"/>
			<point x="270" y="-16"/>
			<point x="348" y="61"/>
			<point x="348" y="160" type="curve" smooth="yes"/>
			<point x="348" y="174"/>
			<point x="344" y="184"/>
			<point x="332" y="184" type="curve" smooth="yes"/>
			<point x="320" y="184"/>
			<point x="312" y="176"/>
			<point x="308" y="160" type="curve" smooth="yes"/>
			<point x="296" y="115"/>
			<point x="265" y="100"/>
			<point x="240" y="100" type="curve" smooth="yes"/>
			<point x="184" y="100"/>
			<point x="140" y="144"/>
			<point x="140" y="256" type="curve" smooth="yes"/>
			<point x="140" y="264"/>
			<point x="145" y="268"/>
			<point x="152" y="268" type="curve" smooth="yes"/>
			<point x="320" y="268" type="curve" smooth="yes"/>
			<point x="341" y="268"/>
			<point x="350" y="279"/>
			<point x="350" y="304" type="curve" smooth="yes"/>
			<point x="350" y="449"/>
			<point x="270" y="516"/>
			<point x="192" y="516" type="curve" smooth="yes"/>
			<point x="83" y="516"/>
			<point x="4" y="409"/>
			<point x="4" y="248" type="curve" smooth="yes"/>
			<point x="4" y="93"/>
		</contour>
	</outline>
</glyph>
<glyph name="f" format="2">
	<unicode hex="0066"/>
	<advance width="288"/>
	<outline>
		<contour>
			<point x="16" y="0"/>
			<point x="32" y="0" type="curve" smooth="yes"/>
			<point x="232" y="0" type="line" smooth="yes"/>
			<point x="248" y="0"/>
			<point x="256" y="8"/>
			<point x="256" y="20" type="curve" smooth="yes"/>
			<point x="256" y="28"/>
			<point x="246.7372636141774" y="36.631368192911296"/>
			<point x="232" y="44" type="curve" smooth="yes"/>
			<point x="208" y="56" type="line" smooth="yes"/>
			<point x="195.1003876027223" y="62.44980619863885"/>
			<point x="192" y="76"/>
			<point x="192" y="92" type="curve" smooth="yes"/>
			<point x="192" y="438" type="line" smooth="yes"/>
			<point x="192" y="449"/>
			<point x="197" y="454"/>
			<point x="204" y="454" type="curve" smooth="yes"/>
			<point x="258" y="454" type="line" smooth="yes"/>
			<point x="274" y="454"/>
			<point x="280" y="463"/>
			<point x="280" y="482" type="curve" smooth="yes"/>
			<point x="280" y="503"/>
			<point x="274" y="512"/>
			<point x="258" y="512" type="curve" smooth="yes"/>
			<point x="216" y="512" type="line" smooth="yes"/>
			<point x="158" y="512"/>
			<point x="130" y="552"/>
			<point x="130" y="628" type="curve" smooth="yes"/>
			<point x="130" y="632" type="line" smooth="yes"/>
			<point x="130" y="656"/>
			<point x="133" y="700"/>
			<point x="160" y="700" type="curve" smooth="yes"/>
			<point x="190" y="700"/>
			<point x="156" y="590"/>
			<point x="252" y="590" type="curve" smooth="yes"/>
			<point x="283" y="590"/>
			<point x="312" y="619"/>
			<point x="312" y="656" type="curve" smooth="yes"/>
			<point x="312" y="713"/>
			<point x="271" y="756"/>
			<point x="196" y="756" type="curve" smooth="yes"/>
			<point x="86" y="756"/>
			<point x="48" y="680"/>
			<point x="48" y="576" type="curve" smooth="yes"/>
			<point x="48" y="528" type="line" smooth="yes"/>
			<point x="48" y="509"/>
			<point x="44" y="508"/>
			<point x="22" y="508" type="curve" smooth="yes"/>
			<point x="14" y="508"/>
			<point x="-4" y="506"/>
			<point x="-4" y="480" type="curve" smooth="yes"/>
			<point x="-4" y="458"/>
			<point x="5" y="454"/>
			<point x="16" y="454" type="curve" smooth="yes"/>
			<point x="38" y="454" type="line" smooth="yes"/>
			<point x="45" y="454"/>
			<point x="48" y="451"/>
			<point x="48" y="444" type="curve" smooth="yes"/>
			<point x="48" y="88" type="line" smooth="yes"/>
			<point x="48" y="72"/>
			<point x="40.63133825081603" y="60.63133825081603"/>
			<point x="32" y="52" type="curve" smooth="yes"/>
			<point x="24" y="44" type="line" smooth="yes"/>
			<point x="17.329167967936836" y="37.32916796793683"/>
			<point x="8" y="32"/>
			<point x="8" y="20" type="curve" smooth="yes"/>
			<point x="7.999999999999998" y="8.000000000000002"/>
		</contour>
	</outline>
</glyph>
<glyph name="i" format="2">
	<unicode hex="0069"/>
	<advance width="224"/>
	<outline>
		<contour>
			<point x="16" y="0"/>
			<point x="30" y="0" type="curve" smooth="yes"/>
			<point x="190" y="0" type="curve" smooth="yes"/>
			<point x="206" y="0"/>
			<point x="216" y="6"/>
			<point x="216" y="20" type="curve" smooth="yes"/>
			<point x="216" y="28"/>
			<point x="212" y="32"/>
			<point x="202" y="40" type="curve" smooth="yes"/>
			<point x="192" y="48" type="curve" smooth="yes"/>
			<point x="184" y="54"/>
			<point x="178" y="60"/>
			<point x="178" y="80" type="curve" smooth="yes"/>
			<point x="178" y="492" type="curve" smooth="yes"/>
			<point x="178" y="512"/>
			<point x="174" y="520"/>
			<point x="162" y="520" type="curve" smooth="yes"/>
			<point x="151" y="520"/>
			<point x="140" y="515"/>
			<point x="132" y="510" type="curve" smooth="yes"/>
			<point x="104" y="492"/>
			<point x="71" y="476"/>
			<point x="32" y="466" type="curve" smooth="yes"/>
			<point x="21" y="463"/>
			<point x="6" y="452"/>
			<point x="6" y="442" type="curve" smooth="yes"/>
			<point x="6" y="432"/>
			<point x="9" y="429"/>
			<point x="16" y="426" type="curve" smooth="yes"/>
			<point x="32" y="418" type="curve" smooth="yes"/>
			<point x="41" y="414"/>
			<point x="42" y="404"/>
			<point x="42" y="384" type="curve" smooth="yes"/>
			<point x="42" y="72" type="curve" smooth="yes"/>
			<point x="42" y="62"/>
			<point x="37" y="53"/>
			<point x="28" y="46" type="curve" smooth="yes"/>
			<point x="20" y="40" type="curve" smooth="yes"/>
			<point x="13" y="34"/>
			<point x="8" y="30"/>
			<point x="8" y="20" type="curve" smooth="yes"/>
			<point x="8" y="9"/>
		</contour>
		<contour>
			<point x="68" y="570"/>
			<point x="114" y="570" type="curve" smooth="yes"/>
			<point x="160" y="570"/>
			<point x="190" y="611"/>
			<point x="190" y="658" type="curve" smooth="yes"/>
			<point x="190" y="689"/>
			<point x="166" y="740"/>
			<point x="114" y="740" type="curve" smooth="yes"/>
			<point x="62" y="740"/>
			<point x="32" y="704"/>
			<point x="32" y="658" type="curve" smooth="yes"/>
			<point x="32" y="603"/>
		</contour>
	</outline>
</glyph>
<glyph name="j" format="2">
	<unicode hex="006A"/>
	<advance width="215"/>
	<outline>
		<contour>
			<point x="4" y="-215" type="curve"/>
			<point x="91" y="-215"/>
			<point x="147" y="-116"/>
			<point x="147" y="44" type="curve"/>
			<point x="147" y="501" type="line"/>
			<point x="147" y="509"/>
			<point x="144" y="513"/>
			<point x="138" y="513" type="curve"/>
			<point x="133" y="513"/>
			<point x="129" y="510"/>
			<point x="123" y="504" type="curve"/>
			<point x="99" y="482"/>
			<point x="77" y="467"/>
			<point x="36" y="461" type="curve"/>
			<point x="25" y="459"/>
			<point x="20" y="456"/>
			<point x="20" y="450" type="curve"/>
			<point x="20" y="444"/>
			<point x="23" y="440"/>
			<point x="33" y="439" type="curve"/>
			<point x="54" y="436" type="line"/>
			<point x="73" y="433"/>
			<point x="79" y="427"/>
			<point x="79" y="403" type="curve"/>
			<point x="79" y="-91" type="line"/>
			<point x="79" y="-144"/>
			<point x="65" y="-175"/>
			<point x="40" y="-175" type="curve"/>
			<point x="4" y="-175"/>
			<point x="18" y="-119"/>
			<point x="-24" y="-119" type="curve"/>
			<point x="-48" y="-119"/>
			<point x="-63" y="-138"/>
			<point x="-63" y="-161" type="curve"/>
			<point x="-63" y="-193"/>
			<point x="-35" y="-215"/>
		</contour>
		<contour>
			<point x="114" y="605" type="curve"/>
			<point x="142" y="605"/>
			<point x="163" y="627"/>
			<point x="163" y="658" type="curve"/>
			<point x="163" y="688"/>
			<point x="143" y="710"/>
			<point x="114" y="710" type="curve"/>
			<point x="85" y="710"/>
			<point x="64" y="688"/>
			<point x="64" y="658" type="curve"/>
			<point x="64" y="628"/>
			<point x="85" y="605"/>
		</contour>
	</outline>
</glyph>
<glyph name="k" format="2">
	<unicode hex="006B"/>
	<advance width="451"/>
	<outline>
		<contour>
			<point x="27" y="0" type="curve"/>
			<point x="202" y="0" type="line"/>
			<point x="209" y="0"/>
			<point x="214" y="4"/>
			<point x="214" y="11" type="curve"/>
			<point x="214" y="18"/>
			<point x="210" y="22"/>
			<point x="203" y="23" type="curve"/>
			<point x="176" y="26" type="line"/>
			<point x="148" y="29"/>
			<point x="142" y="39"/>
			<point x="142" y="67" type="curve"/>
			<point x="142" y="214" type="line"/>
			<point x="142" y="229"/>
			<point x="145" y="240"/>
			<point x="157" y="252" type="curve"/>
			<point x="168" y="263" type="line"/>
			<point x="179" y="274"/>
			<point x="193" y="272"/>
			<point x="200" y="259" type="curve"/>
			<point x="295" y="74" type="line"/>
			<point x="309" y="46"/>
			<point x="304" y="28"/>
			<point x="279" y="25" type="curve"/>
			<point x="262" y="23" type="line"/>
			<point x="254" y="22"/>
			<point x="249" y="17"/>
			<point x="249" y="11" type="curve"/>
			<point x="249" y="5"/>
			<point x="254" y="0"/>
			<point x="263" y="0" type="curve"/>
			<point x="437" y="0" type="line"/>
			<point x="446" y="0"/>
			<point x="451" y="4"/>
			<point x="451" y="11" type="curve"/>
			<point x="451" y="18"/>
			<point x="447" y="21"/>
			<point x="439" y="23" type="curve"/>
			<point x="429" y="25" type="line"/>
			<point x="403" y="30"/>
			<point x="387" y="40"/>
			<point x="373" y="67" type="curve"/>
			<point x="247" y="309" type="line"/>
			<point x="240" y="323"/>
			<point x="242" y="338"/>
			<point x="257" y="354" type="curve"/>
			<point x="319" y="420" type="line"/>
			<point x="361" y="464"/>
			<point x="389" y="483"/>
			<point x="420" y="486" type="curve"/>
			<point x="429" y="487" type="line"/>
			<point x="439" y="488"/>
			<point x="442" y="493"/>
			<point x="442" y="499" type="curve"/>
			<point x="442" y="506"/>
			<point x="437" y="510"/>
			<point x="428" y="510" type="curve"/>
			<point x="256" y="510" type="line"/>
			<point x="247" y="510"/>
			<point x="242" y="506"/>
			<point x="242" y="500" type="curve"/>
			<point x="242" y="493"/>
			<point x="246" y="489"/>
			<point x="255" y="487" type="curve"/>
			<point x="278" y="483" type="line"/>
			<point x="305" y="478"/>
			<point x="312" y="455"/>
			<point x="284" y="425" type="curve"/>
			<point x="167" y="299" type="line"/>
			<point x="156" y="287"/>
			<point x="142" y="291"/>
			<point x="142" y="305" type="curve"/>
			<point x="142" y="724" type="line"/>
			<point x="142" y="735"/>
			<point x="138" y="740"/>
			<point x="131" y="740" type="curve"/>
			<point x="125" y="740"/>
			<point x="118" y="737"/>
			<point x="107" y="730" type="curve"/>
			<point x="90" y="719"/>
			<point x="65" y="708"/>
			<point x="28" y="700" type="curve"/>
			<point x="21" y="699"/>
			<point x="17" y="694"/>
			<point x="17" y="688" type="curve"/>
			<point x="17" y="682"/>
			<point x="21" y="677"/>
			<point x="28" y="676" type="curve"/>
			<point x="49" y="673" type="line"/>
			<point x="68" y="670"/>
			<point x="74" y="664"/>
			<point x="74" y="640" type="curve"/>
			<point x="74" y="67" type="line"/>
			<point x="74" y="39"/>
			<point x="68" y="29"/>
			<point x="40" y="25" type="curve"/>
			<point x="26" y="23" type="line"/>
			<point x="19" y="22"/>
			<point x="15" y="17"/>
			<point x="15" y="11" type="curve"/>
			<point x="15" y="5"/>
			<point x="20" y="0"/>
		</contour>
	</outline>
</glyph>
<glyph name="m" format="2">
	<unicode hex="006D"/>
	<advance width="704"/>
	<outline>
		<contour>
			<point x="30" y="0"/>
			<point x="46" y="0" type="curve" smooth="yes"/>
			<point x="206" y="0" type="line" smooth="yes"/>
			<point x="222" y="0"/>
			<point x="230" y="8"/>
			<point x="230" y="20" type="curve" smooth="yes"/>
			<point x="230" y="32"/>
			<point x="220" y="38"/>
			<point x="214" y="44" type="curve" smooth="yes"/>
			<point x="206" y="52" type="line" smooth="yes"/>
			<point x="198" y="60"/>
			<point x="198" y="64"/>
			<point x="198" y="88" type="curve" smooth="yes"/>
			<point x="198" y="368" type="line" smooth="yes"/>
			<point x="198" y="400"/>
			<point x="213" y="416"/>
			<point x="240" y="416" type="curve" smooth="yes"/>
			<point x="266" y="416"/>
			<point x="280" y="399"/>
			<point x="280" y="366" type="curve" smooth="yes"/>
			<point x="280" y="88" type="line" smooth="yes"/>
			<point x="280" y="64"/>
			<point x="280" y="60"/>
			<point x="272" y="52" type="curve" smooth="yes"/>
			<point x="264" y="44" type="line" smooth="yes"/>
			<point x="258" y="38"/>
			<point x="248" y="32"/>
			<point x="248" y="20" type="curve" smooth="yes"/>
			<point x="248" y="8"/>
			<point x="256" y="0"/>
			<point x="272" y="0" type="curve" smooth="yes"/>
			<point x="428" y="0" type="line" smooth="yes"/>
			<point x="444" y="0"/>
			<point x="452" y="8"/>
			<point x="452" y="20" type="curve" smooth="yes"/>
			<point x="452" y="32"/>
			<point x="442" y="38"/>
			<point x="436" y="44" type="curve" smooth="yes"/>
			<point x="428" y="52" type="line" smooth="yes"/>
			<point x="420" y="60"/>
			<point x="420" y="64"/>
			<point x="420" y="88" type="curve" smooth="yes"/>
			<point x="420" y="372" type="line" smooth="yes"/>
			<point x="420" y="402"/>
			<point x="435" y="420"/>
			<point x="462" y="420" type="curve" smooth="yes"/>
			<point x="488" y="420"/>
			<point x="502" y="402"/>
			<point x="502" y="372" type="curve" smooth="yes"/>
			<point x="502" y="88" type="line" smooth="yes"/>
			<point x="502" y="64"/>
			<point x="502" y="60"/>
			<point x="494" y="52" type="curve" smooth="yes"/>
			<point x="486" y="44" type="line" smooth="yes"/>
			<point x="480" y="38"/>
			<point x="470" y="32"/>
			<point x="470" y="20" type="curve" smooth="yes"/>
			<point x="470" y="8"/>
			<point x="478" y="0"/>
			<point x="494" y="0" type="curve" smooth="yes"/>
			<point x="654" y="0" type="line" smooth="yes"/>
			<point x="670" y="0"/>
			<point x="678" y="8"/>
			<point x="678" y="20" type="curve" smooth="yes"/>
			<point x="678" y="32"/>
			<point x="668" y="38"/>
			<point x="662" y="44" type="curve" smooth="yes"/>
			<point x="654" y="52" type="line" smooth="yes"/>
			<point x="646" y="60"/>
			<point x="646" y="64"/>
			<point x="646" y="88" type="curve" smooth="yes"/>
			<point x="646" y="392" type="line" smooth="yes"/>
			<point x="646" y="473"/>
			<point x="596" y="524"/>
			<point x="532" y="524" type="curve" smooth="yes"/>
			<point x="485" y="524"/>
			<point x="445" y="507"/>
			<point x="416" y="460" type="curve" smooth="yes"/>
			<point x="411.53848290702473" y="452.76926540104006"/>
			<point x="406" y="449"/>
			<point x="402" y="460" type="curve" smooth="yes"/>
			<point x="387.1935680703243" y="500.71768780660807"/>
			<point x="349" y="524"/>
			<point x="310" y="524" type="curve" smooth="yes"/>
			<point x="261" y="524"/>
			<point x="212" y="500"/>
			<point x="190" y="456" type="curve" smooth="yes"/>
			<point x="183.3969703923123" y="442.7939407846246"/>
			<point x="176" y="446"/>
			<point x="176" y="456" type="curve" smooth="yes"/>
			<point x="176" y="496" type="line" smooth="yes"/>
			<point x="176" y="510"/>
			<point x="170" y="520"/>
			<point x="158" y="520" type="curve" smooth="yes"/>
			<point x="147" y="520"/>
			<point x="134" y="512"/>
			<point x="126" y="506" type="curve" smooth="yes"/>
			<point x="99.75804885302924" y="486.31853663977193"/>
			<point x="65" y="470"/>
			<point x="36" y="460" type="curve" smooth="yes"/>
			<point x="24.934692946362226" y="456.18437687805596"/>
			<point x="20" y="448"/>
			<point x="20" y="442" type="curve" smooth="yes"/>
			<point x="20" y="436"/>
			<point x="23.679497056621564" y="431.5470019622523"/>
			<point x="32" y="426" type="curve" smooth="yes"/>
			<point x="38" y="422" type="line" smooth="yes"/>
			<point x="54.15549442140352" y="411.22967038573097"/>
			<point x="54" y="400"/>
			<point x="54" y="372" type="curve" smooth="yes"/>
			<point x="54" y="88" type="line" smooth="yes"/>
			<point x="54" y="64"/>
			<point x="54" y="60"/>
			<point x="46" y="52" type="curve" smooth="yes"/>
			<point x="38" y="44" type="line" smooth="yes"/>
			<point x="32" y="38"/>
			<point x="22" y="32"/>
			<point x="22" y="20" type="curve" smooth="yes"/>
			<point x="22" y="8"/>
		</contour>
	</outline>
</glyph>
<glyph name="n" format="2">
	<unicode hex="006E"/>
	<advance width="470"/>
	<outline>
		<contour>
			<point x="46" y="0" type="curve"/>
			<point x="208" y="0" type="curve"/>
			<point x="224" y="0"/>
			<point x="228" y="8"/>
			<point x="228" y="20" type="curve"/>
			<point x="228" y="26"/>
			<point x="225.00000000000003" y="32.99999999999997"/>
			<point x="220" y="38" type="curve"/>
			<point x="216" y="42" type="curve"/>
			<point x="208.3990284952004" y="49.600971504799595"/>
			<point x="200" y="56"/>
			<point x="200" y="88" type="curve"/>
			<point x="200" y="352" type="curve"/>
			<point x="200" y="401"/>
			<point x="214" y="416"/>
			<point x="238" y="416" type="curve"/>
			<point x="258" y="416"/>
			<point x="274" y="401"/>
			<point x="274" y="352" type="curve"/>
			<point x="274" y="88" type="curve"/>
			<point x="274" y="76"/>
			<point x="282.97056274847716" y="54.627416997969576"/>
			<point x="266" y="32" type="curve"/>
			<point x="260" y="24" type="curve"/>
			<point x="255.75735931288074" y="18.343145750507663"/>
			<point x="250" y="18"/>
			<point x="250" y="12" type="curve"/>
			<point x="250" y="6"/>
			<point x="254" y="0"/>
			<point x="264" y="0" type="curve"/>
			<point x="436" y="0" type="curve"/>
			<point x="443" y="0"/>
			<point x="448" y="5"/>
			<point x="448" y="12" type="curve"/>
			<point x="448" y="19"/>
			<point x="441" y="19.00000000000003"/>
			<point x="436" y="24" type="curve"/>
			<point x="426" y="34" type="curve"/>
			<point x="413.0408702190025" y="46.95912978099749"/>
			<point x="412" y="68"/>
			<point x="412" y="88" type="curve"/>
			<point x="412" y="392" type="curve"/>
			<point x="412" y="472.0249960949702"/>
			<point x="370" y="522"/>
			<point x="310" y="522" type="curve"/>
			<point x="246" y="522"/>
			<point x="208" y="480"/>
			<point x="192" y="454" type="curve"/>
			<point x="187.11688295134817" y="446.06493479594076"/>
			<point x="180" y="447.9909814783562"/>
			<point x="180" y="458" type="curve"/>
			<point x="180" y="504" type="curve"/>
			<point x="180" y="517.9999999999999"/>
			<point x="172" y="524"/>
			<point x="160" y="524" type="curve"/>
			<point x="152" y="524"/>
			<point x="144" y="518"/>
			<point x="136" y="512" type="curve"/>
			<point x="104" y="488"/>
			<point x="96" y="480"/>
			<point x="48" y="464" type="curve"/>
			<point x="33.55008650544926" y="459.1833621684831"/>
			<point x="24" y="452"/>
			<point x="24" y="440" type="curve"/>
			<point x="23.999999999999996" y="428"/>
			<point x="32" y="424"/>
			<point x="44" y="416" type="curve"/>
			<point x="56" y="408" type="curve"/>
			<point x="64.25435275778395" y="402.49709816147737"/>
			<point x="64" y="392"/>
			<point x="64" y="376" type="curve"/>
			<point x="64" y="88" type="curve"/>
			<point x="64" y="56"/>
			<point x="58.88117640698835" y="31.440588203494176"/>
			<point x="48" y="26" type="curve"/>
			<point x="44" y="24" type="curve"/>
			<point x="35.75378874876468" y="19.87689437438234"/>
			<point x="32" y="18"/>
			<point x="32" y="12" type="curve"/>
			<point x="32" y="5"/>
			<point x="36" y="0"/>
		</contour>
	</outline>
</glyph>
<glyph name="o" format="2">
	<unicode hex="006F"/>
	<advance width="408"/>
	<outline>
		<contour>
			<point x="203" y="-9" type="curve" smooth="yes"/>
			<point x="305" y="-9"/>
			<point x="383" y="105"/>
			<point x="383" y="254" type="curve" smooth="yes"/>
			<point x="383" y="401"/>
			<point x="304" y="516"/>
			<point x="203" y="516" type="curve" smooth="yes"/>
			<point x="102" y="516"/>
			<point x="23" y="401"/>
			<point x="23" y="254" type="curve" smooth="yes"/>
			<point x="23" y="105"/>
			<point x="101" y="-9"/>
		</contour>
		<contour>
			<point x="203" y="16" type="curve" smooth="yes"/>
			<point x="132" y="16"/>
			<point x="99" y="95"/>
			<point x="99" y="254" type="curve" smooth="yes"/>
			<point x="99" y="411"/>
			<point x="133" y="491"/>
			<point x="203" y="491" type="curve" smooth="yes"/>
			<point x="273" y="491"/>
			<point x="307" y="411"/>
			<point x="307" y="254" type="curve" smooth="yes"/>
			<point x="307" y="95"/>
			<point x="274" y="16"/>
		</contour>
	</outline>
</glyph>
<glyph name="q" format="2">
	<unicode hex="0071"/>
	<advance width="442"/>
	<outline>
		<contour>
			<point x="236" y="-205" type="curve"/>
			<point x="417" y="-205" type="line"/>
			<point x="427" y="-205"/>
			<point x="432" y="-201"/>
			<point x="432" y="-194" type="curve"/>
			<point x="432" y="-188"/>
			<point x="428" y="-183"/>
			<point x="419" y="-182" type="curve"/>
			<point x="405" y="-180" type="line"/>
			<point x="377" y="-176"/>
			<point x="371" y="-166"/>
			<point x="371" y="-138" type="curve"/>
			<point x="371" y="347" type="line"/>
			<point x="371" y="427"/>
			<point x="374" y="472"/>
			<point x="379" y="502" type="curve"/>
			<point x="381" y="511"/>
			<point x="378" y="516"/>
			<point x="371" y="516" type="curve"/>
			<point x="365" y="516"/>
			<point x="359" y="513"/>
			<point x="346" y="498" type="curve"/>
			<point x="334" y="482"/>
			<point x="322" y="479"/>
			<point x="306" y="490" type="curve"/>
			<point x="280" y="508"/>
			<point x="259" y="516"/>
			<point x="232" y="516" type="curve"/>
			<point x="115" y="516"/>
			<point x="30" y="400"/>
			<point x="30" y="233" type="curve"/>
			<point x="30" y="88"/>
			<point x="92" y="-9"/>
			<point x="181" y="-9" type="curve"/>
			<point x="223" y="-9"/>
			<point x="249" y="6"/>
			<point x="282" y="50" type="curve"/>
			<point x="291" y="61"/>
			<point x="303" y="56"/>
			<point x="303" y="45" type="curve"/>
			<point x="303" y="-138" type="line"/>
			<point x="303" y="-166"/>
			<point x="297" y="-173"/>
			<point x="269" y="-177" type="curve"/>
			<point x="232" y="-182" type="line"/>
			<point x="225" y="-183"/>
			<point x="221" y="-187"/>
			<point x="221" y="-193" type="curve"/>
			<point x="221" y="-201"/>
			<point x="226" y="-205"/>
		</contour>
		<contour>
			<point x="203" y="37" type="curve"/>
			<point x="141" y="37"/>
			<point x="104" y="110"/>
			<point x="104" y="247" type="curve"/>
			<point x="104" y="397"/>
			<point x="154" y="491"/>
			<point x="229" y="491" type="curve"/>
			<point x="273" y="491"/>
			<point x="303" y="454"/>
			<point x="303" y="394" type="curve"/>
			<point x="303" y="169" type="line"/>
			<point x="303" y="95"/>
			<point x="254" y="37"/>
		</contour>
	</outline>
</glyph>
<glyph name="r" format="2">
	<unicode hex="0072"/>
	<advance width="318"/>
	<outline>
		<contour>
			<point x="12" y="0"/>
			<point x="28" y="0" type="curve" smooth="yes"/>
			<point x="204" y="0" type="curve" smooth="yes"/>
			<point x="218" y="0"/>
			<point x="224" y="6"/>
			<point x="224" y="20" type="curve" smooth="yes"/>
			<point x="224" y="28"/>
			<point x="218" y="33"/>
			<point x="212" y="36" type="curve" smooth="yes"/>
			<point x="196" y="44" type="curve" smooth="yes"/>
			<point x="180" y="52"/>
			<point x="174" y="64"/>
			<point x="174" y="80" type="curve" smooth="yes"/>
			<point x="174" y="300" type="curve" smooth="yes"/>
			<point x="174" y="377"/>
			<point x="190" y="400"/>
			<point x="204" y="400" type="curve" smooth="yes"/>
			<point x="221" y="400"/>
			<point x="223" y="344"/>
			<point x="270" y="344" type="curve" smooth="yes"/>
			<point x="296" y="344"/>
			<point x="330" y="365"/>
			<point x="330" y="430" type="curve" smooth="yes"/>
			<point x="330" y="486"/>
			<point x="302" y="524"/>
			<point x="258" y="524" type="curve" smooth="yes"/>
			<point x="219" y="524"/>
			<point x="185" y="492"/>
			<point x="168" y="446" type="curve" smooth="yes"/>
			<point x="163" y="433"/>
			<point x="156" y="436"/>
			<point x="156" y="448" type="curve" smooth="yes"/>
			<point x="156" y="502" type="curve" smooth="yes"/>
			<point x="156" y="518"/>
			<point x="148" y="524"/>
			<point x="136" y="524" type="curve" smooth="yes"/>
			<point x="127" y="524"/>
			<point x="117" y="515"/>
			<point x="110" y="510" type="curve" smooth="yes"/>
			<point x="86" y="492"/>
			<point x="49" y="472"/>
			<point x="20" y="462" type="curve" smooth="yes"/>
			<point x="9" y="458"/>
			<point x="0" y="452"/>
			<point x="0" y="442" type="curve" smooth="yes"/>
			<point x="0" y="434"/>
			<point x="4" y="430"/>
			<point x="12" y="424" type="curve" smooth="yes"/>
			<point x="24" y="416" type="curve" smooth="yes"/>
			<point x="35" y="409"/>
			<point x="38" y="398"/>
			<point x="38" y="384" type="curve" smooth="yes"/>
			<point x="36" y="80" type="curve" smooth="yes"/>
			<point x="36" y="64"/>
			<point x="32" y="54"/>
			<point x="22" y="46" type="curve" smooth="yes"/>
			<point x="14" y="40" type="curve" smooth="yes"/>
			<point x="7" y="35"/>
			<point x="4" y="28"/>
			<point x="4" y="18" type="curve" smooth="yes"/>
			<point x="4" y="9"/>
		</contour>
	</outline>
</glyph>
<glyph name="s" format="2">
	<unicode hex="0073"/>
	<advance width="308"/>
	<outline>
		<contour>
			<point x="90" y="-8"/>
			<point x="138" y="-8" type="curve" smooth="yes"/>
			<point x="227" y="-8"/>
			<point x="304" y="50"/>
			<point x="304" y="136" type="curve" smooth="yes"/>
			<point x="304" y="241"/>
			<point x="265.66430013532283" y="268.42282119389984"/>
			<point x="204" y="322" type="curve" smooth="yes"/>
			<point x="143" y="375"/>
			<point x="122" y="392"/>
			<point x="122" y="426" type="curve" smooth="yes"/>
			<point x="122" y="464"/>
			<point x="138" y="472"/>
			<point x="158" y="472" type="curve" smooth="yes"/>
			<point x="194" y="472"/>
			<point x="215" y="429"/>
			<point x="228" y="376" type="curve" smooth="yes"/>
			<point x="231.92885008562288" y="359.9823804201529"/>
			<point x="240" y="350"/>
			<point x="256" y="350" type="curve" smooth="yes"/>
			<point x="272" y="350"/>
			<point x="280" y="360"/>
			<point x="280" y="376" type="curve" smooth="yes"/>
			<point x="280" y="472" type="line" smooth="yes"/>
			<point x="280" y="484"/>
			<point x="276" y="492"/>
			<point x="264" y="500" type="curve" smooth="yes"/>
			<point x="244.15250451762046" y="513.2316636549197"/>
			<point x="202" y="526"/>
			<point x="162" y="526" type="curve" smooth="yes"/>
			<point x="66" y="526"/>
			<point x="8" y="454"/>
			<point x="8" y="376" type="curve" smooth="yes"/>
			<point x="7.9999999999999885" y="312"/>
			<point x="25.08411437217113" y="263.453430476284"/>
			<point x="114" y="196" type="curve" smooth="yes"/>
			<point x="172" y="152"/>
			<point x="184" y="128"/>
			<point x="184" y="96" type="curve" smooth="yes"/>
			<point x="184" y="56"/>
			<point x="166" y="38"/>
			<point x="146" y="38" type="curve" smooth="yes"/>
			<point x="110" y="38"/>
			<point x="92" y="56"/>
			<point x="60" y="148" type="curve" smooth="yes"/>
			<point x="54.49299082220512" y="163.83265138616028"/>
			<point x="48" y="176"/>
			<point x="32" y="176" type="curve" smooth="yes"/>
			<point x="16" y="176"/>
			<point x="10" y="164"/>
			<point x="10" y="152" type="curve" smooth="yes"/>
			<point x="10" y="36" type="line" smooth="yes"/>
			<point x="10" y="28"/>
			<point x="13" y="20"/>
			<point x="20" y="16" type="curve" smooth="yes"/>
			<point x="41" y="4"/>
		</contour>
	</outline>
</glyph>
<glyph name="t" format="2">
	<unicode hex="0074"/>
	<advance width="260"/>
	<outline>
		<contour>
			<point x="75" y="-12"/>
			<point x="130" y="-12" type="curve" smooth="yes"/>
			<point x="200" y="-12"/>
			<point x="252" y="19.999999999999986"/>
			<point x="252" y="118" type="curve" smooth="yes"/>
			<point x="252" y="138"/>
			<point x="245" y="148"/>
			<point x="234" y="148" type="curve" smooth="yes"/>
			<point x="221" y="148"/>
			<point x="210" y="139.13274595042157"/>
			<point x="210" y="116" type="curve" smooth="yes"/>
			<point x="210" y="104"/>
			<point x="206" y="88"/>
			<point x="188" y="88" type="curve" smooth="yes"/>
			<point x="171" y="88"/>
			<point x="168" y="101"/>
			<point x="168" y="128" type="curve" smooth="yes"/>
			<point x="168" y="428" type="line" smooth="yes"/>
			<point x="168" y="437"/>
			<point x="169" y="440"/>
			<point x="178" y="440" type="curve" smooth="yes"/>
			<point x="222" y="440" type="line" smooth="yes"/>
			<point x="239" y="440"/>
			<point x="246" y="447"/>
			<point x="246" y="476" type="curve" smooth="yes"/>
			<point x="246" y="501"/>
			<point x="239" y="510"/>
			<point x="222" y="510" type="curve" smooth="yes"/>
			<point x="182" y="510" type="line" smooth="yes"/>
			<point x="171" y="510"/>
			<point x="168" y="513"/>
			<point x="168" y="522" type="curve" smooth="yes"/>
			<point x="168" y="636" type="line" smooth="yes"/>
			<point x="168" y="651"/>
			<point x="158" y="658"/>
			<point x="144" y="658" type="curve" smooth="yes"/>
			<point x="129" y="658"/>
			<point x="121.58775089616475" y="644.7114253673038"/>
			<point x="114" y="630" type="curve" smooth="yes"/>
			<point x="81.79002091975198" y="567.5500448280401"/>
			<point x="42" y="528"/>
			<point x="2" y="498" type="curve" smooth="yes"/>
			<point x="-3.768882040742394" y="493.6733384694432"/>
			<point x="-6" y="486"/>
			<point x="-6" y="474" type="curve" smooth="yes"/>
			<point x="-6.0000000000000036" y="458"/>
			<point x="0" y="452"/>
			<point x="10" y="452" type="curve" smooth="yes"/>
			<point x="14" y="452" type="line" smooth="yes"/>
			<point x="21" y="452"/>
			<point x="24" y="447"/>
			<point x="24" y="440" type="curve" smooth="yes"/>
			<point x="24" y="96" type="line" smooth="yes"/>
			<point x="24" y="21"/>
		</contour>
	</outline>
</glyph>
<glyph name="u" format="2">
	<unicode hex="0075"/>
	<advance width="454"/>
	<outline>
		<contour>
			<point x="102" y="-12"/>
			<point x="172" y="-12" type="curve" smooth="yes"/>
			<point x="215" y="-12"/>
			<point x="245" y="9"/>
			<point x="280" y="56" type="curve" smooth="yes"/>
			<point x="287" y="65"/>
			<point x="296" y="66"/>
			<point x="296" y="52" type="curve" smooth="yes"/>
			<point x="296" y="10" type="curve" smooth="yes"/>
			<point x="296" y="-5"/>
			<point x="306" y="-10"/>
			<point x="318" y="-10" type="curve" smooth="yes"/>
			<point x="327" y="-10"/>
			<point x="338" y="2"/>
			<point x="344" y="8" type="curve" smooth="yes"/>
			<point x="363" y="25"/>
			<point x="395" y="46"/>
			<point x="430" y="54" type="curve" smooth="yes"/>
			<point x="441" y="56"/>
			<point x="446" y="65"/>
			<point x="446" y="76" type="curve" smooth="yes"/>
			<point x="446" y="85"/>
			<point x="441" y="91"/>
			<point x="432" y="96" type="curve" smooth="yes"/>
			<point x="422" y="102" type="curve" smooth="yes"/>
			<point x="406" y="112"/>
			<point x="410" y="120"/>
			<point x="410" y="144" type="curve" smooth="yes"/>
			<point x="410" y="506" type="curve" smooth="yes"/>
			<point x="410" y="515"/>
			<point x="405" y="521"/>
			<point x="396" y="520" type="curve" smooth="yes"/>
			<point x="256" y="502" type="curve" smooth="yes"/>
			<point x="243" y="500"/>
			<point x="240" y="493"/>
			<point x="240" y="482" type="curve" smooth="yes"/>
			<point x="240" y="471"/>
			<point x="245" y="466"/>
			<point x="250" y="464" type="curve" smooth="yes"/>
			<point x="258" y="460" type="curve" smooth="yes"/>
			<point x="266" y="456"/>
			<point x="274" y="462"/>
			<point x="274" y="438" type="curve" smooth="yes"/>
			<point x="274" y="154" type="curve" smooth="yes"/>
			<point x="274" y="116"/>
			<point x="243" y="104"/>
			<point x="230" y="104" type="curve" smooth="yes"/>
			<point x="214" y="104"/>
			<point x="198" y="116"/>
			<point x="198" y="172" type="curve" smooth="yes"/>
			<point x="200" y="512" type="curve" smooth="yes"/>
			<point x="200" y="525"/>
			<point x="189" y="526"/>
			<point x="176" y="524" type="curve" smooth="yes"/>
			<point x="40" y="500" type="curve" smooth="yes"/>
			<point x="29" y="498"/>
			<point x="24" y="491"/>
			<point x="24" y="480" type="curve" smooth="yes"/>
			<point x="24" y="469"/>
			<point x="26" y="464"/>
			<point x="36" y="460" type="curve" smooth="yes"/>
			<point x="46" y="456" type="curve" smooth="yes"/>
			<point x="56" y="452"/>
			<point x="62" y="446"/>
			<point x="62" y="420" type="curve" smooth="yes"/>
			<point x="62" y="148" type="curve" smooth="yes"/>
			<point x="62" y="44"/>
		</contour>
	</outline>
</glyph>
<glyph name="v" format="2">
	<unicode hex="0076"/>
	<advance width="392"/>
	<outline>
		<contour>
			<point x="194" y="-9" type="curve" smooth="yes"/>
			<point x="199" y="-9"/>
			<point x="204" y="-7"/>
			<point x="207" y="2" type="curve" smooth="yes"/>
			<point x="334" y="419" type="line"/>
			<point x="347" y="461"/>
			<point x="360" y="475"/>
			<point x="380" y="482" type="curve" smooth="yes"/>
			<point x="389" y="485" type="line"/>
			<point x="398" y="488"/>
			<point x="401" y="493"/>
			<point x="401" y="499" type="curve" smooth="yes"/>
			<point x="401" y="505"/>
			<point x="397" y="510"/>
			<point x="387" y="510" type="curve" smooth="yes"/>
			<point x="260" y="510" type="line"/>
			<point x="251" y="510"/>
			<point x="246" y="506"/>
			<point x="246" y="500" type="curve" smooth="yes"/>
			<point x="246" y="493"/>
			<point x="251" y="489"/>
			<point x="259" y="487" type="curve" smooth="yes"/>
			<point x="280" y="483" type="line"/>
			<point x="313" y="477"/>
			<point x="315" y="461"/>
			<point x="304" y="425" type="curve" smooth="yes"/>
			<point x="223" y="154" type="line"/>
			<point x="219" y="139"/>
			<point x="207" y="139"/>
			<point x="203" y="154" type="curve" smooth="yes"/>
			<point x="120" y="443" type="line"/>
			<point x="112" y="472"/>
			<point x="118" y="481"/>
			<point x="150" y="485" type="curve" smooth="yes"/>
			<point x="166" y="487" type="line"/>
			<point x="174" y="488"/>
			<point x="179" y="493"/>
			<point x="179" y="500" type="curve" smooth="yes"/>
			<point x="179" y="506"/>
			<point x="174" y="510"/>
			<point x="165" y="510" type="curve" smooth="yes"/>
			<point x="0" y="510" type="line"/>
			<point x="-9" y="510"/>
			<point x="-14" y="506"/>
			<point x="-14" y="500" type="curve" smooth="yes"/>
			<point x="-14" y="493"/>
			<point x="-10" y="489"/>
			<point x="-1" y="487" type="curve" smooth="yes"/>
			<point x="14" y="484" type="line"/>
			<point x="32" y="480"/>
			<point x="38" y="475"/>
			<point x="48" y="443" type="curve" smooth="yes"/>
			<point x="181" y="2" type="line"/>
			<point x="184" y="-7"/>
			<point x="189" y="-9"/>
		</contour>
	</outline>
</glyph>
<glyph name="x" format="2">
	<unicode hex="0078"/>
	<advance width="385"/>
	<outline>
		<contour>
			<point x="227" y="0" type="curve"/>
			<point x="375" y="0" type="line"/>
			<point x="384" y="0"/>
			<point x="389" y="4"/>
			<point x="389" y="10" type="curve"/>
			<point x="389" y="17"/>
			<point x="385" y="21"/>
			<point x="376" y="23" type="curve"/>
			<point x="361" y="26" type="line"/>
			<point x="348" y="29"/>
			<point x="341" y="35"/>
			<point x="325" y="67" type="curve"/>
			<point x="227" y="260" type="line"/>
			<point x="221" y="272"/>
			<point x="221" y="279"/>
			<point x="228" y="291" type="curve"/>
			<point x="297" y="419" type="line"/>
			<point x="324" y="469"/>
			<point x="337" y="476"/>
			<point x="362" y="482" type="curve"/>
			<point x="374" y="485" type="line"/>
			<point x="383" y="487"/>
			<point x="386" y="493"/>
			<point x="386" y="499" type="curve"/>
			<point x="386" y="505"/>
			<point x="382" y="510"/>
			<point x="372" y="510" type="curve"/>
			<point x="244" y="510" type="line"/>
			<point x="235" y="510"/>
			<point x="230" y="506"/>
			<point x="230" y="500" type="curve"/>
			<point x="230" y="493"/>
			<point x="234" y="489"/>
			<point x="243" y="487" type="curve"/>
			<point x="269" y="481" type="line"/>
			<point x="287" y="477"/>
			<point x="291" y="462"/>
			<point x="276" y="433" type="curve"/>
			<point x="216" y="319" type="line"/>
			<point x="211" y="310"/>
			<point x="203" y="310"/>
			<point x="198" y="319" type="curve"/>
			<point x="130" y="451" type="line"/>
			<point x="121" y="468"/>
			<point x="128" y="480"/>
			<point x="146" y="484" type="curve"/>
			<point x="161" y="487" type="line"/>
			<point x="169" y="489"/>
			<point x="174" y="493"/>
			<point x="174" y="500" type="curve"/>
			<point x="174" y="506"/>
			<point x="169" y="510"/>
			<point x="160" y="510" type="curve"/>
			<point x="12" y="510" type="line"/>
			<point x="3" y="510"/>
			<point x="-2" y="506"/>
			<point x="-2" y="500" type="curve"/>
			<point x="-2" y="493"/>
			<point x="2" y="489"/>
			<point x="11" y="487" type="curve"/>
			<point x="26" y="484" type="line"/>
			<point x="39" y="481"/>
			<point x="47" y="473"/>
			<point x="62" y="443" type="curve"/>
			<point x="157" y="256" type="line"/>
			<point x="162" y="245"/>
			<point x="161" y="238"/>
			<point x="155" y="227" type="curve"/>
			<point x="81" y="91" type="line"/>
			<point x="54" y="41"/>
			<point x="41" y="34"/>
			<point x="16" y="28" type="curve"/>
			<point x="4" y="25" type="line"/>
			<point x="-5" y="23"/>
			<point x="-8" y="17"/>
			<point x="-8" y="11" type="curve"/>
			<point x="-8" y="5"/>
			<point x="-4" y="0"/>
			<point x="6" y="0" type="curve"/>
			<point x="134" y="0" type="line"/>
			<point x="143" y="0"/>
			<point x="148" y="4"/>
			<point x="148" y="10" type="curve"/>
			<point x="148" y="17"/>
			<point x="144" y="21"/>
			<point x="135" y="23" type="curve"/>
			<point x="109" y="29" type="line"/>
			<point x="91" y="33"/>
			<point x="87" y="48"/>
			<point x="102" y="77" type="curve"/>
			<point x="167" y="199" type="line"/>
			<point x="172" y="209"/>
			<point x="181" y="208"/>
			<point x="186" y="199" type="curve"/>
			<point x="257" y="59" type="line"/>
			<point x="266" y="42"/>
			<point x="259" y="30"/>
			<point x="241" y="26" type="curve"/>
			<point x="226" y="23" type="line"/>
			<point x="218" y="21"/>
			<point x="213" y="17"/>
			<point x="213" y="10" type="curve"/>
			<point x="213" y="4"/>
			<point x="218" y="0"/>
		</contour>
	</outline>
</glyph>
<glyph name="z" format="2">
	<unicode hex="007A"/>
	<advance width="353"/>
	<outline>
		<contour>
			<point x="30" y="0" type="curve"/>
			<point x="291" y="0" type="line"/>
			<point x="303" y="0"/>
			<point x="310" y="6"/>
			<point x="312" y="18" type="curve"/>
			<point x="338" y="165" type="line"/>
			<point x="340" y="175"/>
			<point x="335" y="182"/>
			<point x="328" y="182" type="curve"/>
			<point x="320" y="182"/>
			<point x="317" y="178"/>
			<point x="313" y="169" type="curve"/>
			<point x="283" y="96" type="line"/>
			<point x="263" y="46"/>
			<point x="239" y="26"/>
			<point x="161" y="26" type="curve"/>
			<point x="116" y="26" type="line"/>
			<point x="101" y="26"/>
			<point x="98" y="35"/>
			<point x="104" y="46" type="curve"/>
			<point x="327" y="472" type="line"/>
			<point x="333" y="484"/>
			<point x="337" y="492"/>
			<point x="337" y="497" type="curve"/>
			<point x="337" y="504"/>
			<point x="333" y="510"/>
			<point x="322" y="510" type="curve"/>
			<point x="122" y="510" type="line"/>
			<point x="84" y="510"/>
			<point x="97" y="534"/>
			<point x="79" y="534" type="curve"/>
			<point x="70" y="534"/>
			<point x="64" y="528"/>
			<point x="61" y="510" type="curve"/>
			<point x="37" y="374" type="line"/>
			<point x="35" y="365"/>
			<point x="39" y="359"/>
			<point x="47" y="359" type="curve"/>
			<point x="54" y="359"/>
			<point x="58" y="363"/>
			<point x="62" y="372" type="curve"/>
			<point x="84" y="418" type="line"/>
			<point x="104" y="460"/>
			<point x="130" y="484"/>
			<point x="195" y="484" type="curve"/>
			<point x="237" y="484" type="line"/>
			<point x="250" y="484"/>
			<point x="255" y="475"/>
			<point x="249" y="464" type="curve"/>
			<point x="25" y="38" type="line"/>
			<point x="19" y="26"/>
			<point x="15" y="18"/>
			<point x="15" y="13" type="curve"/>
			<point x="15" y="6"/>
			<point x="19" y="0"/>
		</contour>
	</outline>
</glyph>
<glyph name="braceleft" format="2">
	<unicode hex="007B"/>
	<advance width="318"/>
	<outline>
		<contour>
			<point x="246" y="-96" type="curve"/>
			<point x="253" y="-96"/>
			<point x="258" y="-91"/>
			<point x="258" y="-84" type="curve"/>
			<point x="258" y="-77"/>
			<point x="253" y="-72"/>
			<point x="246" y="-72" type="curve"/>
			<point x="199" y="-72"/>
			<point x="178" y="-38"/>
			<point x="178" y="36" type="curve"/>
			<point x="178" y="178" type="line"/>
			<point x="178" y="267"/>
			<point x="156" y="302"/>
			<point x="104" y="322" type="curve"/>
			<point x="156" y="342"/>
			<point x="178" y="377"/>
			<point x="178" y="466" type="curve"/>
			<point x="178" y="608" type="line"/>
			<point x="178" y="682"/>
			<point x="199" y="716"/>
			<point x="246" y="716" type="curve"/>
			<point x="253" y="716"/>
			<point x="258" y="721"/>
			<point x="258" y="728" type="curve"/>
			<point x="258" y="735"/>
			<point x="253" y="740"/>
			<point x="246" y="740" type="curve"/>
			<point x="164" y="740"/>
			<point x="120" y="696"/>
			<point x="120" y="604" type="curve"/>
			<point x="120" y="462" type="line"/>
			<point x="120" y="368"/>
			<point x="99" y="334"/>
			<point x="52" y="334" type="curve"/>
			<point x="45" y="334"/>
			<point x="40" y="329"/>
			<point x="40" y="322" type="curve"/>
			<point x="40" y="315"/>
			<point x="45" y="310"/>
			<point x="52" y="310" type="curve"/>
			<point x="99" y="310"/>
			<point x="120" y="276"/>
			<point x="120" y="182" type="curve"/>
			<point x="120" y="40" type="line"/>
			<point x="120" y="-52"/>
			<point x="164" y="-96"/>
		</contour>
	</outline>
</glyph>
<glyph name="asciitilde" format="2">
  <advance width="531"/>
  <unicode hex="007E"/>
  <outline>
    <contour>
      <point x="358" y="301" type="curve" smooth="yes"/>
      <point x="279" y="301"/>
      <point x="223" y="362"/>
      <point x="158" y="362" type="curve" smooth="yes"/>
      <point x="125" y="362"/>
      <point x="98" y="346"/>
      <point x="86" y="311" type="curve" smooth="yes"/>
      <point x="83" y="303"/>
      <point x="79" y="299"/>
      <point x="72" y="299" type="curve" smooth="yes"/>
      <point x="65" y="299"/>
      <point x="60" y="305"/>
      <point x="62" y="314" type="curve" smooth="yes"/>
      <point x="75" y="380"/>
      <point x="122" y="414"/>
      <point x="172" y="414" type="curve" smooth="yes"/>
      <point x="248" y="414"/>
      <point x="310" y="353"/>
      <point x="372" y="353" type="curve" smooth="yes"/>
      <point x="405" y="353"/>
      <point x="432" y="369"/>
      <point x="444" y="404" type="curve" smooth="yes"/>
      <point x="447" y="412"/>
      <point x="451" y="416"/>
      <point x="458" y="416" type="curve" smooth="yes"/>
      <point x="466" y="416"/>
      <point x="470" y="410"/>
      <point x="468" y="401" type="curve" smooth="yes"/>
      <point x="455" y="335"/>
      <point x="408" y="301"/>
    </contour>
  </outline>
</glyph>
<glyph name="cent" format="2">
	<unicode hex="00A2"/>
	<advance width="339"/>
	<outline>
		<contour>
			<point x="187" y="-109" type="curve"/>
			<point x="195" y="-109" type="line"/>
			<point x="200" y="-109"/>
			<point x="203" y="-106"/>
			<point x="203" y="-101" type="curve"/>
			<point x="203" y="608" type="line"/>
			<point x="203" y="613"/>
			<point x="200" y="616"/>
			<point x="195" y="616" type="curve"/>
			<point x="187" y="616" type="line"/>
			<point x="182" y="616"/>
			<point x="179" y="613"/>
			<point x="179" y="608" type="curve"/>
			<point x="179" y="-101" type="line"/>
			<point x="179" y="-106"/>
			<point x="182" y="-109"/>
		</contour>
		<component base="c"/>
	</outline>
</glyph>
<glyph name="section" format="2">
	<unicode hex="00A7"/>
	<advance width="376"/>
	<outline>
		<contour>
			<point x="154" y="-129" type="curve"/>
			<point x="252" y="-129"/>
			<point x="310" y="-81"/>
			<point x="310" y="-8" type="curve"/>
			<point x="310" y="40"/>
			<point x="284" y="84"/>
			<point x="236" y="135" type="curve"/>
			<point x="230" y="142"/>
			<point x="232" y="148"/>
			<point x="241" y="150" type="curve"/>
			<point x="302" y="165"/>
			<point x="346" y="215"/>
			<point x="346" y="286" type="curve"/>
			<point x="346" y="351"/>
			<point x="308" y="408"/>
			<point x="233" y="479" type="curve"/>
			<point x="154" y="553"/>
			<point x="132" y="592"/>
			<point x="132" y="639" type="curve"/>
			<point x="132" y="675"/>
			<point x="161" y="702"/>
			<point x="199" y="702" type="curve"/>
			<point x="239" y="702"/>
			<point x="265" y="673"/>
			<point x="294" y="586" type="curve"/>
			<point x="297" y="577"/>
			<point x="300" y="570"/>
			<point x="310" y="570" type="curve"/>
			<point x="317" y="570"/>
			<point x="323" y="575"/>
			<point x="323" y="585" type="curve"/>
			<point x="321" y="695" type="line"/>
			<point x="321" y="703"/>
			<point x="317" y="707"/>
			<point x="311" y="711" type="curve"/>
			<point x="290" y="724"/>
			<point x="262" y="730"/>
			<point x="233" y="730" type="curve"/>
			<point x="135" y="730"/>
			<point x="77" y="682"/>
			<point x="77" y="609" type="curve"/>
			<point x="77" y="561"/>
			<point x="103" y="517"/>
			<point x="151" y="466" type="curve"/>
			<point x="157" y="459"/>
			<point x="155" y="453"/>
			<point x="146" y="451" type="curve"/>
			<point x="85" y="436"/>
			<point x="41" y="386"/>
			<point x="41" y="315" type="curve"/>
			<point x="41" y="250"/>
			<point x="79" y="193"/>
			<point x="154" y="122" type="curve"/>
			<point x="233" y="48"/>
			<point x="255" y="9"/>
			<point x="255" y="-38" type="curve"/>
			<point x="255" y="-74"/>
			<point x="226" y="-101"/>
			<point x="188" y="-101" type="curve"/>
			<point x="148" y="-101"/>
			<point x="122" y="-72"/>
			<point x="93" y="15" type="curve"/>
			<point x="90" y="24"/>
			<point x="87" y="31"/>
			<point x="77" y="31" type="curve"/>
			<point x="70" y="31"/>
			<point x="64" y="26"/>
			<point x="64" y="16" type="curve"/>
			<point x="66" y="-94" type="line"/>
			<point x="66" y="-102"/>
			<point x="70" y="-106"/>
			<point x="76" y="-110" type="curve"/>
			<point x="97" y="-123"/>
			<point x="125" y="-129"/>
		</contour>
		<contour>
			<point x="219" y="172" type="curve"/>
			<point x="206" y="170"/>
			<point x="197" y="174"/>
			<point x="188" y="184" type="curve"/>
			<point x="122" y="251"/>
			<point x="96" y="295"/>
			<point x="96" y="345" type="curve"/>
			<point x="96" y="392"/>
			<point x="123" y="422"/>
			<point x="168" y="429" type="curve"/>
			<point x="181" y="431"/>
			<point x="190" y="427"/>
			<point x="199" y="417" type="curve"/>
			<point x="265" y="350"/>
			<point x="291" y="306"/>
			<point x="291" y="256" type="curve"/>
			<point x="291" y="209"/>
			<point x="263" y="178"/>
		</contour>
	</outline>
</glyph>
<glyph name="copyright" format="2">
	<unicode hex="00A9"/>
	<advance width="830"/>
	<outline>
		<contour>
			<point x="415" y="-15" type="curve"/>
			<point x="622" y="-15"/>
			<point x="790" y="153"/>
			<point x="790" y="360" type="curve"/>
			<point x="790" y="567"/>
			<point x="622" y="735"/>
			<point x="415" y="735" type="curve"/>
			<point x="208" y="735"/>
			<point x="40" y="567"/>
			<point x="40" y="360" type="curve"/>
			<point x="40" y="153"/>
			<point x="208" y="-15"/>
		</contour>
		<contour>
			<point x="415" y="23" type="curve"/>
			<point x="230" y="23"/>
			<point x="80" y="175"/>
			<point x="80" y="360" type="curve"/>
			<point x="80" y="545"/>
			<point x="230" y="697"/>
			<point x="415" y="697" type="curve"/>
			<point x="600" y="697"/>
			<point x="750" y="545"/>
			<point x="750" y="360" type="curve"/>
			<point x="750" y="175"/>
			<point x="600" y="23"/>
		</contour>
		<contour>
			<point x="421" y="142" type="curve"/>
			<point x="473" y="142"/>
			<point x="506" y="149"/>
			<point x="533" y="160" type="curve"/>
			<point x="540" y="164"/>
			<point x="543" y="167"/>
			<point x="543" y="174" type="curve"/>
			<point x="546" y="278" type="line"/>
			<point x="546" y="291"/>
			<point x="541" y="297"/>
			<point x="533" y="297" type="curve"/>
			<point x="525" y="297"/>
			<point x="521" y="292"/>
			<point x="517" y="277" type="curve"/>
			<point x="510" y="253" type="line"/>
			<point x="489" y="181"/>
			<point x="462" y="162"/>
			<point x="419" y="162" type="curve"/>
			<point x="355" y="162"/>
			<point x="290" y="242"/>
			<point x="290" y="363" type="curve"/>
			<point x="290" y="480"/>
			<point x="347" y="560"/>
			<point x="418" y="560" type="curve"/>
			<point x="456" y="560"/>
			<point x="483" y="540"/>
			<point x="504" y="468" type="curve"/>
			<point x="511" y="444" type="line"/>
			<point x="515" y="429"/>
			<point x="519" y="424"/>
			<point x="527" y="424" type="curve"/>
			<point x="535" y="424"/>
			<point x="540" y="430"/>
			<point x="540" y="443" type="curve"/>
			<point x="537" y="547" type="line"/>
			<point x="537" y="554"/>
			<point x="534" y="557"/>
			<point x="527" y="560" type="curve"/>
			<point x="500" y="572"/>
			<point x="467" y="579"/>
			<point x="424" y="579" type="curve"/>
			<point x="312" y="579"/>
			<point x="223" y="481"/>
			<point x="223" y="363" type="curve"/>
			<point x="223" y="240"/>
			<point x="302" y="142"/>
		</contour>
	</outline>
</glyph>
<glyph name="degree" format="2">
	<unicode hex="00B0"/>
	<advance width="426"/>
	<outline>
		<contour>
			<point x="214" y="449" type="curve"/>
			<point x="295" y="449"/>
			<point x="356" y="514"/>
			<point x="356" y="593" type="curve"/>
			<point x="356" y="671"/>
			<point x="295" y="735"/>
			<point x="214" y="735" type="curve"/>
			<point x="133" y="735"/>
			<point x="70" y="671"/>
			<point x="70" y="593" type="curve"/>
			<point x="70" y="514"/>
			<point x="133" y="449"/>
		</contour>
		<contour>
			<point x="214" y="480" type="curve"/>
			<point x="150" y="480"/>
			<point x="102" y="530"/>
			<point x="102" y="593" type="curve"/>
			<point x="102" y="654"/>
			<point x="150" y="704"/>
			<point x="214" y="704" type="curve"/>
			<point x="277" y="704"/>
			<point x="324" y="654"/>
			<point x="324" y="593" type="curve"/>
			<point x="324" y="530"/>
			<point x="277" y="480"/>
		</contour>
	</outline>
</glyph>
<glyph name="paragraph" format="2">
	<unicode hex="00B6"/>
	<advance width="516"/>
	<outline>
		<contour>
			<point x="260" y="-130" type="curve" smooth="yes"/>
			<point x="287" y="-130" type="line"/>
			<point x="296" y="-130"/>
			<point x="301" y="-125"/>
			<point x="301" y="-116" type="curve" smooth="yes"/>
			<point x="301" y="666" type="line"/>
			<point x="301" y="681"/>
			<point x="310" y="690"/>
			<point x="325" y="690" type="curve" smooth="yes"/>
			<point x="348" y="690" type="line"/>
			<point x="363" y="690"/>
			<point x="372" y="681"/>
			<point x="372" y="666" type="curve" smooth="yes"/>
			<point x="372" y="-116" type="line"/>
			<point x="372" y="-125"/>
			<point x="377" y="-130"/>
			<point x="386" y="-130" type="curve" smooth="yes"/>
			<point x="413" y="-130" type="line"/>
			<point x="422" y="-130"/>
			<point x="427" y="-125"/>
			<point x="427" y="-116" type="curve" smooth="yes"/>
			<point x="427" y="654" type="line"/>
			<point x="427" y="682"/>
			<point x="433" y="688"/>
			<point x="461" y="693" type="curve" smooth="yes"/>
			<point x="484" y="697" type="line"/>
			<point x="493" y="699"/>
			<point x="497" y="702"/>
			<point x="497" y="709" type="curve" smooth="yes"/>
			<point x="497" y="716"/>
			<point x="492" y="720"/>
			<point x="482" y="720" type="curve" smooth="yes"/>
			<point x="223" y="720" type="line"/>
			<point x="105" y="720"/>
			<point x="24" y="638"/>
			<point x="24" y="520" type="curve" smooth="yes"/>
			<point x="24" y="406"/>
			<point x="105" y="326"/>
			<point x="220" y="326" type="curve" smooth="yes"/>
			<point x="232" y="326" type="line"/>
			<point x="241" y="326"/>
			<point x="246" y="321"/>
			<point x="246" y="312" type="curve" smooth="yes"/>
			<point x="246" y="-116" type="line"/>
			<point x="246" y="-125"/>
			<point x="251" y="-130"/>
		</contour>
	</outline>
</glyph>
<glyph name="questiondown" format="2">
	<unicode hex="00BF"/>
	<advance width="317"/>
	<outline>
		<contour>
			<point x="179" y="-215" type="curve"/>
			<point x="209" y="-215"/>
			<point x="254" y="-205"/>
			<point x="275" y="-188" type="curve"/>
			<point x="282" y="-182"/>
			<point x="286" y="-177"/>
			<point x="286" y="-166" type="curve"/>
			<point x="289" y="-45" type="line"/>
			<point x="289" y="-34"/>
			<point x="285" y="-28"/>
			<point x="278" y="-28" type="curve"/>
			<point x="271" y="-28"/>
			<point x="268" y="-32"/>
			<point x="265" y="-42" type="curve"/>
			<point x="235" y="-140"/>
			<point x="207" y="-185"/>
			<point x="150" y="-185" type="curve"/>
			<point x="117" y="-185"/>
			<point x="89" y="-161"/>
			<point x="89" y="-95" type="curve"/>
			<point x="89" y="-28"/>
			<point x="113" y="2"/>
			<point x="155" y="44" type="curve"/>
			<point x="179" y="68" type="line"/>
			<point x="203" y="92"/>
			<point x="210" y="117"/>
			<point x="209" y="163" type="curve"/>
			<point x="205" y="316" type="line"/>
			<point x="205" y="327"/>
			<point x="200" y="332"/>
			<point x="193" y="332" type="curve"/>
			<point x="185" y="332"/>
			<point x="180" y="327"/>
			<point x="180" y="316" type="curve"/>
			<point x="176" y="194" type="line"/>
			<point x="175" y="160"/>
			<point x="171" y="149"/>
			<point x="157" y="135" type="curve"/>
			<point x="118" y="99" type="line"/>
			<point x="61" y="45"/>
			<point x="32" y="0"/>
			<point x="32" y="-76" type="curve"/>
			<point x="32" y="-164"/>
			<point x="87" y="-215"/>
		</contour>
		<component base="period" xScale="-1" yScale="-1" xOffset="301" yOffset="511"/>
	</outline>
</glyph>
<glyph name="AE" format="2">
	<unicode hex="00C6"/>
	<advance width="778"/>
	<outline>
		<contour>
			<point x="-3" y="0" type="curve"/>
			<point x="147" y="0" type="line"/>
			<point x="158" y="0"/>
			<point x="163" y="4"/>
			<point x="163" y="11" type="curve"/>
			<point x="163" y="17"/>
			<point x="158" y="21"/>
			<point x="146" y="23" type="curve"/>
			<point x="130" y="25" type="line"/>
			<point x="99" y="29"/>
			<point x="93" y="53"/>
			<point x="111" y="88" type="curve"/>
			<point x="241" y="348" type="line"/>
			<point x="244" y="355"/>
			<point x="250" y="358"/>
			<point x="257" y="358" type="curve"/>
			<point x="400" y="358" type="line"/>
			<point x="409" y="358"/>
			<point x="414" y="353"/>
			<point x="414" y="344" type="curve"/>
			<point x="414" y="66" type="line"/>
			<point x="414" y="38"/>
			<point x="408" y="32"/>
			<point x="380" y="27" type="curve"/>
			<point x="357" y="23" type="line"/>
			<point x="348" y="21"/>
			<point x="344" y="17"/>
			<point x="344" y="11" type="curve"/>
			<point x="344" y="4"/>
			<point x="349" y="0"/>
			<point x="359" y="0" type="curve"/>
			<point x="710" y="0" type="line"/>
			<point x="725" y="0"/>
			<point x="734" y="8"/>
			<point x="735" y="23" type="curve"/>
			<point x="745" y="201" type="line"/>
			<point x="746" y="212"/>
			<point x="740" y="218"/>
			<point x="733" y="218" type="curve"/>
			<point x="725" y="218"/>
			<point x="720" y="213"/>
			<point x="718" y="205" type="curve"/>
			<point x="706" y="146" type="line"/>
			<point x="687" y="53"/>
			<point x="638" y="25"/>
			<point x="571" y="25" type="curve"/>
			<point x="506" y="25"/>
			<point x="485" y="45"/>
			<point x="485" y="93" type="curve"/>
			<point x="485" y="344" type="line"/>
			<point x="485" y="353"/>
			<point x="490" y="358"/>
			<point x="499" y="358" type="curve"/>
			<point x="548" y="358" type="line"/>
			<point x="578" y="358"/>
			<point x="594" y="347"/>
			<point x="603" y="301" type="curve"/>
			<point x="613" y="252" type="line"/>
			<point x="615" y="244"/>
			<point x="622" y="238"/>
			<point x="630" y="239" type="curve"/>
			<point x="637" y="240"/>
			<point x="641" y="245"/>
			<point x="641" y="256" type="curve"/>
			<point x="641" y="481" type="line"/>
			<point x="641" y="492"/>
			<point x="637" y="497"/>
			<point x="630" y="498" type="curve"/>
			<point x="622" y="499"/>
			<point x="615" y="493"/>
			<point x="613" y="485" type="curve"/>
			<point x="603" y="435" type="line"/>
			<point x="596" y="402"/>
			<point x="579" y="388"/>
			<point x="549" y="388" type="curve"/>
			<point x="499" y="388" type="line"/>
			<point x="490" y="388"/>
			<point x="485" y="393"/>
			<point x="485" y="402" type="curve"/>
			<point x="485" y="643" type="line"/>
			<point x="485" y="681"/>
			<point x="502" y="695"/>
			<point x="556" y="695" type="curve"/>
			<point x="636" y="695"/>
			<point x="680" y="654"/>
			<point x="695" y="564" type="curve"/>
			<point x="701" y="527" type="line"/>
			<point x="702" y="519"/>
			<point x="707" y="514"/>
			<point x="715" y="514" type="curve"/>
			<point x="723" y="514"/>
			<point x="729" y="520"/>
			<point x="728" y="531" type="curve"/>
			<point x="720" y="697" type="line"/>
			<point x="719" y="712"/>
			<point x="710" y="720"/>
			<point x="695" y="720" type="curve"/>
			<point x="315" y="720" type="line"/>
			<point x="305" y="720"/>
			<point x="300" y="716"/>
			<point x="300" y="709" type="curve"/>
			<point x="300" y="703"/>
			<point x="304" y="699"/>
			<point x="313" y="697" type="curve"/>
			<point x="336" y="692" type="line"/>
			<point x="364" y="686"/>
			<point x="374" y="682"/>
			<point x="360" y="654" type="curve"/>
			<point x="78" y="89" type="line"/>
			<point x="61" y="54"/>
			<point x="37" y="31"/>
			<point x="11" y="26" type="curve"/>
			<point x="-4" y="23" type="line"/>
			<point x="-13" y="21"/>
			<point x="-18" y="18"/>
			<point x="-18" y="11" type="curve"/>
			<point x="-18" y="4"/>
			<point x="-12" y="0"/>
		</contour>
		<contour>
			<point x="269" y="405" type="curve"/>
			<point x="400" y="667" type="line"/>
			<point x="405" y="678"/>
			<point x="414" y="676"/>
			<point x="414" y="664" type="curve"/>
			<point x="414" y="402" type="line"/>
			<point x="414" y="393"/>
			<point x="409" y="388"/>
			<point x="400" y="388" type="curve"/>
			<point x="279" y="388" type="line"/>
			<point x="269" y="388"/>
			<point x="265" y="396"/>
		</contour>
	</outline>
</glyph>
<glyph name="multiply" format="2">
  <advance width="531"/>
  <unicode hex="00D7"/>
  <outline>
    <contour>
      <point x="99" y="194" type="line" smooth="yes"/>
      <point x="103" y="190"/>
      <point x="109" y="190"/>
      <point x="113" y="194" type="curve" smooth="yes"/>
      <point x="443" y="524" type="line" smooth="yes"/>
      <point x="447" y="528"/>
      <point x="447" y="534"/>
      <point x="443" y="538" type="curve" smooth="yes"/>
      <point x="433" y="548" type="line" smooth="yes"/>
      <point x="429" y="553"/>
      <point x="423" y="553"/>
      <point x="419" y="548" type="curve" smooth="yes"/>
      <point x="89" y="218" type="line" smooth="yes"/>
      <point x="84" y="214"/>
      <point x="84" y="208"/>
      <point x="89" y="204" type="curve" smooth="yes"/>
    </contour>
    <contour>
      <point x="418" y="194" type="line" smooth="yes"/>
      <point x="422" y="190"/>
      <point x="428" y="190"/>
      <point x="432" y="194" type="curve" smooth="yes"/>
      <point x="442" y="204" type="line" smooth="yes"/>
      <point x="447" y="208"/>
      <point x="447" y="214"/>
      <point x="442" y="218" type="curve" smooth="yes"/>
      <point x="112" y="548" type="line" smooth="yes"/>
      <point x="108" y="553"/>
      <point x="102" y="553"/>
      <point x="98" y="548" type="curve" smooth="yes"/>
      <point x="88" y="538" type="line" smooth="yes"/>
      <point x="84" y="534"/>
      <point x="84" y="528"/>
      <point x="88" y="524" type="curve" smooth="yes"/>
    </contour>
  </outline>
</glyph>
<glyph name="Oslash" format="2">
	<unicode hex="00D8"/>
	<advance width="540"/>
	<outline>
		<contour>
			<point x="86" y="-60" type="curve"/>
			<point x="97" y="-60" type="line"/>
			<point x="102" y="-60"/>
			<point x="106" y="-58"/>
			<point x="108" y="-52" type="curve"/>
			<point x="463" y="778" type="line"/>
			<point x="466" y="785"/>
			<point x="462" y="790"/>
			<point x="455" y="790" type="curve"/>
			<point x="444" y="790" type="line"/>
			<point x="439" y="790"/>
			<point x="435" y="788"/>
			<point x="433" y="782" type="curve"/>
			<point x="78" y="-48" type="line"/>
			<point x="75" y="-55"/>
			<point x="79" y="-60"/>
		</contour>
		<component base="O"/>
	</outline>
</glyph>
<glyph name="germandbls" format="2">
	<unicode hex="00DF"/>
	<advance width="444"/>
	<outline>
		<contour>
			<point x="297" y="-9" type="curve" smooth="yes"/>
			<point x="380" y="-9"/>
			<point x="431" y="46"/>
			<point x="431" y="132" type="curve" smooth="yes"/>
			<point x="431" y="197"/>
			<point x="396" y="252"/>
			<point x="335" y="294" type="curve" smooth="yes"/>
			<point x="261" y="345"/>
			<point x="241" y="368"/>
			<point x="241" y="405" type="curve" smooth="yes"/>
			<point x="241" y="483"/>
			<point x="393" y="523"/>
			<point x="393" y="638" type="curve" smooth="yes"/>
			<point x="393" y="687"/>
			<point x="351" y="748"/>
			<point x="264" y="748" type="curve" smooth="yes"/>
			<point x="152" y="748"/>
			<point x="85" y="654"/>
			<point x="85" y="544" type="curve" smooth="yes"/>
			<point x="85" y="521"/>
			<point x="69" y="506"/>
			<point x="38" y="503" type="curve" smooth="yes"/>
			<point x="30" y="502"/>
			<point x="26" y="498"/>
			<point x="26" y="492" type="curve" smooth="yes"/>
			<point x="26" y="486"/>
			<point x="31" y="482"/>
			<point x="38" y="482" type="curve" smooth="yes"/>
			<point x="61" y="482" type="line"/>
			<point x="76" y="482"/>
			<point x="85" y="473"/>
			<point x="85" y="458" type="curve" smooth="yes"/>
			<point x="85" y="67" type="line"/>
			<point x="85" y="39"/>
			<point x="79" y="27"/>
			<point x="51" y="25" type="curve" smooth="yes"/>
			<point x="26" y="23" type="line"/>
			<point x="17" y="22"/>
			<point x="13" y="17"/>
			<point x="13" y="11" type="curve" smooth="yes"/>
			<point x="13" y="4"/>
			<point x="18" y="0"/>
			<point x="28" y="0" type="curve" smooth="yes"/>
			<point x="133" y="0" type="line"/>
			<point x="146" y="0"/>
			<point x="153" y="7"/>
			<point x="153" y="20" type="curve" smooth="yes"/>
			<point x="153" y="570" type="line"/>
			<point x="153" y="672"/>
			<point x="201" y="717"/>
			<point x="259" y="717" type="curve" smooth="yes"/>
			<point x="307" y="717"/>
			<point x="329" y="688"/>
			<point x="329" y="643" type="curve" smooth="yes"/>
			<point x="329" y="512"/>
			<point x="197" y="490"/>
			<point x="197" y="379" type="curve" smooth="yes"/>
			<point x="197" y="324"/>
			<point x="225" y="282"/>
			<point x="294" y="235" type="curve" smooth="yes"/>
			<point x="351" y="196"/>
			<point x="378" y="155"/>
			<point x="378" y="102" type="curve" smooth="yes"/>
			<point x="378" y="49"/>
			<point x="347" y="17"/>
			<point x="311" y="17" type="curve" smooth="yes"/>
			<point x="267" y="17"/>
			<point x="247" y="45"/>
			<point x="225" y="140" type="curve" smooth="yes"/>
			<point x="222" y="151"/>
			<point x="218" y="156"/>
			<point x="210" y="156" type="curve" smooth="yes"/>
			<point x="202" y="156"/>
			<point x="197" y="149"/>
			<point x="197" y="139" type="curve" smooth="yes"/>
			<point x="200" y="27" type="line"/>
			<point x="200" y="19"/>
			<point x="202" y="14"/>
			<point x="209" y="10" type="curve" smooth="yes"/>
			<point x="230" y="-1"/>
			<point x="259" y="-9"/>
		</contour>
	</outline>
</glyph>
<glyph name="ae" format="2">
	<unicode hex="00E6"/>
	<advance width="573"/>
	<outline>
		<contour>
			<point x="119" y="-9" type="curve"/>
			<point x="168" y="-9"/>
			<point x="203" y="15"/>
			<point x="231" y="55" type="curve"/>
			<point x="313" y="175" type="line"/>
			<point x="313" y="401" type="line"/>
			<point x="313" y="479"/>
			<point x="278" y="516"/>
			<point x="214" y="516" type="curve"/>
			<point x="129" y="516"/>
			<point x="31" y="433"/>
			<point x="31" y="355" type="curve"/>
			<point x="31" y="337"/>
			<point x="42" y="327"/>
			<point x="59" y="327" type="curve"/>
			<point x="81" y="327"/>
			<point x="107" y="345"/>
			<point x="114" y="388" type="curve"/>
			<point x="126" y="458"/>
			<point x="155" y="486"/>
			<point x="189" y="486" type="curve"/>
			<point x="223" y="486"/>
			<point x="245" y="461"/>
			<point x="245" y="397" type="curve"/>
			<point x="245" y="306" type="line"/>
			<point x="245" y="298"/>
			<point x="241" y="292"/>
			<point x="232" y="289" type="curve"/>
			<point x="111" y="250"/>
			<point x="24" y="173"/>
			<point x="24" y="88" type="curve"/>
			<point x="24" y="29"/>
			<point x="64" y="-9"/>
		</contour>
		<contour>
			<point x="147" y="37" type="curve"/>
			<point x="114" y="37"/>
			<point x="96" y="61"/>
			<point x="96" y="106" type="curve"/>
			<point x="96" y="178"/>
			<point x="143" y="229"/>
			<point x="224" y="259" type="curve"/>
			<point x="237" y="264"/>
			<point x="245" y="259"/>
			<point x="245" y="248" type="curve"/>
			<point x="245" y="175" type="line"/>
			<point x="245" y="97"/>
			<point x="198" y="37"/>
		</contour>
		<contour>
			<point x="410" y="-9" type="curve"/>
			<point x="476" y="-9"/>
			<point x="524" y="32"/>
			<point x="546" y="151" type="curve"/>
			<point x="548" y="163"/>
			<point x="545" y="171"/>
			<point x="537" y="171" type="curve"/>
			<point x="530" y="171"/>
			<point x="526" y="167"/>
			<point x="524" y="160" type="curve"/>
			<point x="504" y="74"/>
			<point x="474" y="42"/>
			<point x="423" y="42" type="curve"/>
			<point x="359" y="42"/>
			<point x="313" y="113"/>
			<point x="313" y="254" type="curve"/>
			<point x="313" y="270"/>
			<point x="320" y="277"/>
			<point x="333" y="277" type="curve"/>
			<point x="523" y="277" type="line"/>
			<point x="540" y="277"/>
			<point x="548" y="289"/>
			<point x="548" y="310" type="curve"/>
			<point x="548" y="455"/>
			<point x="494" y="516"/>
			<point x="416" y="516" type="curve"/>
			<point x="317" y="516"/>
			<point x="251" y="406"/>
			<point x="251" y="249" type="curve"/>
			<point x="251" y="94"/>
			<point x="314" y="-9"/>
		</contour>
		<contour>
			<point x="330" y="302" type="line"/>
			<point x="320" y="302"/>
			<point x="314" y="308"/>
			<point x="315" y="318" type="curve"/>
			<point x="325" y="428"/>
			<point x="363" y="491"/>
			<point x="415" y="491" type="curve"/>
			<point x="457" y="491"/>
			<point x="479" y="439"/>
			<point x="479" y="352" type="curve"/>
			<point x="479" y="317"/>
			<point x="464" y="302"/>
			<point x="431" y="302" type="curve"/>
		</contour>
	</outline>
</glyph>
<glyph name="divide" format="2">
	<unicode hex="00F7"/>
	<advance width="532"/>
	<outline>
		<contour>
			<point x="70" y="354" type="curve" smooth="yes"/>
			<point x="461" y="354" type="line"/>
			<point x="467" y="354"/>
			<point x="471" y="358"/>
			<point x="471" y="364" type="curve" smooth="yes"/>
			<point x="471" y="378" type="line"/>
			<point x="471" y="384"/>
			<point x="467" y="388"/>
			<point x="461" y="388" type="curve" smooth="yes"/>
			<point x="70" y="388" type="line"/>
			<point x="64" y="388"/>
			<point x="60" y="384"/>
			<point x="60" y="378" type="curve" smooth="yes"/>
			<point x="60" y="364" type="line"/>
			<point x="60" y="358"/>
			<point x="64" y="354"/>
		</contour>
		<contour>
			<point x="266" y="485" type="curve" smooth="yes"/>
			<point x="293" y="485"/>
			<point x="318" y="506"/>
			<point x="318" y="538" type="curve" smooth="yes"/>
			<point x="318" y="568"/>
			<point x="293" y="590"/>
			<point x="266" y="590" type="curve" smooth="yes"/>
			<point x="236" y="590"/>
			<point x="213" y="568"/>
			<point x="213" y="538" type="curve" smooth="yes"/>
			<point x="213" y="506"/>
			<point x="236" y="485"/>
		</contour>
		<contour>
			<point x="266" y="153" type="curve" smooth="yes"/>
			<point x="293" y="153"/>
			<point x="318" y="174"/>
			<point x="318" y="206" type="curve" smooth="yes"/>
			<point x="318" y="236"/>
			<point x="293" y="258"/>
			<point x="266" y="258" type="curve" smooth="yes"/>
			<point x="236" y="258"/>
			<point x="213" y="236"/>
			<point x="213" y="206" type="curve" smooth="yes"/>
			<point x="213" y="174"/>
			<point x="236" y="153"/>
		</contour>
	</outline>
</glyph>
<glyph name="oslash" format="2">
  <advance width="408"/>
  <unicode hex="00F8"/>
  <anchor x="204" y="0" name="bottom"/>
  <anchor x="204" y="255" name="center"/>
  <anchor x="367" y="10" name="ogonek"/>
  <anchor x="204" y="510" name="top"/>
  <anchor x="388" y="510" name="topright"/>
  <outline>
    <contour>
      <point x="72" y="-50" type="curve" smooth="yes"/>
      <point x="79" y="-50" type="line" smooth="yes"/>
      <point x="84" y="-50"/>
      <point x="88" y="-48"/>
      <point x="90" y="-42" type="curve" smooth="yes"/>
      <point x="342" y="548" type="line" smooth="yes"/>
      <point x="345" y="555"/>
      <point x="341" y="560"/>
      <point x="334" y="560" type="curve" smooth="yes"/>
      <point x="327" y="560" type="line" smooth="yes"/>
      <point x="322" y="560"/>
      <point x="318" y="558"/>
      <point x="316" y="552" type="curve" smooth="yes"/>
      <point x="64" y="-38" type="line" smooth="yes"/>
      <point x="61" y="-45"/>
      <point x="65" y="-50"/>
    </contour>
    <component base="o"/>
  </outline>
</glyph>
<glyph name="thorn" format="2">
	<unicode hex="00FE"/>
	<advance width="444"/>
	<outline>
		<contour>
			<point x="27" y="-205" type="curve" smooth="yes"/>
			<point x="208" y="-205" type="line"/>
			<point x="218" y="-205"/>
			<point x="223" y="-201"/>
			<point x="223" y="-193" type="curve" smooth="yes"/>
			<point x="223" y="-187"/>
			<point x="219" y="-183"/>
			<point x="212" y="-182" type="curve" smooth="yes"/>
			<point x="175" y="-177" type="line"/>
			<point x="147" y="-173"/>
			<point x="141" y="-166"/>
			<point x="141" y="-138" type="curve" smooth="yes"/>
			<point x="141" y="-9" type="line"/>
			<point x="141" y="2"/>
			<point x="148" y="7"/>
			<point x="159" y="2" type="curve" smooth="yes"/>
			<point x="176" y="-6"/>
			<point x="193" y="-9"/>
			<point x="212" y="-9" type="curve" smooth="yes"/>
			<point x="329" y="-9"/>
			<point x="414" y="107"/>
			<point x="414" y="274" type="curve" smooth="yes"/>
			<point x="414" y="419"/>
			<point x="348" y="516"/>
			<point x="256" y="516" type="curve" smooth="yes"/>
			<point x="220" y="516"/>
			<point x="193" y="503"/>
			<point x="167" y="477" type="curve" smooth="yes"/>
			<point x="156" y="466" type="line"/>
			<point x="145" y="455"/>
			<point x="136" y="460"/>
			<point x="136" y="470" type="curve" smooth="yes"/>
			<point x="136" y="724" type="line"/>
			<point x="136" y="735"/>
			<point x="132" y="740"/>
			<point x="125" y="740" type="curve" smooth="yes"/>
			<point x="119" y="740"/>
			<point x="112" y="737"/>
			<point x="101" y="730" type="curve" smooth="yes"/>
			<point x="84" y="719"/>
			<point x="59" y="708"/>
			<point x="22" y="700" type="curve" smooth="yes"/>
			<point x="15" y="699"/>
			<point x="11" y="694"/>
			<point x="11" y="688" type="curve" smooth="yes"/>
			<point x="11" y="682"/>
			<point x="15" y="677"/>
			<point x="22" y="676" type="curve" smooth="yes"/>
			<point x="43" y="673" type="line"/>
			<point x="62" y="670"/>
			<point x="73" y="664"/>
			<point x="73" y="640" type="curve" smooth="yes"/>
			<point x="73" y="-138" type="line"/>
			<point x="73" y="-166"/>
			<point x="67" y="-176"/>
			<point x="39" y="-180" type="curve" smooth="yes"/>
			<point x="25" y="-182" type="line"/>
			<point x="16" y="-183"/>
			<point x="12" y="-188"/>
			<point x="12" y="-194" type="curve" smooth="yes"/>
			<point x="12" y="-201"/>
			<point x="17" y="-205"/>
		</contour>
		<contour>
			<point x="215" y="16" type="curve" smooth="yes"/>
			<point x="171" y="16"/>
			<point x="141" y="53"/>
			<point x="141" y="113" type="curve" smooth="yes"/>
			<point x="141" y="365" type="line"/>
			<point x="141" y="432"/>
			<point x="179" y="471"/>
			<point x="225" y="471" type="curve" smooth="yes"/>
			<point x="298" y="471"/>
			<point x="340" y="397"/>
			<point x="340" y="260" type="curve" smooth="yes"/>
			<point x="340" y="110"/>
			<point x="290" y="16"/>
		</contour>
	</outline>
</glyph>
<glyph name="Hbar" format="2">
	<unicode hex="0126"/>
	<advance width="546"/>
	<outline>
		<contour>
			<point x="29" y="532" type="curve"/>
			<point x="517" y="532" type="line"/>
			<point x="523" y="532"/>
			<point x="527" y="536"/>
			<point x="527" y="542" type="curve"/>
			<point x="527" y="550" type="line"/>
			<point x="527" y="556"/>
			<point x="523" y="560"/>
			<point x="517" y="560" type="curve"/>
			<point x="29" y="560" type="line"/>
			<point x="23" y="560"/>
			<point x="19" y="556"/>
			<point x="19" y="550" type="curve"/>
			<point x="19" y="542" type="line"/>
			<point x="19" y="536"/>
			<point x="23" y="532"/>
		</contour>
		<component base="H"/>
	</outline>
</glyph>
<glyph name="idotless" format="2">
	<unicode hex="0131"/>
	<advance width="224"/>
	<outline>
		<contour>
			<point x="30" y="0" type="curve" smooth="yes"/>
			<point x="197" y="0" type="line"/>
			<point x="207" y="0"/>
			<point x="212" y="4"/>
			<point x="212" y="12" type="curve" smooth="yes"/>
			<point x="212" y="18"/>
			<point x="208" y="22"/>
			<point x="201" y="23" type="curve" smooth="yes"/>
			<point x="176" y="26" type="line"/>
			<point x="153" y="29"/>
			<point x="147" y="39"/>
			<point x="147" y="67" type="curve" smooth="yes"/>
			<point x="147" y="501" type="line"/>
			<point x="147" y="509"/>
			<point x="144" y="513"/>
			<point x="138" y="513" type="curve" smooth="yes"/>
			<point x="133" y="513"/>
			<point x="129" y="510"/>
			<point x="123" y="504" type="curve" smooth="yes"/>
			<point x="99" y="482"/>
			<point x="77" y="467"/>
			<point x="36" y="461" type="curve" smooth="yes"/>
			<point x="25" y="459"/>
			<point x="20" y="456"/>
			<point x="20" y="450" type="curve" smooth="yes"/>
			<point x="20" y="444"/>
			<point x="23" y="440"/>
			<point x="33" y="439" type="curve" smooth="yes"/>
			<point x="54" y="436" type="line"/>
			<point x="73" y="433"/>
			<point x="79" y="427"/>
			<point x="79" y="403" type="curve" smooth="yes"/>
			<point x="79" y="67" type="line"/>
			<point x="79" y="39"/>
			<point x="73" y="30"/>
			<point x="40" y="25" type="curve" smooth="yes"/>
			<point x="28" y="23" type="line"/>
			<point x="19" y="21"/>
			<point x="15" y="17"/>
			<point x="15" y="11" type="curve" smooth="yes"/>
			<point x="15" y="4"/>
			<point x="20" y="0"/>
		</contour>
	</outline>
</glyph>
<glyph name="Lslash" format="2">
	<unicode hex="0141"/>
	<advance width="413"/>
	<outline>
		<contour>
			<point x="137" y="350" type="line"/>
			<point x="137" y="383" type="line"/>
			<point x="15" y="307" type="line"/>
			<point x="10" y="304"/>
			<point x="9" y="298"/>
			<point x="12" y="293" type="curve"/>
			<point x="17" y="286" type="line"/>
			<point x="20" y="281"/>
			<point x="25" y="280"/>
			<point x="30" y="283" type="curve"/>
		</contour>
		<contour>
			<point x="137" y="386" type="line"/>
			<point x="137" y="353" type="line"/>
			<point x="264" y="432" type="line"/>
			<point x="269" y="435"/>
			<point x="270" y="441"/>
			<point x="267" y="446" type="curve"/>
			<point x="262" y="453" type="line"/>
			<point x="259" y="458"/>
			<point x="254" y="459"/>
			<point x="249" y="456" type="curve"/>
		</contour>
		<component base="L"/>
	</outline>
</glyph>
<glyph name="eng" format="2">
	<unicode hex="014B"/>
	<advance width="460"/>
	<outline>
		<contour>
			<point x="249" y="-215" type="curve"/>
			<point x="336" y="-215"/>
			<point x="392" y="-116"/>
			<point x="392" y="44" type="curve"/>
			<point x="392" y="392" type="line"/>
			<point x="392" y="473"/>
			<point x="353" y="516"/>
			<point x="293" y="516" type="curve"/>
			<point x="248" y="516"/>
			<point x="211" y="501"/>
			<point x="158" y="450" type="curve"/>
			<point x="147" y="439"/>
			<point x="137" y="444"/>
			<point x="137" y="456" type="curve"/>
			<point x="137" y="501" type="line"/>
			<point x="137" y="509"/>
			<point x="134" y="513"/>
			<point x="128" y="513" type="curve"/>
			<point x="123" y="513"/>
			<point x="119" y="510"/>
			<point x="113" y="504" type="curve"/>
			<point x="89" y="482"/>
			<point x="72" y="467"/>
			<point x="31" y="461" type="curve"/>
			<point x="20" y="459"/>
			<point x="15" y="456"/>
			<point x="15" y="450" type="curve"/>
			<point x="15" y="444"/>
			<point x="18" y="440"/>
			<point x="28" y="439" type="curve"/>
			<point x="49" y="436" type="line"/>
			<point x="68" y="433"/>
			<point x="74" y="427"/>
			<point x="74" y="403" type="curve"/>
			<point x="74" y="67" type="line"/>
			<point x="74" y="39"/>
			<point x="68" y="30"/>
			<point x="40" y="25" type="curve"/>
			<point x="28" y="23" type="line"/>
			<point x="19" y="21"/>
			<point x="15" y="17"/>
			<point x="15" y="11" type="curve"/>
			<point x="15" y="4"/>
			<point x="20" y="0"/>
			<point x="30" y="0" type="curve"/>
			<point x="199" y="0" type="line"/>
			<point x="209" y="0"/>
			<point x="214" y="4"/>
			<point x="214" y="12" type="curve"/>
			<point x="214" y="18"/>
			<point x="210" y="22"/>
			<point x="203" y="23" type="curve"/>
			<point x="176" y="26" type="line"/>
			<point x="148" y="29"/>
			<point x="142" y="39"/>
			<point x="142" y="67" type="curve"/>
			<point x="142" y="335" type="line"/>
			<point x="142" y="408"/>
			<point x="191" y="470"/>
			<point x="255" y="470" type="curve"/>
			<point x="299" y="470"/>
			<point x="324" y="446"/>
			<point x="324" y="381" type="curve"/>
			<point x="324" y="-91" type="line"/>
			<point x="324" y="-144"/>
			<point x="310" y="-175"/>
			<point x="285" y="-175" type="curve"/>
			<point x="249" y="-175"/>
			<point x="263" y="-119"/>
			<point x="221" y="-119" type="curve"/>
			<point x="197" y="-119"/>
			<point x="182" y="-138"/>
			<point x="182" y="-161" type="curve"/>
			<point x="182" y="-193"/>
			<point x="210" y="-215"/>
		</contour>
	</outline>
</glyph>
<glyph name="oe" format="2">
	<unicode hex="0153"/>
	<advance width="639"/>
	<outline>
		<contour>
			<point x="203" y="-9" type="curve"/>
			<point x="305" y="-9"/>
			<point x="373" y="105"/>
			<point x="373" y="254" type="curve"/>
			<point x="373" y="401"/>
			<point x="304" y="516"/>
			<point x="203" y="516" type="curve"/>
			<point x="102" y="516"/>
			<point x="23" y="401"/>
			<point x="23" y="254" type="curve"/>
			<point x="23" y="105"/>
			<point x="101" y="-9"/>
		</contour>
		<contour>
			<point x="203" y="16" type="curve"/>
			<point x="132" y="16"/>
			<point x="99" y="95"/>
			<point x="99" y="254" type="curve"/>
			<point x="99" y="411"/>
			<point x="133" y="491"/>
			<point x="203" y="491" type="curve"/>
			<point x="273" y="491"/>
			<point x="307" y="411"/>
			<point x="307" y="254" type="curve"/>
			<point x="307" y="95"/>
			<point x="274" y="16"/>
		</contour>
		<contour>
			<point x="476" y="-9" type="curve"/>
			<point x="542" y="-9"/>
			<point x="590" y="32"/>
			<point x="612" y="151" type="curve"/>
			<point x="614" y="163"/>
			<point x="611" y="171"/>
			<point x="603" y="171" type="curve"/>
			<point x="596" y="171"/>
			<point x="592" y="167"/>
			<point x="590" y="160" type="curve"/>
			<point x="570" y="74"/>
			<point x="540" y="42"/>
			<point x="489" y="42" type="curve"/>
			<point x="425" y="42"/>
			<point x="379" y="113"/>
			<point x="379" y="254" type="curve"/>
			<point x="379" y="270"/>
			<point x="386" y="277"/>
			<point x="399" y="277" type="curve"/>
			<point x="589" y="277" type="line"/>
			<point x="606" y="277"/>
			<point x="614" y="289"/>
			<point x="614" y="310" type="curve"/>
			<point x="614" y="455"/>
			<point x="560" y="516"/>
			<point x="482" y="516" type="curve"/>
			<point x="383" y="516"/>
			<point x="307" y="406"/>
			<point x="307" y="249" type="curve"/>
			<point x="307" y="94"/>
			<point x="380" y="-9"/>
		</contour>
		<contour>
			<point x="396" y="302" type="line"/>
			<point x="386" y="302"/>
			<point x="380" y="308"/>
			<point x="381" y="318" type="curve"/>
			<point x="391" y="428"/>
			<point x="429" y="491"/>
			<point x="481" y="491" type="curve"/>
			<point x="523" y="491"/>
			<point x="545" y="439"/>
			<point x="545" y="352" type="curve"/>
			<point x="545" y="317"/>
			<point x="530" y="302"/>
			<point x="497" y="302" type="curve"/>
		</contour>
	</outline>
</glyph>
<glyph name="acutecomb" format="2">
	<unicode hex="0301"/>
	<outline>
		<contour>
			<point x="85" y="586" type="curve"/>
			<point x="263" y="667" type="line"/>
			<point x="287" y="678"/>
			<point x="294" y="689"/>
			<point x="294" y="707" type="curve"/>
			<point x="294" y="723"/>
			<point x="280" y="740"/>
			<point x="256" y="740" type="curve"/>
			<point x="239" y="740"/>
			<point x="228" y="734"/>
			<point x="215" y="724" type="curve"/>
			<point x="71" y="612" type="line"/>
			<point x="61" y="605"/>
			<point x="58" y="596"/>
			<point x="62" y="590" type="curve"/>
			<point x="66" y="583"/>
			<point x="73" y="581"/>
		</contour>
	</outline>
</glyph>
<glyph name="tildecomb" format="2">
	<unicode hex="0303"/>
	<outline>
		<contour>
			<point x="289" y="597" type="curve"/>
			<point x="220" y="597"/>
			<point x="204" y="662"/>
			<point x="149" y="662" type="curve"/>
			<point x="116" y="662"/>
			<point x="99" y="646"/>
			<point x="87" y="611" type="curve"/>
			<point x="84" y="603"/>
			<point x="80" y="599"/>
			<point x="73" y="599" type="curve"/>
			<point x="66" y="599"/>
			<point x="61" y="605"/>
			<point x="63" y="614" type="curve"/>
			<point x="76" y="682"/>
			<point x="113" y="718"/>
			<point x="163" y="718" type="curve"/>
			<point x="229" y="718"/>
			<point x="251" y="653"/>
			<point x="303" y="653" type="curve"/>
			<point x="336" y="653"/>
			<point x="353" y="669"/>
			<point x="365" y="704" type="curve"/>
			<point x="368" y="712"/>
			<point x="372" y="716"/>
			<point x="379" y="716" type="curve"/>
			<point x="387" y="716"/>
			<point x="391" y="710"/>
			<point x="389" y="701" type="curve"/>
			<point x="376" y="633"/>
			<point x="339" y="597"/>
		</contour>
	</outline>
</glyph>
<glyph name="macroncomb" format="2">
  <unicode hex="0304"/>
  <anchor x="206" y="510" name="_top"/>
  <anchor x="206" y="675" name="top"/>
  <outline>
    <contour>
      <point x="72" y="636" type="curve" smooth="yes"/>
      <point x="339" y="636" type="line" smooth="yes"/>
      <point x="346" y="636"/>
      <point x="351" y="641"/>
      <point x="351" y="648" type="curve" smooth="yes"/>
      <point x="351" y="663" type="line" smooth="yes"/>
      <point x="351" y="670"/>
      <point x="346" y="675"/>
      <point x="339" y="675" type="curve" smooth="yes"/>
      <point x="72" y="675" type="line" smooth="yes"/>
      <point x="65" y="675"/>
      <point x="60" y="670"/>
      <point x="60" y="663" type="curve" smooth="yes"/>
      <point x="60" y="648" type="line" smooth="yes"/>
      <point x="60" y="641"/>
      <point x="65" y="636"/>
    </contour>
  </outline>
</glyph>
<glyph name="dotaccentcomb" format="2">
	<unicode hex="0307"/>
	<outline>
		<contour>
			<point x="110" y="605" type="curve"/>
			<point x="138" y="605"/>
			<point x="159" y="627"/>
			<point x="159" y="658" type="curve"/>
			<point x="159" y="689"/>
			<point x="138" y="710"/>
			<point x="110" y="710" type="curve"/>
			<point x="82" y="710"/>
			<point x="60" y="689"/>
			<point x="60" y="658" type="curve"/>
			<point x="60" y="627"/>
			<point x="82" y="605"/>
		</contour>
	</outline>
</glyph>
<glyph name="dieresiscomb" format="2">
  <unicode hex="0308"/>
  <anchor x="205" y="510" name="_top"/>
  <anchor x="205" y="706" name="top"/>
  <outline>
    <contour>
      <point x="110" y="605" type="curve" smooth="yes"/>
      <point x="138" y="605"/>
      <point x="159" y="627"/>
      <point x="159" y="656" type="curve" smooth="yes"/>
      <point x="159" y="685"/>
      <point x="138" y="706"/>
      <point x="110" y="706" type="curve" smooth="yes"/>
      <point x="82" y="706"/>
      <point x="60" y="685"/>
      <point x="60" y="656" type="curve" smooth="yes"/>
      <point x="60" y="627"/>
      <point x="82" y="605"/>
    </contour>
    <contour>
      <point x="300" y="605" type="curve" smooth="yes"/>
      <point x="328" y="605"/>
      <point x="349" y="627"/>
      <point x="349" y="656" type="curve" smooth="yes"/>
      <point x="349" y="685"/>
      <point x="328" y="706"/>
      <point x="300" y="706" type="curve" smooth="yes"/>
      <point x="272" y="706"/>
      <point x="250" y="685"/>
      <point x="250" y="656" type="curve" smooth="yes"/>
      <point x="250" y="627"/>
      <point x="272" y="605"/>
    </contour>
  </outline>
</glyph>
<glyph name="caroncomb" format="2">
	<unicode hex="030C"/>
	<outline>
		<contour>
			<point x="207" y="583" type="curve"/>
			<point x="226" y="583" type="line"/>
			<point x="236" y="583"/>
			<point x="244" y="587"/>
			<point x="251" y="594" type="curve"/>
			<point x="367" y="716" type="line"/>
			<point x="374" y="724"/>
			<point x="374" y="730"/>
			<point x="370" y="735" type="curve"/>
			<point x="366" y="741"/>
			<point x="358" y="741"/>
			<point x="350" y="736" type="curve"/>
			<point x="191" y="629" type="line"/>
			<point x="243" y="628" type="line"/>
			<point x="83" y="737" type="line"/>
			<point x="75" y="742"/>
			<point x="67" y="740"/>
			<point x="63" y="735" type="curve"/>
			<point x="59" y="730"/>
			<point x="59" y="724"/>
			<point x="66" y="716" type="curve"/>
			<point x="182" y="594" type="line"/>
			<point x="189" y="587"/>
			<point x="197" y="583"/>
		</contour>
	</outline>
</glyph>
<glyph name="commaturnedabovecomb" format="2">
	<unicode hex="0312"/>
	<outline>
		<contour>
			<point x="114" y="576" type="curve" smooth="yes"/>
			<point x="142" y="576"/>
			<point x="162" y="596"/>
			<point x="162" y="623" type="curve" smooth="yes"/>
			<point x="162" y="670"/>
			<point x="112" y="664"/>
			<point x="112" y="707" type="curve" smooth="yes"/>
			<point x="112" y="733"/>
			<point x="124" y="754"/>
			<point x="163" y="793" type="curve" smooth="yes"/>
			<point x="171" y="801"/>
			<point x="171" y="808"/>
			<point x="166" y="812" type="curve" smooth="yes"/>
			<point x="161" y="816"/>
			<point x="153" y="814"/>
			<point x="146" y="808" type="curve" smooth="yes"/>
			<point x="86" y="758"/>
			<point x="60" y="713"/>
			<point x="60" y="648" type="curve" smooth="yes"/>
			<point x="60" y="607"/>
			<point x="81" y="576"/>
		</contour>
	</outline>
</glyph>
<glyph name="Germandbls" format="2">
	<unicode hex="1E9E"/>
	<advance width="528"/>
	<outline>
		<contour>
			<point x="341" y="-9" type="curve" smooth="yes"/>
			<point x="421" y="-9"/>
			<point x="499" y="47"/>
			<point x="499" y="169" type="curve" smooth="yes"/>
			<point x="499" y="254"/>
			<point x="435" y="345"/>
			<point x="340" y="425" type="curve" smooth="yes"/>
			<point x="330" y="391" type="line"/>
			<point x="496" y="627" type="line"/>
			<point x="447" y="698"/>
			<point x="399" y="730"/>
			<point x="303" y="730" type="curve" smooth="yes"/>
			<point x="182" y="730"/>
			<point x="89" y="643"/>
			<point x="89" y="495" type="curve" smooth="yes"/>
			<point x="89" y="66" type="line"/>
			<point x="89" y="38"/>
			<point x="83" y="32"/>
			<point x="55" y="27" type="curve" smooth="yes"/>
			<point x="32" y="23" type="line"/>
			<point x="23" y="21"/>
			<point x="19" y="17"/>
			<point x="19" y="11" type="curve" smooth="yes"/>
			<point x="19" y="4"/>
			<point x="24" y="0"/>
			<point x="34" y="0" type="curve" smooth="yes"/>
			<point x="136" y="0" type="line"/>
			<point x="151" y="0"/>
			<point x="160" y="9"/>
			<point x="160" y="24" type="curve" smooth="yes"/>
			<point x="160" y="511" type="line"/>
			<point x="160" y="655"/>
			<point x="225" y="701"/>
			<point x="303" y="701" type="curve" smooth="yes"/>
			<point x="364" y="701"/>
			<point x="414" y="664"/>
			<point x="440" y="590" type="curve" smooth="yes"/>
			<point x="455" y="629" type="line"/>
			<point x="280" y="381" type="line"/>
			<point x="295" y="370" type="line"/>
			<point x="382" y="306"/>
			<point x="436" y="217"/>
			<point x="436" y="139" type="curve" smooth="yes"/>
			<point x="436" y="38"/>
			<point x="389" y="20"/>
			<point x="352" y="20" type="curve" smooth="yes"/>
			<point x="307" y="20"/>
			<point x="270" y="64"/>
			<point x="257" y="133" type="curve" smooth="yes"/>
			<point x="246" y="191" type="line"/>
			<point x="244" y="204"/>
			<point x="238" y="209"/>
			<point x="230" y="209" type="curve" smooth="yes"/>
			<point x="221" y="209"/>
			<point x="217" y="202"/>
			<point x="217" y="189" type="curve" smooth="yes"/>
			<point x="217" y="42" type="line"/>
			<point x="217" y="27"/>
			<point x="222" y="23"/>
			<point x="231" y="18" type="curve" smooth="yes"/>
			<point x="255" y="4"/>
			<point x="300" y="-9"/>
		</contour>
	</outline>
</glyph>
<glyph name="quoteleft" format="2">
	<unicode hex="2018"/>
	<advance width="166"/>
	<outline>
		<contour>
			<point x="78" y="562" type="curve" smooth="yes"/>
			<point x="108" y="562"/>
			<point x="126" y="582"/>
			<point x="126" y="606" type="curve" smooth="yes"/>
			<point x="126" y="653"/>
			<point x="74" y="644"/>
			<point x="74" y="692" type="curve" smooth="yes"/>
			<point x="74" y="715"/>
			<point x="82" y="730"/>
			<point x="127" y="769" type="curve" smooth="yes"/>
			<point x="136" y="776"/>
			<point x="135" y="784"/>
			<point x="130" y="788" type="curve" smooth="yes"/>
			<point x="125" y="792"/>
			<point x="119" y="790"/>
			<point x="111" y="784" type="curve" smooth="yes"/>
			<point x="49" y="740"/>
			<point x="24" y="690"/>
			<point x="24" y="629" type="curve" smooth="yes"/>
			<point x="24" y="588"/>
			<point x="45" y="562"/>
		</contour>
	</outline>
</glyph>
<glyph name="perthousand" format="2">
	<unicode hex="2030"/>
	<advance width="784"/>
	<outline>
		<contour>
			<point x="154" y="381" type="curve"/>
			<point x="227" y="381"/>
			<point x="278" y="458"/>
			<point x="278" y="556" type="curve"/>
			<point x="278" y="654"/>
			<point x="227" y="730"/>
			<point x="154" y="730" type="curve"/>
			<point x="79" y="730"/>
			<point x="30" y="654"/>
			<point x="30" y="556" type="curve"/>
			<point x="30" y="458"/>
			<point x="79" y="381"/>
		</contour>
		<contour>
			<point x="154" y="401" type="curve"/>
			<point x="113" y="401"/>
			<point x="85" y="441"/>
			<point x="85" y="556" type="curve"/>
			<point x="85" y="670"/>
			<point x="113" y="710"/>
			<point x="154" y="710" type="curve"/>
			<point x="195" y="710"/>
			<point x="223" y="670"/>
			<point x="223" y="556" type="curve"/>
			<point x="223" y="441"/>
			<point x="195" y="401"/>
		</contour>
		<contour>
			<point x="77" y="0" type="curve"/>
			<point x="88" y="0" type="line"/>
			<point x="94" y="0"/>
			<point x="99" y="2"/>
			<point x="102" y="8" type="curve"/>
			<point x="521" y="706" type="line"/>
			<point x="526" y="715"/>
			<point x="522" y="720"/>
			<point x="513" y="720" type="curve"/>
			<point x="502" y="720" type="line"/>
			<point x="496" y="720"/>
			<point x="491" y="718"/>
			<point x="488" y="712" type="curve"/>
			<point x="69" y="14" type="line"/>
			<point x="64" y="5"/>
			<point x="68" y="0"/>
		</contour>
		<contour>
			<point x="436" y="-10" type="curve"/>
			<point x="509" y="-10"/>
			<point x="550" y="67"/>
			<point x="550" y="165" type="curve"/>
			<point x="550" y="263"/>
			<point x="509" y="339"/>
			<point x="436" y="339" type="curve"/>
			<point x="361" y="339"/>
			<point x="312" y="263"/>
			<point x="312" y="165" type="curve"/>
			<point x="312" y="67"/>
			<point x="361" y="-10"/>
		</contour>
		<contour>
			<point x="436" y="10" type="curve"/>
			<point x="395" y="10"/>
			<point x="367" y="50"/>
			<point x="367" y="165" type="curve"/>
			<point x="367" y="279"/>
			<point x="395" y="319"/>
			<point x="436" y="319" type="curve"/>
			<point x="477" y="319"/>
			<point x="505" y="279"/>
			<point x="505" y="165" type="curve"/>
			<point x="505" y="50"/>
			<point x="477" y="10"/>
		</contour>
		<contour>
			<point x="620" y="-10" type="curve"/>
			<point x="693" y="-10"/>
			<point x="744" y="67"/>
			<point x="744" y="165" type="curve"/>
			<point x="744" y="263"/>
			<point x="693" y="339"/>
			<point x="620" y="339" type="curve"/>
			<point x="545" y="339"/>
			<point x="506" y="263"/>
			<point x="506" y="165" type="curve"/>
			<point x="506" y="67"/>
			<point x="545" y="-10"/>
		</contour>
		<contour>
			<point x="620" y="10" type="curve"/>
			<point x="579" y="10"/>
			<point x="550" y="50"/>
			<point x="550" y="165" type="curve"/>
			<point x="550" y="279"/>
			<point x="579" y="319"/>
			<point x="620" y="319" type="curve"/>
			<point x="661" y="319"/>
			<point x="689" y="279"/>
			<point x="689" y="165" type="curve"/>
			<point x="689" y="50"/>
			<point x="661" y="10"/>
		</contour>
	</outline>
</glyph>
<glyph name="guilsinglleft" format="2">
	<unicode hex="2039"/>
	<advance width="262"/>
	<outline>
		<contour>
			<point x="161" y="93" type="line"/>
			<point x="169" y="81"/>
			<point x="174" y="78"/>
			<point x="180" y="78" type="curve" smooth="yes"/>
			<point x="190" y="78"/>
			<point x="192" y="87"/>
			<point x="189" y="93" type="curve" smooth="yes"/>
			<point x="120" y="242" type="line"/>
			<point x="117" y="248"/>
			<point x="117" y="254"/>
			<point x="120" y="260" type="curve" smooth="yes"/>
			<point x="189" y="409" type="line"/>
			<point x="192" y="415"/>
			<point x="190" y="424"/>
			<point x="180" y="424" type="curve" smooth="yes"/>
			<point x="174" y="424"/>
			<point x="169" y="421"/>
			<point x="161" y="409" type="curve" smooth="yes"/>
			<point x="60" y="268" type="line"/>
			<point x="52" y="256"/>
			<point x="52" y="246"/>
			<point x="60" y="234" type="curve" smooth="yes"/>
		</contour>
	</outline>
</glyph>
<glyph name="euro" format="2">
  <advance width="495"/>
  <unicode hex="20AC"/>
  <guideline x="394" y="421" angle="77.9052"/>
  <outline>
    <contour>
      <point x="311" y="-9" type="curve" smooth="yes"/>
      <point x="365" y="-9"/>
      <point x="406" y="2"/>
      <point x="438" y="18" type="curve" smooth="yes"/>
      <point x="447" y="23"/>
      <point x="451" y="28"/>
      <point x="451" y="39" type="curve" smooth="yes"/>
      <point x="455" y="201" type="line" smooth="yes"/>
      <point x="455" y="212"/>
      <point x="451" y="217"/>
      <point x="444" y="218" type="curve" smooth="yes"/>
      <point x="436" y="219"/>
      <point x="430" y="214"/>
      <point x="428" y="205" type="curve" smooth="yes"/>
      <point x="416" y="156" type="line" smooth="yes"/>
      <point x="390" y="51"/>
      <point x="367" y="20"/>
      <point x="309" y="20" type="curve" smooth="yes"/>
      <point x="236" y="20"/>
      <point x="163" y="139"/>
      <point x="163" y="364" type="curve" smooth="yes"/>
      <point x="163" y="582"/>
      <point x="226" y="701"/>
      <point x="308" y="701" type="curve" smooth="yes"/>
      <point x="356" y="701"/>
      <point x="382" y="665"/>
      <point x="410" y="563" type="curve" smooth="yes"/>
      <point x="420" y="526" type="line" smooth="yes"/>
      <point x="422" y="517"/>
      <point x="426" y="513"/>
      <point x="434" y="513" type="curve" smooth="yes"/>
      <point x="442" y="513"/>
      <point x="446" y="519"/>
      <point x="446" y="530" type="curve" smooth="yes"/>
      <point x="443" y="682" type="line" smooth="yes"/>
      <point x="443" y="693"/>
      <point x="440" y="698"/>
      <point x="431" y="703" type="curve" smooth="yes"/>
      <point x="399" y="719"/>
      <point x="358" y="730"/>
      <point x="314" y="730" type="curve" smooth="yes"/>
      <point x="188" y="730"/>
      <point x="85" y="584"/>
      <point x="85" y="364" type="curve" smooth="yes"/>
      <point x="85" y="137"/>
      <point x="176" y="-9"/>
    </contour>
    <contour>
      <point x="18" y="404" type="curve" smooth="yes"/>
      <point x="330" y="404" type="line" smooth="yes"/>
      <point x="336" y="404"/>
      <point x="341" y="408"/>
      <point x="342" y="414" type="curve" smooth="yes"/>
      <point x="345" y="428" type="line" smooth="yes"/>
      <point x="346" y="434"/>
      <point x="344" y="438"/>
      <point x="338" y="438" type="curve" smooth="yes"/>
      <point x="26" y="438" type="line" smooth="yes"/>
      <point x="20" y="438"/>
      <point x="14" y="434"/>
      <point x="13" y="428" type="curve" smooth="yes"/>
      <point x="10" y="414" type="line" smooth="yes"/>
      <point x="9" y="408"/>
      <point x="12" y="404"/>
    </contour>
    <contour>
      <point x="18" y="284" type="curve" smooth="yes"/>
      <point x="305" y="284" type="line" smooth="yes"/>
      <point x="311" y="284"/>
      <point x="316" y="288"/>
      <point x="317" y="294" type="curve" smooth="yes"/>
      <point x="320" y="308" type="line" smooth="yes"/>
      <point x="321" y="314"/>
      <point x="319" y="318"/>
      <point x="313" y="318" type="curve" smooth="yes"/>
      <point x="26" y="318" type="line" smooth="yes"/>
      <point x="20" y="318"/>
      <point x="14" y="314"/>
      <point x="13" y="308" type="curve" smooth="yes"/>
      <point x="10" y="294" type="line" smooth="yes"/>
      <point x="9" y="288"/>
      <point x="12" y="284"/>
    </contour>
  </outline>
</glyph>
<glyph name=".notdef" format="2">
	<advance width="602"/>
	<outline>
		<contour>
			<point x="118" y="-130" type="curve"/>
			<point x="484" y="-130" type="line"/>
			<point x="489" y="-130"/>
			<point x="492" y="-127"/>
			<point x="492" y="-122" type="curve"/>
			<point x="492" y="782" type="line"/>
			<point x="492" y="787"/>
			<point x="489" y="790"/>
			<point x="484" y="790" type="curve"/>
			<point x="118" y="790" type="line"/>
			<point x="113" y="790"/>
			<point x="110" y="787"/>
			<point x="110" y="782" type="curve"/>
			<point x="110" y="-122" type="line"/>
			<point x="110" y="-127"/>
			<point x="113" y="-130"/>
		</contour>
		<contour>
			<point x="142" y="-98" type="line"/>
			<point x="142" y="758" type="line"/>
			<point x="460" y="758" type="line"/>
			<point x="460" y="-98" type="line"/>
		</contour>
	</outline>
</glyph>
<glyph name="c.ss01" format="2">
	<advance width="340"/>
	<outline>
		<contour>
			<point x="185" y="-9" type="curve" smooth="yes"/>
			<point x="257" y="-9"/>
			<point x="298" y="38"/>
			<point x="316" y="114" type="curve" smooth="yes"/>
			<point x="318" y="122"/>
			<point x="316" y="130"/>
			<point x="308" y="130" type="curve" smooth="yes"/>
			<point x="302" y="130"/>
			<point x="298" y="126"/>
			<point x="296" y="119" type="curve" smooth="yes"/>
			<point x="278" y="64"/>
			<point x="245" y="37"/>
			<point x="204" y="37" type="curve" smooth="yes"/>
			<point x="137" y="37"/>
			<point x="97" y="114"/>
			<point x="97" y="257" type="curve" smooth="yes"/>
			<point x="97" y="425"/>
			<point x="149" y="490"/>
			<point x="189" y="490" type="curve" smooth="yes"/>
			<point x="223" y="490"/>
			<point x="246" y="462"/>
			<point x="274" y="352" type="curve" smooth="yes"/>
			<point x="276" y="343"/>
			<point x="281" y="339"/>
			<point x="288" y="339" type="curve" smooth="yes"/>
			<point x="294" y="339"/>
			<point x="300" y="344"/>
			<point x="300" y="354" type="curve" smooth="yes"/>
			<point x="298" y="476" type="line"/>
			<point x="298" y="487"/>
			<point x="295" y="493"/>
			<point x="288" y="498" type="curve" smooth="yes"/>
			<point x="269" y="511"/>
			<point x="248" y="516"/>
			<point x="216" y="516" type="curve" smooth="yes"/>
			<point x="107" y="516"/>
			<point x="23" y="406"/>
			<point x="23" y="236" type="curve" smooth="yes"/>
			<point x="23" y="84"/>
			<point x="92" y="-9"/>
		</contour>
	</outline>
</glyph>
<glyph name="dcroat.ss01" format="2">
	<advance width="457"/>
	<outline>
		<contour>
			<point x="152" y="578" type="curve"/>
			<point x="427" y="578" type="line"/>
			<point x="433" y="578"/>
			<point x="437" y="582"/>
			<point x="437" y="588" type="curve"/>
			<point x="437" y="596" type="line"/>
			<point x="437" y="602"/>
			<point x="433" y="606"/>
			<point x="427" y="606" type="curve"/>
			<point x="152" y="606" type="line"/>
			<point x="146" y="606"/>
			<point x="142" y="602"/>
			<point x="142" y="596" type="curve"/>
			<point x="142" y="588" type="line"/>
			<point x="142" y="582"/>
			<point x="146" y="578"/>
		</contour>
		<component base="d.ss01"/>
	</outline>
</glyph>
<glyph name="e.ss01" format="2">
	<advance width="355"/>
	<outline>
		<contour>
			<point x="195" y="-9" type="curve"/>
			<point x="270" y="-9"/>
			<point x="309" y="38"/>
			<point x="327" y="104" type="curve"/>
			<point x="329" y="112"/>
			<point x="327" y="120"/>
			<point x="319" y="120" type="curve"/>
			<point x="313" y="120"/>
			<point x="309" y="116"/>
			<point x="306" y="109" type="curve"/>
			<point x="289" y="64"/>
			<point x="260" y="37"/>
			<point x="213" y="37" type="curve"/>
			<point x="138" y="37"/>
			<point x="95" y="113"/>
			<point x="95" y="254" type="curve"/>
			<point x="95" y="270"/>
			<point x="102" y="277"/>
			<point x="115" y="277" type="curve"/>
			<point x="305" y="277" type="line"/>
			<point x="322" y="277"/>
			<point x="330" y="289"/>
			<point x="330" y="310" type="curve"/>
			<point x="330" y="455"/>
			<point x="276" y="516"/>
			<point x="198" y="516" type="curve"/>
			<point x="99" y="516"/>
			<point x="23" y="406"/>
			<point x="23" y="249" type="curve"/>
			<point x="23" y="94"/>
			<point x="96" y="-9"/>
		</contour>
		<contour>
			<point x="112" y="302" type="line"/>
			<point x="102" y="302"/>
			<point x="96" y="308"/>
			<point x="97" y="318" type="curve"/>
			<point x="107" y="428"/>
			<point x="145" y="491"/>
			<point x="197" y="491" type="curve"/>
			<point x="239" y="491"/>
			<point x="261" y="439"/>
			<point x="261" y="352" type="curve"/>
			<point x="261" y="317"/>
			<point x="246" y="302"/>
			<point x="213" y="302" type="curve"/>
		</contour>
	</outline>
</glyph>
<glyph name="f_b" format="2">
	<advance width="716"/>
	<outline>
		<contour>
			<point x="335" y="-9" type="curve"/>
			<point x="341" y="-9"/>
			<point x="347" y="-6"/>
			<point x="360" y="9" type="curve"/>
			<point x="372" y="25"/>
			<point x="384" y="28"/>
			<point x="400" y="17" type="curve"/>
			<point x="426" y="-1"/>
			<point x="451" y="-9"/>
			<point x="479" y="-9" type="curve"/>
			<point x="591" y="-9"/>
			<point x="676" y="107"/>
			<point x="676" y="274" type="curve"/>
			<point x="676" y="419"/>
			<point x="610" y="516"/>
			<point x="518" y="516" type="curve"/>
			<point x="482" y="516"/>
			<point x="453" y="502"/>
			<point x="424" y="472" type="curve"/>
			<point x="413" y="461"/>
			<point x="403" y="466"/>
			<point x="403" y="477" type="curve"/>
			<point x="403" y="724" type="line"/>
			<point x="403" y="735"/>
			<point x="399" y="743"/>
			<point x="390" y="743" type="curve"/>
			<point x="378" y="743"/>
			<point x="374" y="736"/>
			<point x="366" y="712" type="curve"/>
			<point x="363" y="703"/>
			<point x="355" y="702"/>
			<point x="349" y="709" type="curve"/>
			<point x="325" y="734"/>
			<point x="294" y="748"/>
			<point x="256" y="748" type="curve"/>
			<point x="147" y="748"/>
			<point x="85" y="654"/>
			<point x="85" y="550" type="curve"/>
			<point x="85" y="544" type="line"/>
			<point x="85" y="521"/>
			<point x="69" y="506"/>
			<point x="38" y="503" type="curve"/>
			<point x="30" y="502"/>
			<point x="26" y="498"/>
			<point x="26" y="492" type="curve"/>
			<point x="26" y="486"/>
			<point x="31" y="482"/>
			<point x="38" y="482" type="curve"/>
			<point x="61" y="482" type="line"/>
			<point x="76" y="482"/>
			<point x="85" y="473"/>
			<point x="85" y="458" type="curve"/>
			<point x="85" y="67" type="line"/>
			<point x="85" y="39"/>
			<point x="79" y="28"/>
			<point x="46" y="25" type="curve"/>
			<point x="26" y="23" type="line"/>
			<point x="17" y="22"/>
			<point x="13" y="17"/>
			<point x="13" y="11" type="curve"/>
			<point x="13" y="4"/>
			<point x="18" y="0"/>
			<point x="28" y="0" type="curve"/>
			<point x="203" y="0" type="line"/>
			<point x="213" y="0"/>
			<point x="218" y="4"/>
			<point x="218" y="12" type="curve"/>
			<point x="218" y="18"/>
			<point x="214" y="22"/>
			<point x="207" y="23" type="curve"/>
			<point x="182" y="26" type="line"/>
			<point x="159" y="29"/>
			<point x="153" y="39"/>
			<point x="153" y="67" type="curve"/>
			<point x="153" y="470" type="line"/>
			<point x="153" y="477"/>
			<point x="158" y="482"/>
			<point x="165" y="482" type="curve"/>
			<point x="251" y="482" type="line"/>
			<point x="259" y="482"/>
			<point x="266" y="487"/>
			<point x="266" y="496" type="curve"/>
			<point x="266" y="505"/>
			<point x="259" y="510"/>
			<point x="251" y="510" type="curve"/>
			<point x="165" y="510" type="line"/>
			<point x="158" y="510"/>
			<point x="153" y="515"/>
			<point x="153" y="522" type="curve"/>
			<point x="153" y="590" type="line"/>
			<point x="153" y="692"/>
			<point x="198" y="723"/>
			<point x="248" y="723" type="curve"/>
			<point x="313" y="723"/>
			<point x="335" y="671"/>
			<point x="335" y="606" type="curve"/>
			<point x="335" y="160" type="line"/>
			<point x="335" y="80"/>
			<point x="332" y="35"/>
			<point x="327" y="5" type="curve"/>
			<point x="325" y="-4"/>
			<point x="328" y="-9"/>
		</contour>
		<contour>
			<point x="477" y="16" type="curve"/>
			<point x="433" y="16"/>
			<point x="403" y="53"/>
			<point x="403" y="113" type="curve"/>
			<point x="403" y="365" type="line"/>
			<point x="403" y="432"/>
			<point x="441" y="471"/>
			<point x="487" y="471" type="curve"/>
			<point x="560" y="471"/>
			<point x="602" y="397"/>
			<point x="602" y="260" type="curve"/>
			<point x="602" y="110"/>
			<point x="552" y="16"/>
		</contour>
	</outline>
</glyph>
<glyph name="f_h" format="2">
	<advance width="732"/>
	<outline>
		<contour>
			<point x="28" y="0" type="curve" smooth="yes"/>
			<point x="203" y="0" type="line"/>
			<point x="213" y="0"/>
			<point x="218" y="4"/>
			<point x="218" y="12" type="curve" smooth="yes"/>
			<point x="218" y="18"/>
			<point x="214" y="22"/>
			<point x="207" y="23" type="curve" smooth="yes"/>
			<point x="182" y="26" type="line"/>
			<point x="159" y="29"/>
			<point x="153" y="39"/>
			<point x="153" y="67" type="curve" smooth="yes"/>
			<point x="153" y="470" type="line"/>
			<point x="153" y="477"/>
			<point x="158" y="482"/>
			<point x="165" y="482" type="curve" smooth="yes"/>
			<point x="251" y="482" type="line"/>
			<point x="259" y="482"/>
			<point x="266" y="487"/>
			<point x="266" y="496" type="curve" smooth="yes"/>
			<point x="266" y="505"/>
			<point x="259" y="510"/>
			<point x="251" y="510" type="curve" smooth="yes"/>
			<point x="165" y="510" type="line"/>
			<point x="158" y="510"/>
			<point x="153" y="515"/>
			<point x="153" y="522" type="curve" smooth="yes"/>
			<point x="153" y="590" type="line"/>
			<point x="153" y="692"/>
			<point x="198" y="723"/>
			<point x="248" y="723" type="curve" smooth="yes"/>
			<point x="313" y="723"/>
			<point x="335" y="671"/>
			<point x="335" y="606" type="curve" smooth="yes"/>
			<point x="335" y="67" type="line"/>
			<point x="335" y="39"/>
			<point x="329" y="29"/>
			<point x="301" y="25" type="curve" smooth="yes"/>
			<point x="287" y="23" type="line"/>
			<point x="280" y="22"/>
			<point x="276" y="17"/>
			<point x="276" y="11" type="curve" smooth="yes"/>
			<point x="276" y="5"/>
			<point x="281" y="0"/>
			<point x="288" y="0" type="curve" smooth="yes"/>
			<point x="463" y="0" type="line"/>
			<point x="470" y="0"/>
			<point x="475" y="4"/>
			<point x="475" y="11" type="curve" smooth="yes"/>
			<point x="475" y="18"/>
			<point x="471" y="22"/>
			<point x="464" y="23" type="curve" smooth="yes"/>
			<point x="437" y="26" type="line"/>
			<point x="409" y="29"/>
			<point x="403" y="39"/>
			<point x="403" y="67" type="curve" smooth="yes"/>
			<point x="403" y="335" type="line"/>
			<point x="403" y="408"/>
			<point x="452" y="470"/>
			<point x="516" y="470" type="curve" smooth="yes"/>
			<point x="560" y="470"/>
			<point x="585" y="446"/>
			<point x="585" y="381" type="curve" smooth="yes"/>
			<point x="585" y="67" type="line"/>
			<point x="585" y="39"/>
			<point x="579" y="29"/>
			<point x="551" y="25" type="curve" smooth="yes"/>
			<point x="537" y="23" type="line"/>
			<point x="530" y="22"/>
			<point x="526" y="17"/>
			<point x="526" y="11" type="curve" smooth="yes"/>
			<point x="526" y="5"/>
			<point x="530" y="0"/>
			<point x="540" y="0" type="curve" smooth="yes"/>
			<point x="708" y="0" type="line"/>
			<point x="715" y="0"/>
			<point x="720" y="4"/>
			<point x="720" y="11" type="curve" smooth="yes"/>
			<point x="720" y="18"/>
			<point x="716" y="22"/>
			<point x="709" y="23" type="curve" smooth="yes"/>
			<point x="687" y="26" type="line"/>
			<point x="659" y="30"/>
			<point x="653" y="39"/>
			<point x="653" y="67" type="curve" smooth="yes"/>
			<point x="653" y="392" type="line"/>
			<point x="653" y="473"/>
			<point x="614" y="516"/>
			<point x="552" y="516" type="curve" smooth="yes"/>
			<point x="509" y="516"/>
			<point x="474" y="501"/>
			<point x="424" y="455" type="curve" smooth="yes"/>
			<point x="412" y="444"/>
			<point x="403" y="447"/>
			<point x="403" y="459" type="curve" smooth="yes"/>
			<point x="403" y="724" type="line"/>
			<point x="403" y="735"/>
			<point x="399" y="743"/>
			<point x="390" y="743" type="curve" smooth="yes"/>
			<point x="378" y="743"/>
			<point x="374" y="736"/>
			<point x="366" y="712" type="curve" smooth="yes"/>
			<point x="363" y="703"/>
			<point x="355" y="702"/>
			<point x="349" y="709" type="curve" smooth="yes"/>
			<point x="325" y="734"/>
			<point x="294" y="748"/>
			<point x="256" y="748" type="curve" smooth="yes"/>
			<point x="147" y="748"/>
			<point x="85" y="654"/>
			<point x="85" y="550" type="curve" smooth="yes"/>
			<point x="85" y="544" type="line"/>
			<point x="85" y="521"/>
			<point x="69" y="506"/>
			<point x="38" y="503" type="curve" smooth="yes"/>
			<point x="30" y="502"/>
			<point x="26" y="498"/>
			<point x="26" y="492" type="curve" smooth="yes"/>
			<point x="26" y="486"/>
			<point x="31" y="482"/>
			<point x="38" y="482" type="curve" smooth="yes"/>
			<point x="61" y="482" type="line"/>
			<point x="76" y="482"/>
			<point x="85" y="473"/>
			<point x="85" y="458" type="curve" smooth="yes"/>
			<point x="85" y="67" type="line"/>
			<point x="85" y="39"/>
			<point x="79" y="28"/>
			<point x="46" y="25" type="curve" smooth="yes"/>
			<point x="26" y="23" type="line"/>
			<point x="17" y="22"/>
			<point x="13" y="17"/>
			<point x="13" y="11" type="curve" smooth="yes"/>
			<point x="13" y="4"/>
			<point x="18" y="0"/>
		</contour>
	</outline>
</glyph>
<glyph name="f_i" format="2">
	<advance width="477"/>
	<outline>
		<contour>
			<point x="28" y="0" type="curve"/>
			<point x="203" y="0" type="line"/>
			<point x="213" y="0"/>
			<point x="218" y="4"/>
			<point x="218" y="12" type="curve"/>
			<point x="218" y="18"/>
			<point x="214" y="22"/>
			<point x="207" y="23" type="curve"/>
			<point x="182" y="26" type="line"/>
			<point x="159" y="29"/>
			<point x="153" y="39"/>
			<point x="153" y="67" type="curve"/>
			<point x="153" y="470" type="line"/>
			<point x="153" y="477"/>
			<point x="158" y="482"/>
			<point x="165" y="482" type="curve"/>
			<point x="319" y="482" type="line"/>
			<point x="328" y="482"/>
			<point x="333" y="477"/>
			<point x="333" y="468" type="curve"/>
			<point x="333" y="67" type="line"/>
			<point x="333" y="39"/>
			<point x="327" y="30"/>
			<point x="294" y="25" type="curve"/>
			<point x="282" y="23" type="line"/>
			<point x="273" y="21"/>
			<point x="269" y="17"/>
			<point x="269" y="11" type="curve"/>
			<point x="269" y="4"/>
			<point x="274" y="0"/>
			<point x="284" y="0" type="curve"/>
			<point x="451" y="0" type="line"/>
			<point x="461" y="0"/>
			<point x="466" y="4"/>
			<point x="466" y="12" type="curve"/>
			<point x="466" y="18"/>
			<point x="462" y="22"/>
			<point x="455" y="23" type="curve"/>
			<point x="430" y="26" type="line"/>
			<point x="407" y="29"/>
			<point x="401" y="39"/>
			<point x="401" y="67" type="curve"/>
			<point x="401" y="486" type="line"/>
			<point x="401" y="501"/>
			<point x="392" y="510"/>
			<point x="377" y="510" type="curve"/>
			<point x="165" y="510" type="line"/>
			<point x="158" y="510"/>
			<point x="153" y="515"/>
			<point x="153" y="522" type="curve"/>
			<point x="153" y="590" type="line"/>
			<point x="153" y="692"/>
			<point x="198" y="719"/>
			<point x="248" y="719" type="curve"/>
			<point x="325" y="719"/>
			<point x="307" y="626"/>
			<point x="363" y="626" type="curve"/>
			<point x="391" y="626"/>
			<point x="403" y="643"/>
			<point x="403" y="668" type="curve"/>
			<point x="403" y="711"/>
			<point x="349" y="748"/>
			<point x="268" y="748" type="curve"/>
			<point x="147" y="748"/>
			<point x="85" y="654"/>
			<point x="85" y="550" type="curve"/>
			<point x="85" y="544" type="line"/>
			<point x="85" y="521"/>
			<point x="69" y="506"/>
			<point x="38" y="503" type="curve"/>
			<point x="30" y="502"/>
			<point x="26" y="498"/>
			<point x="26" y="492" type="curve"/>
			<point x="26" y="486"/>
			<point x="31" y="482"/>
			<point x="38" y="482" type="curve"/>
			<point x="61" y="482" type="line"/>
			<point x="76" y="482"/>
			<point x="85" y="473"/>
			<point x="85" y="458" type="curve"/>
			<point x="85" y="67" type="line"/>
			<point x="85" y="39"/>
			<point x="79" y="28"/>
			<point x="46" y="25" type="curve"/>
			<point x="26" y="23" type="line"/>
			<point x="17" y="22"/>
			<point x="13" y="17"/>
			<point x="13" y="11" type="curve"/>
			<point x="13" y="4"/>
			<point x="18" y="0"/>
		</contour>
	</outline>
</glyph>
<glyph name="g.ss01" format="2">
  <advance width="395"/>
  <guideline x="124" y="26" angle="0"/>
  <anchor x="198" y="-205" name="bottom"/>
  <anchor x="198" y="510" name="top"/>
  <outline>
    <contour>
      <point x="178" y="-215" type="curve" smooth="yes"/>
      <point x="305" y="-215"/>
      <point x="397" y="-144"/>
      <point x="397" y="-46" type="curve" smooth="yes"/>
      <point x="397" y="36"/>
      <point x="337" y="87"/>
      <point x="241" y="87" type="curve" smooth="yes"/>
      <point x="143" y="87" type="line" smooth="yes"/>
      <point x="114" y="87"/>
      <point x="105" y="111"/>
      <point x="132" y="142" type="curve" smooth="yes"/>
      <point x="157" y="170"/>
      <point x="173" y="180"/>
      <point x="197" y="180" type="curve" smooth="yes"/>
      <point x="281" y="180"/>
      <point x="345" y="252"/>
      <point x="345" y="348" type="curve" smooth="yes"/>
      <point x="345" y="391"/>
      <point x="332" y="429"/>
      <point x="310" y="458" type="curve" smooth="yes"/>
      <point x="306" y="464"/>
      <point x="307" y="468"/>
      <point x="314" y="470" type="curve" smooth="yes"/>
      <point x="368" y="483" type="line" smooth="yes"/>
      <point x="377" y="485"/>
      <point x="381" y="490"/>
      <point x="381" y="498" type="curve" smooth="yes"/>
      <point x="381" y="505"/>
      <point x="376" y="510"/>
      <point x="366" y="510" type="curve" smooth="yes"/>
      <point x="277" y="510" type="line" smooth="yes"/>
      <point x="233" y="510"/>
      <point x="225" y="516"/>
      <point x="197" y="516" type="curve" smooth="yes"/>
      <point x="113" y="516"/>
      <point x="47" y="444"/>
      <point x="47" y="352" type="curve" smooth="yes"/>
      <point x="47" y="288"/>
      <point x="81" y="234"/>
      <point x="120" y="208" type="curve" smooth="yes"/>
      <point x="136" y="198"/>
      <point x="138" y="183"/>
      <point x="123" y="170" type="curve" smooth="yes"/>
      <point x="65" y="121" type="line" smooth="yes"/>
      <point x="33" y="94"/>
      <point x="43" y="59"/>
      <point x="91" y="39" type="curve" smooth="yes"/>
      <point x="107" y="32"/>
      <point x="107" y="18"/>
      <point x="91" y="4" type="curve" smooth="yes"/>
      <point x="23" y="-56"/>
      <point x="14" y="-76"/>
      <point x="14" y="-111" type="curve" smooth="yes"/>
      <point x="14" y="-168"/>
      <point x="77" y="-215"/>
    </contour>
    <contour>
      <point x="74" y="-98" type="curve" smooth="yes"/>
      <point x="74" y="-70"/>
      <point x="79" y="-46"/>
      <point x="116" y="-6" type="curve" smooth="yes"/>
      <point x="140" y="19"/>
      <point x="155" y="26"/>
      <point x="197" y="26" type="curve" smooth="yes"/>
      <point x="232" y="26" type="line" smooth="yes"/>
      <point x="296" y="26"/>
      <point x="333" y="-8"/>
      <point x="333" y="-68" type="curve" smooth="yes"/>
      <point x="333" y="-141"/>
      <point x="274" y="-193"/>
      <point x="190" y="-193" type="curve" smooth="yes"/>
      <point x="116" y="-193"/>
      <point x="74" y="-154"/>
    </contour>
    <contour>
      <point x="118" y="350" type="curve" smooth="yes"/>
      <point x="118" y="437"/>
      <point x="149" y="494"/>
      <point x="196" y="494" type="curve" smooth="yes"/>
      <point x="243" y="494"/>
      <point x="274" y="437"/>
      <point x="274" y="350" type="curve" smooth="yes"/>
      <point x="274" y="261"/>
      <point x="244" y="205"/>
      <point x="196" y="205" type="curve" smooth="yes"/>
      <point x="148" y="205"/>
      <point x="118" y="261"/>
    </contour>
  </outline>
</glyph>
<glyph name="q_j" format="2">
	<advance width="657"/>
	<outline>
		<contour>
			<point x="236" y="-205" type="curve"/>
			<point x="347" y="-205" type="line"/>
			<point x="362" y="-205"/>
			<point x="371" y="-196"/>
			<point x="371" y="-181" type="curve"/>
			<point x="371" y="347" type="line"/>
			<point x="371" y="427"/>
			<point x="374" y="472"/>
			<point x="379" y="502" type="curve"/>
			<point x="381" y="511"/>
			<point x="378" y="516"/>
			<point x="371" y="516" type="curve"/>
			<point x="365" y="516"/>
			<point x="359" y="513"/>
			<point x="346" y="498" type="curve"/>
			<point x="334" y="482"/>
			<point x="322" y="479"/>
			<point x="306" y="490" type="curve"/>
			<point x="280" y="508"/>
			<point x="259" y="516"/>
			<point x="232" y="516" type="curve"/>
			<point x="115" y="516"/>
			<point x="30" y="400"/>
			<point x="30" y="233" type="curve"/>
			<point x="30" y="88"/>
			<point x="92" y="-9"/>
			<point x="181" y="-9" type="curve"/>
			<point x="223" y="-9"/>
			<point x="249" y="6"/>
			<point x="282" y="50" type="curve"/>
			<point x="291" y="61"/>
			<point x="303" y="56"/>
			<point x="303" y="45" type="curve"/>
			<point x="303" y="-138" type="line"/>
			<point x="303" y="-166"/>
			<point x="297" y="-173"/>
			<point x="269" y="-177" type="curve"/>
			<point x="232" y="-182" type="line"/>
			<point x="225" y="-183"/>
			<point x="221" y="-187"/>
			<point x="221" y="-193" type="curve"/>
			<point x="221" y="-201"/>
			<point x="226" y="-205"/>
		</contour>
		<contour>
			<point x="203" y="37" type="curve"/>
			<point x="141" y="37"/>
			<point x="104" y="110"/>
			<point x="104" y="247" type="curve"/>
			<point x="104" y="397"/>
			<point x="154" y="491"/>
			<point x="229" y="491" type="curve"/>
			<point x="273" y="491"/>
			<point x="303" y="454"/>
			<point x="303" y="394" type="curve"/>
			<point x="303" y="169" type="line"/>
			<point x="303" y="95"/>
			<point x="254" y="37"/>
		</contour>
		<contour>
			<point x="446" y="-215" type="curve"/>
			<point x="533" y="-215"/>
			<point x="589" y="-116"/>
			<point x="589" y="44" type="curve"/>
			<point x="589" y="501" type="line"/>
			<point x="589" y="509"/>
			<point x="586" y="513"/>
			<point x="580" y="513" type="curve"/>
			<point x="575" y="513"/>
			<point x="571" y="510"/>
			<point x="565" y="504" type="curve"/>
			<point x="541" y="482"/>
			<point x="519" y="467"/>
			<point x="478" y="461" type="curve"/>
			<point x="467" y="459"/>
			<point x="462" y="456"/>
			<point x="462" y="450" type="curve"/>
			<point x="462" y="444"/>
			<point x="465" y="440"/>
			<point x="475" y="439" type="curve"/>
			<point x="496" y="436" type="line"/>
			<point x="515" y="433"/>
			<point x="521" y="427"/>
			<point x="521" y="403" type="curve"/>
			<point x="521" y="-91" type="line"/>
			<point x="521" y="-144"/>
			<point x="507" y="-175"/>
			<point x="482" y="-175" type="curve"/>
			<point x="446" y="-175"/>
			<point x="460" y="-119"/>
			<point x="418" y="-119" type="curve"/>
			<point x="394" y="-119"/>
			<point x="379" y="-138"/>
			<point x="379" y="-161" type="curve"/>
			<point x="379" y="-193"/>
			<point x="407" y="-215"/>
		</contour>
		<contour>
			<point x="556" y="605" type="curve"/>
			<point x="584" y="605"/>
			<point x="605" y="627"/>
			<point x="605" y="658" type="curve"/>
			<point x="605" y="688"/>
			<point x="585" y="710"/>
			<point x="556" y="710" type="curve"/>
			<point x="527" y="710"/>
			<point x="506" y="688"/>
			<point x="506" y="658" type="curve"/>
			<point x="506" y="628"/>
			<point x="527" y="605"/>
		</contour>
	</outline>
</glyph>
